<svg xmlns="http://www.w3.org/2000/svg" width="2048" height="1117" preserveAspectRatio="none" style="display: block;" version="1.1" viewBox="0 0 2048 1117"><defs><pattern id="_oxqgyd2r" patternUnits="userSpaceOnUse" width="446.8" height="446.8" patternTransform="rotate(-30)"><text x="223.4" y="223.4" font-family="Arial,Helvetica,sans-serif" font-size="37.233333333333334" fill="rgba(0,0,0,0.045)" font-weight="600" text-anchor="middle" letter-spacing="3">VECTOSOLVE</text></pattern><linearGradient id="l" x1="1262.04" x2="1256.06" y1="549.003" y2="487.09" gradientUnits="userSpaceOnUse"><stop class="stop0" offset="0" stop-color="rgb(35,52,86)" stop-opacity="1"></stop><stop class="stop1" offset="1" stop-color="rgb(54,76,120)" stop-opacity="1"></stop></linearGradient><linearGradient id="k" x1="1267.09" x2="1253.98" y1="587.843" y2="496.537" gradientUnits="userSpaceOnUse"><stop class="stop0" offset="0" stop-color="rgb(27,37,62)" stop-opacity="1"></stop><stop class="stop1" offset="1" stop-color="rgb(50,72,116)" stop-opacity="1"></stop></linearGradient><linearGradient id="j" x1="1276.63" x2="1240.73" y1="615.076" y2="439.67" gradientUnits="userSpaceOnUse"><stop class="stop0" offset="0" stop-color="rgb(64,83,117)" stop-opacity="1"></stop><stop class="stop1" offset="1" stop-color="rgb(79,113,171)" stop-opacity="1"></stop></linearGradient><linearGradient id="i" x1="1547.09" x2="1535.67" y1="544.07" y2="487.881" gradientUnits="userSpaceOnUse"><stop class="stop0" offset="0" stop-color="rgb(34,51,84)" stop-opacity="1"></stop><stop class="stop1" offset="1" stop-color="rgb(56,78,126)" stop-opacity="1"></stop></linearGradient><linearGradient id="h" x1="1546.92" x2="1542.93" y1="569.656" y2="524.25" gradientUnits="userSpaceOnUse"><stop class="stop0" offset="0" stop-color="rgb(30,40,68)" stop-opacity="1"></stop><stop class="stop1" offset="1" stop-color="rgb(43,64,107)" stop-opacity="1"></stop></linearGradient><linearGradient id="g" x1="1551.18" x2="1535.37" y1="587.63" y2="494.237" gradientUnits="userSpaceOnUse"><stop class="stop0" offset="0" stop-color="rgb(27,37,63)" stop-opacity="1"></stop><stop class="stop1" offset="1" stop-color="rgb(51,75,121)" stop-opacity="1"></stop></linearGradient><linearGradient id="f" x1="1559.82" x2="1521.58" y1="620.938" y2="432.983" gradientUnits="userSpaceOnUse"><stop class="stop0" offset="0" stop-color="rgb(64,83,118)" stop-opacity="1"></stop><stop class="stop1" offset="1" stop-color="rgb(80,115,174)" stop-opacity="1"></stop></linearGradient><linearGradient id="e" x1="1825.48" x2="1822.99" y1="548.814" y2="487" gradientUnits="userSpaceOnUse"><stop class="stop0" offset="0" stop-color="rgb(35,52,87)" stop-opacity="1"></stop><stop class="stop1" offset="1" stop-color="rgb(55,76,123)" stop-opacity="1"></stop></linearGradient><linearGradient id="d" x1="1832.86" x2="1817.46" y1="587.728" y2="482.101" gradientUnits="userSpaceOnUse"><stop class="stop0" offset="0" stop-color="rgb(26,34,59)" stop-opacity="1"></stop><stop class="stop1" offset="1" stop-color="rgb(54,78,125)" stop-opacity="1"></stop></linearGradient><linearGradient id="c" x1="1844.92" x2="1803.18" y1="625.149" y2="428.617" gradientUnits="userSpaceOnUse"><stop class="stop0" offset="0" stop-color="rgb(63,82,116)" stop-opacity="1"></stop><stop class="stop1" offset="1" stop-color="rgb(80,114,174)" stop-opacity="1"></stop></linearGradient><linearGradient id="b" x1="1368.14" x2="1172.69" y1="990.838" y2="769.968" gradientUnits="userSpaceOnUse"><stop class="stop0" offset="0" stop-color="rgb(20,26,46)" stop-opacity="1"></stop><stop class="stop1" offset="1" stop-color="rgb(66,96,147)" stop-opacity="1"></stop></linearGradient><linearGradient id="a" x1="1710.65" x2="1710.35" y1="951.001" y2="772.573" gradientUnits="userSpaceOnUse"><stop class="stop0" offset="0" stop-color="rgb(28,39,64)" stop-opacity="1"></stop><stop class="stop1" offset="1" stop-color="rgb(60,87,135)" stop-opacity="1"></stop></linearGradient></defs><path fill="url(#a)" d="M1455.04 774.456c.59-1.16 1.52-3.769 3.1-3.76 169.35.974 339.72-2.328 509.01-.143q.42 54.19.3 108.38c-.02 16.735.61 40.276-.47 56.426.9 5.929.44 42.539.43 51.201-8.42 4.911-8.74 5.169-18.67 5.012-7.04-.112-14.68.024-21.76.032l-84.89.039-246.49-.01c-14.26-.002-133.83 1.225-139.18-1.875-2.7-5.192-1.79-95.812-1.63-110.743.32-31.649-1.1-72.745.25-104.559"></path><path fill="rgb(28,38,63)" d="m1455.04 774.456.15.967c1.3 8.88.73 39.219.77 49.994l.54 100.834c.05 6.535-.15 33.389 1.18 38.217 2.63-5.189-1.94-12.839 2.19-17.223.87.587.96.714 1.72 1.426 50.91-2.305 104.04 3.135 155.28-.516 8.61-.614 36.1 5.228 40.32.619 1.31-.005 16.66-.083 16.26-.422 8.03 6.771 10.23-.022 16.7-.326 7.96-.373 18.76 8.305 25.75.254 8.14 3.414 16.71-.322 25.94.054 16.57.674 32.06 1.623 48.56-.706.06-.009 4.32 2.405 4.79 2.628 3.16.312 10.79-1.088 13.47-.856 11.27.975 32.02-2.378 41.4 1.264 3.1 1.205 2.67 1.397 6.13 1.9 9.24 5.505 13.95 17.169 17.39 26.882 2.8-8.546 8.46-23.07 17.17-26.902 6.48-.63 9.63-4.819 16.16-5.236 4.91-.312 12.5 1.684 17.38 2.132.88.08 3.94-3.913 7.21-3.59 1.74 2.179 2 2.577 4.5 3.75 2.17-1.699 2.83-2.539 5.44-3.002 2.3 1.614 3.23 2.667 5.97 2.53.67-1.057 1.11-2.106 1.51-3.29 2.24.302 4.47.643 6.7 1.022 3.11.544 6.43 1.099 8.27 3.735-.31 4.182.03 6.462.5 10.643l.78.307c2.27-6.194-2.11-21.492 1.81-26.186.9 5.929.44 42.539.43 51.201-8.42 4.911-8.74 5.169-18.67 5.012-7.04-.112-14.68.024-21.76.032l-84.89.039-246.49-.01c-14.26-.002-133.83 1.225-139.18-1.875-2.7-5.192-1.79-95.812-1.63-110.743.32-31.649-1.1-72.745.25-104.559"></path><path fill="rgb(105,113,132)" d="M1873.54 905.071c7.64 22.389 14.53 29.543 37.15 37.49-6.95 2.395-14.74 4.648-19.94 9.983-8.71 3.832-14.37 18.356-17.17 26.902-3.44-9.713-8.15-21.377-17.39-26.882-6.53-6.07-11.83-7.272-20.18-9.982 22.51-8.212 29.55-14.411 37.53-37.511"></path><path fill="rgb(49,70,111)" d="M1531.21 831.056c14.42 9.721 23.18 12.418 40.23 14.074.4 4.136 1.66 10.105-.49 13.316-2.5 1.323-2.94 1.309-5.78 1.829 2.2.51 2.7.619 4.95.68-5.8 1.882-5.96 6.526-10.69 11.213-.75 5.618-.85 11.668-4.7 15.794l1.57 3.198 3.77-2.34 2.3 2.913c1.59 1.035 2.78 1.912 4.3 3.064 2.5 13.596-24.98 30.378-35.48 35.652-42.34-21.346-42.68-42.26-40.86-85.014 17.27-1.321 26.62-4.399 40.88-14.379"></path><path fill="rgb(96,110,245)" d="M1531.21 831.056c14.42 9.721 23.18 12.418 40.23 14.074.4 4.136 1.66 10.105-.49 13.316-2.5 1.323-2.94 1.309-5.78 1.829-.21-3.912.36-5.812-1.56-8.658-13.34-3.368-20.56-5.253-32.43-12.215-12.7 7.367-19.79 9.967-34.43 12.25-.18 15.587-1.18 29.674 4.37 44.499l5.73 9.201 1.12-.214c1.49-3.898.64-42.567.87-50.202 7.16-.678 19.62-.524 27.19-.668l-.18 3.879-23.22-.053-.07 36.998c.01 4.245.27 11.938-.46 15.826 6.76 4.524 12.21 8.03 19.29 12.014 15.15-7.772 24.34-15.411 30.98-31.199 1.59 1.035 2.78 1.912 4.3 3.064 2.5 13.596-24.98 30.378-35.48 35.652-42.34-21.346-42.68-42.26-40.86-85.014 17.27-1.321 26.62-4.399 40.88-14.379"></path><path fill="rgb(28,38,63)" d="M1515.59 894.078c2.52 2.097 5.26 4.13 8.44 2.596 1.49-4.398-1.01-7.604-.41-13.228l1.53-.147c2.15 2.137 2.71 2.943 5.56 3.865 3.23-.647 5.15-3.527 7.36-6.068-.13 5.747-1.26 18.558 1.77 22.973l2.28.042c4.64-2.503 10.31-8.974 14.18-12.951l3.77-2.34 2.3 2.913c-6.64 15.788-15.83 23.427-30.98 31.199-7.08-3.984-12.53-7.49-19.29-12.014.73-3.888.47-11.581.46-15.826 1-2.427 1.19-4.292 3.07-5.205.03 1.574.09 2.603-.04 4.191"></path><path fill="rgb(37,165,221)" d="M1515.59 894.078c7.24-9.436-.55-12.891 4.46-22.089l1.78-.197c4.54 3.224 2.49 5.358 8 10.952l.76.752c3.66-4.165 7.38-7.916 11.25-11.863l.1 28.156 12.79-11.827 1.57 3.198c-3.87 3.977-9.54 10.448-14.18 12.951l-2.28-.042c-3.03-4.415-1.9-17.226-1.77-22.973-2.21 2.541-4.13 5.421-7.36 6.068-2.85-.922-3.41-1.728-5.56-3.865l-1.53.147c-.6 5.624 1.9 8.83.41 13.228-3.18 1.534-5.92-.499-8.44-2.596"></path><path fill="rgb(37,165,221)" d="M1536.03 854.268c4.41.134 12.39 9.388 15.85 12.974.1 6.241 1.38 17.01-2.23 21.435-3.31-2.656-.02-14.831-3.16-18.664-4.88-.26-6.77.193-10.09-2.845-1.09-3.589-.78-5.293-.55-9.021z"></path><path fill="rgb(28,38,63)" d="M1501.12 896.151c.65-1.991.93-3.674 2.41-5.082l1.93.27c2.8 4.157 2.44 8.859 2.51 13.799l-1.12.214zm214.51-18.836c8.55 3.312 7.91 9.402 2.78 15.798-.84-.333-1.71-.688-2.49-1.125a7.38 7.38 0 0 1-3.61-5.138c-.68-3.822 1.22-6.69 3.32-9.535m26.13.152c9.9 1.335 8.08 8.884 4.84 15.452-9.46-1.831-7.95-8.674-4.84-15.452m126.37 8.636c3.43-.219 5.36-.733 7.44 2.042-.42 3.178-1.88 4.275-4.05 6.716-4.35-.587-5.94-.552-7.5-4.711 1.52-2.888.9-1.905 4.11-4.047"></path><path fill="rgb(32,191,159)" d="M1570.12 860.955c1.41 2.756 2.26 3.717 1.8 6.739-4.29 4.965-8.47-.35-9.91 7.813 4.6 3.886 11.25-2.023 16.95-1.328 2.76 2.317 2.15 1.149 2.6 4.293-5.18 6.794-11.83-3.975-19.9 2.586-.93 2.653-1.39 2.649-1.01 5.051 5 .485 5.92-2.692 10.23-1.263 1.45 2.831 1.1 1.603.79 5.263-4.32 3.908-6.7-.622-11.6-1.289l-3.77 2.34-1.57-3.198c3.85-4.126 3.95-10.176 4.7-15.794 4.73-4.687 4.89-9.331 10.69-11.213"></path><path fill="rgb(28,38,63)" d="m1679.92 873.247-.51-5.483.91-.765c1.54 6.773 2.46 17.124-8.32 14.108l1.36-1.639c5.52-1.46 4.93-1.324 6.56-6.221"></path><path fill="url(#b)" d="M1169.33 771.089c14.26-1.71 65.32-.684 81.7-.424 39.11.621 82.97-1.285 121.51.33 5.26 3.416 6.29 4.675 9.69 9.881l-.2 126.702c-.01 16.12 1.3 64.279-2.3 77.159-2.61 2.738-7.68 4.963-11.21 6.758-6.42.609-22.53.134-29.43.129l-59.09.046-65.68.134c-5.76.008-48.88 1.175-50.4-4.204-4.75-16.864-3.22-42.598-3.29-60.406l-.2-83.636c-.02-20.04-.44-43.46.53-63.651.19-3.988 5.08-6.676 8.37-8.818"></path><path fill="rgb(96,110,245)" d="M1271.61 799.56c12.04 8.039 24.42 15.567 38.86 18.548 7.12 1.471 18.66 2.589 24.98 5.141 3.65 3.676 2.71 17.828 2.72 23.678l-.66.084c-2.91.352-4.14.343-7.06.269-.7.938-.9.806-.83 1.554l-.56.812c-6.05 8.868-1.09 7.111-11.27 16.159-.28 2.237-1.13 10.369-1.8 11.965l-.62 6.286 3.85 3.088.64 2.236c8.06 1.365 9.71-7.589 17.15-1.281 1.26 2.877 1.25 3.248.62 6.335-7.58 7.81-15.72-8.128-28 6.277 8.17-.58 3.04-2.558 10.05-3.171l.9 1.13c-2.34 5.558-5.85 8.384-7.9 13.951l1.89 1.41c4.01-4.975 5.84-9.537 8.48-15.263 3.49 1.989 6.28 1.86 8.22 4.249 1.47 6.978-5.31 15.064-9.32 20.323-12.86 16.885-31.57 29.197-50.29 38.725-30.57-15.332-58.19-35.957-63.73-71.289-3.44-21.955-3.59-45.973-1.79-68.007 29.44-3.712 41.03-6.424 65.47-23.209"></path><path fill="rgb(28,38,63)" d="M1275.11 842.632c4.25 1.087 3.02.145 5.09 3.197.2 3.07-.03 4.18-.65 7.15-2.37 11.324 14.29 9.529 20.45 9.531.01 8.982-.43 24.618.54 33.061l2.31 3.481c5.85-5.04 9.66-7.857 12.52-14.996l3.85 3.088.64 2.236c8.06 1.365 9.71-7.589 17.15-1.281 1.26 2.877 1.25 3.248.62 6.335-7.58 7.81-15.72-8.128-28 6.277 8.17-.58 3.04-2.558 10.05-3.171l.9 1.13c-2.34 5.558-5.85 8.384-7.9 13.951l1.89 1.41c-4.72 13.276-31.39 29.062-42.93 35.668-10.54-5.568-19.57-11.778-29.05-18.948l.2-87.445c8.39-.027 24.66.488 32.32-.674"></path><path fill="rgb(37,165,221)" d="M1273.79 883.046c2.67-3.942 6.86-10.465 11.03-12.431 4.84.475 5.14 4.646 5.33 8.999.46 10.73-.35 21.95-.33 32.672 3.82-3.809 9.11-9.407 13.11-12.751 1.74.769 3.48 1.317 4.75 2.68-4.77 5.107-15.23 18.79-22.56 17.156-5.14-6.471 2.75-30.738-2.75-36.457l-3.37 2.242c-4.99 1.887-4.5 4.338-8.51 3.699l-.62-1.685c1.76-1.167 2.53-1.556 4.45-2.458z"></path><path fill="rgb(37,165,221)" d="M1259.33 880.444c-.46 10.236 3.79 19.533 2.43 23.725-2.4 2.328-3.09 2.402-6.36 3.3-9.59-2.448-.45-21.209-1.73-27.566-1.08-5.341-5.48-3.064-3.22-11.512 2.34-2.453 2.7-2.633 5.96-3.566 9.58 2.653 6.52 19.959 17.38 18.221l.53 1.666c-1.92.902-2.69 1.291-4.45 2.458l.62 1.685c4.01.639 3.52-1.812 8.51-3.699-1.9 3.192-4.92 6.117-7.5 8.858z"></path><path fill="rgb(32,191,159)" d="M1302.85 899.052c5.85-5.04 9.66-7.857 12.52-14.996l3.85 3.088.64 2.236c8.06 1.365 9.71-7.589 17.15-1.281 1.26 2.877 1.25 3.248.62 6.335-7.58 7.81-15.72-8.128-28 6.277l-1.95 1.504c-1.27-1.363-3.01-1.911-4.75-2.68z"></path><path fill="rgb(49,70,111)" d="M1216.39 832.486c21.06-2.97 37.16-7.402 55.25-19.39 20.17 12.102 31.84 15.461 54.93 19.23-.03 4.505-.78 8.518 1.14 12.092 5.05 1.92 5.99.13 10.46 2.509l-.66.084c-2.91.352-4.14.343-7.06.269-.7.938-.9.806-.83 1.554l-.56.812c-6.05 8.868-1.09 7.111-11.27 16.159-.28 2.237-1.13 10.369-1.8 11.965l-.62 6.286c-2.86 7.139-6.67 9.956-12.52 14.996l-2.31-3.481c-.97-8.443-.53-24.079-.54-33.061-6.16-.002-22.82 1.793-20.45-9.531.62-2.97.85-4.08.65-7.15-2.07-3.052-.84-2.11-5.09-3.197.22-3.388.71-2.834-.71-5.27-7.93-.11-29.78-1.521-35.46 1.701-4.21 7.501-2.43 72.79-2.38 86.251-23.73-28.824-20.67-56.593-20.17-92.828"></path><path fill="rgb(37,165,221)" d="m1274.4 837.362 10.45.091c6.47 6.335 15.16 14.341 21.17 20.827a958 958 0 0 0 .09 26.264c-.11 6.484-.57 6.972-5.57 11.027-.97-8.443-.53-24.079-.54-33.061-6.16-.002-22.82 1.793-20.45-9.531.62-2.97.85-4.08.65-7.15-2.07-3.052-.84-2.11-5.09-3.197.22-3.388.71-2.834-.71-5.27"></path><path fill="rgb(28,38,63)" d="m1306.11 884.544 1.69-11.733c2.69 3.114.79 15.19 1.46 17.68 3.14-5.122 3.14-6.004 4.57-11.721l2.16-1-.62 6.286c-2.86 7.139-6.67 9.956-12.52 14.996l-2.31-3.481c5-4.055 5.46-4.543 5.57-11.027"></path><path fill="rgb(32,191,159)" d="M1329.62 848.834c4.78 1.262 5.53 1.41 9.19 4.659l.93 2.059c-3.58 8.6-20.09 7.632-17.97 17.69 1.96.315 15.32-.588 18.88-.553l.66-.706c3.95-4.199 6.88-5.524 11.48-1.436 1.29 3.011 1.29 3.388.51 6.571-8.98 10.897-30.18-13.788-34.08 10.026l-3.85-3.088.62-6.286c.67-1.596 1.52-9.728 1.8-11.965 10.18-9.048 5.22-7.291 11.27-16.159z"></path><path fill="rgb(242,242,242)" d="M1357.83 267.957c-4.18-.526-2.96.156-5.75-2.08-.44-6.049 6.76-6.13 4.33-14.241-1.83-.572-2.77-1.031-4.5-1.857-1.11-3.155-1.1-1.739.7-5.608l5.19-.441zm-.69-111.149c1.05 7.04.65 20.581.64 28.189-1.63-1.048-2.63-.901-4.69-1.184-1.44-1.223-1.42-1.893-1.87-3.722 1.72-2.939.79-1.933 4.69-3.561 1.07-2.348.58-14.669 1.23-19.722m-44.79-4.445a4.013 4.013 0 0 1 5.38.068 4.04 4.04 0 0 1 1.01 4.442 4.03 4.03 0 0 1-3.79 2.531 4.017 4.017 0 0 1-2.6-7.041m-81.81-.693 7.91.069c-.15 2.925-.16 3.37-1.44 5.984-3.07 1.859-1.81 1.686-4.79 1.075-2.42-3.171-1.69-2.358-1.68-7.128m65.9.675a3.954 3.954 0 0 1 5.05.14 3.96 3.96 0 0 1 1.06 4.409 3.945 3.945 0 0 1-7.42-.207 3.945 3.945 0 0 1 1.31-4.342m61.47 183.853-4.27-.627c-2.26-2.998-1.84-1.649-1.9-5.076 2.53-2.996 1.47-2.124 6.08-2.829zm-.1-101.379c-1.85-.075-2.68-.2-4.5-.529-1.97-2.636-1.72-1.505-1.52-4.342 2.52-3.335 1.26-2.388 6.03-3.201zm-158.43-82.463a3.74 3.74 0 0 1 4.21-.012 3.76 3.76 0 0 1 1.5 4.208 3.76 3.76 0 0 1-3.59 2.662 3.74 3.74 0 0 1-3.59-2.643 3.74 3.74 0 0 1 1.47-4.215m158.43 149.703c-2.21-.19-2.68-.119-4.66-1.02-1.7-3.254-1.75-2.157-1.07-5.011 2.68-1.953 1.46-1.424 5.73-1.174zm.01 16.323-3.74.128c-2.24-2.355-1.73-1.187-1.93-4.367 2.48-3.674.99-2.658 5.68-3.615zm-.01-117.856a51 51 0 0 0-4.19-.518c-2.08-2.734-1.93-1.687-1.7-4.412 2.46-2.577 1.5-1.837 5.87-2.115z"></path><path fill="rgb(96,110,245)" d="M1261.56 171.239c2.48-2.142 2.95-2.744 6.14-3.124 3.86 2.363 2.78 5.321 1.74 9.328 15.16 8.291 24.24 11.595 41.64 14.118.78-4.292.02-3.707 2.64-6.46 3-.473 1.78-.742 4.53 1.244.85 2.5.87 3.01.99 5.657 2.01 1.009 3.75 1.35 4.1 3.871.88 6.136 1.55 12.769.34 18.787-2.22 2.081-7.57.931-10.67.578l-.88-.43c-3.19 2.73-4.34 3.155-8.14 2.149-1.56-2.56-1.13-1.546-1.03-4.914 2.32-2.971 2.27-1.788 7.71-2.585.93-2.571.86-4.252 1.01-6.958l-2.82-1.393c-1.58.381-3.13.898-4.68 1.382-1.53 3.822-3.14 6.111-7.02 7.8l-1.28-1.091c-1.6-5.85-1.28-5.882 2.89-9.139-15.3-3.393-27.32-8.663-40.54-16.92-13.61 8.797-25.33 13.409-41.08 17.187-2.72.365-5.93.943-8.62.797-7.71 2.763-5.5 8.804-5.06 16.168.23 15.818.13 27.504 3.05 43.149 4.3-.137 3.56-.719 6.93 1.144.6 2.856.09 2.757-1.08 5.779-1.02.753-2.51 1.684-3.23 2.63 2.83 6.497 6.97 15.084 12.17 19.957l1.24.052v-2.419c-.74-2.856-.75-8.008-1.52-11.877-2.53.546-4.1 1.22-6.39.214-.92-2.747-.8-3.125.03-5.921l5.62-1.415c1.45-1.504 2.5-2.229 2.08-4.858-1.25-7.774-3.1-1.192-8.25-5.314-.52-2.849-.29-3.254.85-5.945 2.06.034 2.14-.01 4.16-.48 3.34-3.226 2.67-4.33 3.58-9.584l.08-4.799c-1.64-4.983-.15-11.988-2.88-11.994-3.68-.009-4.23.28-6.56-1.69-.85-8.037 4.76-5.039 7.94-6.928l1.03-5.003 2.82-4.589c9.02-1.375 29.08-.324 39.91-.815-2.66 1.821-2.77 1.236-3.49 3.624 1.9 2.397 1.23 1.636 4.9 2.535-4.08.26-8.79.037-12.93-.059-8.15.095-16.31.137-24.46.126-.1 27.933-.67 58.452 0 86.17 7.52 5.775 16.11 12.328 24.57 16.722 1.95-4.241.73-3.043 4.35-5.001 3.67.922 3.88 1.357 5.17 5.064 9.13-5.082 16.16-10.318 24.1-16.998 3.55-3.471 6.07-6.341 9.3-10.12 3.99.2 5.92.006 9.26 2.202l1.33 1.9.65-.065c3.03 2.711 2.21 1.382 3.47 4.985-.92 3.217-.13 2.088-3.25 4.113-3.12.461-4.17-.141-7.04-1.219l-4.3 4.325c-6.03 5.063-11.15 9.197-17.5 13.842l-.81.561-19.36 11.101c-7.14-2.953-13.85-7.086-20.54-10.968l-.71-.604c-9.29-6.497-15.46-11.409-23.18-19.65-2.91 2.733-4.17 3.088-7.71 1.954l-1.15-2.433c.36-3.479.52-3.842 2.96-6.351-16.74-26.368-15.51-41.804-15.96-72.383-.24-7.037-1.04-17.735.77-24.587.61-2.299 2.06-2.295 4.41-3.26-.03-3.155-.33-4.788 1.52-7.413 2.72-.362 2.35.144 5.11 2.226.44 2.211.45 3.059 2.15 4.591 16.65-2.599 24.89-5.728 39.75-13.559 1.07-4.078-1.6-7.316 3.14-10.158 2.98.457 3.59 1.197 5.95 3.143 2.76-.331 3.54-.651 6.04.298"></path><path fill="rgb(100,124,189)" d="M1225.14 207.4c9.02-1.375 29.08-.324 39.91-.815-2.66 1.821-2.77 1.236-3.49 3.624 1.9 2.397 1.23 1.636 4.9 2.535-4.08.26-8.79.037-12.93-.059-5.75-.934-20.71-2.78-25.99-.705z"></path><path fill="rgb(242,242,242)" d="M1222.55 287.583c-.74-2.856-.75-8.008-1.52-11.877-2.53.546-4.1 1.22-6.39.214-.92-2.747-.8-3.125.03-5.921l5.62-1.415c1.45-1.504 2.5-2.229 2.08-4.858-1.25-7.774-3.1-1.192-8.25-5.314-.52-2.849-.29-3.254.85-5.945 2.06.034 2.14-.01 4.16-.48 3.34-3.226 2.67-4.33 3.58-9.584.16 14.647.63 30.704-.16 45.18m.24-49.979c-1.64-4.983-.15-11.988-2.88-11.994-3.68-.009-4.23.28-6.56-1.69-.85-8.037 4.76-5.039 7.94-6.928l1.03-5.003c1.07 7.126.68 18.146.47 25.615m88.89-35.104c1.99 2.444 1.62 9.438 1.33 12.738l-.88-.43c-3.19 2.73-4.34 3.155-8.14 2.149-1.56-2.56-1.13-1.546-1.03-4.914 2.32-2.971 2.27-1.788 7.71-2.585.93-2.571.86-4.252 1.01-6.958m-12.91-2.441c3.46.612 6.59 1.36 10.09 1.048-1.58.381-3.13.898-4.68 1.382-1.53 3.822-3.14 6.111-7.02 7.8l-1.28-1.091c-1.6-5.85-1.28-5.882 2.89-9.139m8.38 92.691.65-.065c3.03 2.711 2.21 1.382 3.47 4.985-.92 3.217-.13 2.088-3.25 4.113-3.12.461-4.17-.141-7.04-1.219zm-60.72-114.794c1.07-4.078-1.6-7.316 3.14-10.158 2.98.457 3.59 1.197 5.95 3.143-2.58 3.184-5.63 4.818-9.09 7.015m-48.53 14.155c-.03-3.155-.33-4.788 1.52-7.413 2.72-.362 2.35.144 5.11 2.226.44 2.211.45 3.059 2.15 4.591-3.11.455-5.68 1.047-8.78.596m63.66-20.872c2.48-2.142 2.95-2.744 6.14-3.124 3.86 2.363 2.78 5.321 1.74 9.328-2.98-1.825-6.03-3.292-7.88-6.204"></path><path fill="rgb(242,242,242)" d="M1206.52 260.44c4.3-.137 3.56-.719 6.93 1.144.6 2.856.09 2.757-1.08 5.779-1.02.753-2.51 1.684-3.23 2.63-1.07-3.115-1.81-6.357-2.62-9.553m104.56-68.879c.78-4.292.02-3.707 2.64-6.46 3-.473 1.78-.742 4.53 1.244.85 2.5.87 3.01.99 5.657-2.45-.008-5.65-.295-8.16-.441m-57.44 124.142c1.95-4.241.73-3.043 4.35-5.001 3.67.922 3.88 1.357 5.17 5.064-4.62 3.144-5.11 2.183-9.52-.063m-44.96-23.362 5.9 6.83c-2.91 2.733-4.17 3.088-7.71 1.954l-1.15-2.433c.36-3.479.52-3.842 2.96-6.351"></path><path fill="rgb(37,165,221)" d="m1238.7 234.59 7.28.006c6.32 8.21.99 9.081 12.11 19.783 3.93-4.816 9.42-13.168 15.42-13.934 5.65 3.441 2.62 30.862 2.71 38.878 5.37-4.996 11.91-11.449 17.38-16.108l3.48 3.385c-4.63 4.593-14.15 13.494-17.99 18.15l-.98 1.874c-1.77.656-4.97 1.959-6.69 2.305l-.56.329c-.4 1.894-.48 2.272-1.2 4.053-3.49 1.216-2.08 1.254-5.32.046-2.14-3.404-1.74-1.902-1.77-5.688 2.3-2.85 1.82-1.21 6.68-2.338.8-3.387.25-22.152.82-28.362.4-2.458.2-3.275-.08-5.785-3.46.164-6.87 9.627-12.41 10.452-3.48-1.864-9.67-9.416-12.61-12.698-.07 2.868-.39 12.447.48 14.724.97 2.547 3.77 1.824 3.67 7.336-4.67 7.469-13.36 5.422-13.37-2.685 12.32-13.789-4.6-22.043 2.95-33.723"></path><path fill="rgb(242,242,242)" d="M1270.07 256.969c1.54 10.527-.4 22.521 1.35 31.96l-.56.329c-.4 1.894-.48 2.272-1.2 4.053-3.49 1.216-2.08 1.254-5.32.046-2.14-3.404-1.74-1.902-1.77-5.688 2.3-2.85 1.82-1.21 6.68-2.338.8-3.387.25-22.152.82-28.362"></path><path fill="rgb(37,165,221)" d="M1265.05 206.585c8.95.349 15.11 8.32 21.22 14.928l6.45 7.055c.1 8.047 2.65 29.626-4.45 33.981-1.43-1.313-.96-.538-1.47-2.386-2.6-.081-4.52.012-7.03-.739-1.52-3.251-1.16-1.86-.78-5.941 2.19-2.156 2.16-1.458 6.02-1.449 2.34-3.213-.96-5.603 1.8-9.733 1.45-17.366-8.2-5.525-17.73-11.57-4.56-5.349-3.13-10.998-2.62-17.987-3.67-.899-3-.138-4.9-2.535.72-2.388.83-1.803 3.49-3.624"></path><path fill="rgb(242,242,242)" d="M1286.8 260.163c-2.6-.081-4.52.012-7.03-.739-1.52-3.251-1.16-1.86-.78-5.941 2.19-2.156 2.16-1.458 6.02-1.449 2.34-3.213-.96-5.603 1.8-9.733.03 5.739.23 12.184-.01 17.862"></path><path fill="rgb(32,191,159)" d="M1293.6 263.215c14.57-13.365 3.32-23.955 18.14-35.949.58-.467-.41-3.78 3.15-7.128 5.58-1.289 8.9-.425 11 5.59-2.89 6.719-8.77 3.15-13 6.652-2.97 2.46-6.32 5.372-4.2 9.112 3.72 1.703 15.37 1.218 18.56-1.025 2.64-2.516 3.05-2.952 6.77-3.597 5.22 1.792 6.61 4.885 4.79 10.379-2.66 2.551-3.85 3.12-7.62 1.49-6.02-4.502-19.76-3.844-25.34 1.417-1.15 2.938-1.12 4.692 1.01 7.341 7.75.41 8.83-6.41 16.25-1.626 2.52 5.49 1.8 7.41-3.59 10.018-8.24.767-11.54-10.669-22.44.711z"></path><path fill="rgb(32,191,159)" d="M1327.25 240.467c2.64-2.516 3.05-2.952 6.77-3.597 5.22 1.792 6.61 4.885 4.79 10.379-2.66 2.551-3.85 3.12-7.62 1.49-3.53-4.589-3.63-3.305-3.94-8.272"></path><path fill="rgb(96,110,245)" d="M1296.56 288.648c4.71-5.931 10.61-19.31 13.22-20.715 2.75.499 5.49.878 8.11 1.817 1.17 4.832-7.38 17.989-10.09 22.935l-.65.065-1.33-1.9c-3.34-2.196-5.27-2.002-9.26-2.202"></path><path fill="rgb(242,242,242)" d="M1208.53 201.123c2.69.146 5.9-.432 8.62-.797l4.07 2.189c.79 2.949.31 3.748-.71 6.688l-1.32.741c-3.57-1.841-5.11-3.584-6.36-7.464-1.42-.455-2.88-.944-4.3-1.357m69.58 85.501.98-1.874c5.89 2.41 4.57.451 7.56 4.859l.05 2.371c-2.55 2.198-1.42 1.516-5.32 2.155l-2-1.113c-.27-1.771-.6-4.903-1.27-6.398m-71.47-75.882a4.386 4.386 0 0 1 6.21.157 4.39 4.39 0 0 1-.18 6.206c-1.76 1.651-4.53 1.57-6.18-.182a4.384 4.384 0 0 1 .15-6.181m105.02 93.039a4.37 4.37 0 0 1 4.25-1.476 4.37 4.37 0 0 1 3.31 3.061 4.38 4.38 0 0 1-1.15 4.357 4.374 4.374 0 0 1-6.03.079 4.375 4.375 0 0 1-.38-6.021m-32.48 14.95c5.49 1.773 5.07.98 7.34 5.208l-.27 2.363c-2.24 1.638-1.24 1.219-4.64.892-3.55-2.734-2.81-3.213-3.24-7.902zm-65.42 18.07c2.78-.017 4.03.093 6.78.488 1.96 2.467 1.35 3.511 1.57 7.218-2.38.045-4.33-.042-6.71-.166-2.05-2.555-1.41-3.669-1.64-7.54m-47.6-50.02a4.316 4.316 0 0 1 6.07.343 4.315 4.315 0 0 1-.31 6.067 4.303 4.303 0 0 1-6.1-.307 4.305 4.305 0 0 1 .34-6.103m121.78 42.117a4.271 4.271 0 1 1 1.67 7.25 4.25 4.25 0 0 1-2.95-3.135 4.26 4.26 0 0 1 1.28-4.115m7.92 8.918a4.24 4.24 0 0 1 4.33-1.213 4.26 4.26 0 0 1 3 3.359 4.257 4.257 0 0 1-7.37 3.555 4.247 4.247 0 0 1 .04-5.701m-72.52-8.956a4.25 4.25 0 0 1 5.96.311 4.25 4.25 0 1 1-7.3 3.758 4.25 4.25 0 0 1 1.34-4.069m15.94.091a4.244 4.244 0 0 1 5.89 6.113 4.245 4.245 0 1 1-5.89-6.113m64.99-.137a4.235 4.235 0 0 1 5.72.599 4.243 4.243 0 0 1-4.44 6.853 4.24 4.24 0 0 1-2.92-3.332 4.22 4.22 0 0 1 1.64-4.12m6.83 7.755c1.98.308 3.97.625 5.95.954 2.35 2.74 1.62 2.857 2.02 7.24-2.35.009-4.29-.094-6.64-.255-2.08-2.779-1.33-3.775-1.33-7.939m-55.6-58.599a4.233 4.233 0 0 1 5.98.108 4.23 4.23 0 0 1-.09 5.987 4.234 4.234 0 0 1-6-.09 4.235 4.235 0 0 1 .11-6.005m-89.45-109.129a4.24 4.24 0 0 1 4.27-1.061 4.21 4.21 0 0 1 2.9 3.298 4.23 4.23 0 1 1-7.17-2.237m154.27 143.145a4.22 4.22 0 0 1 7.08 1.961 4.22 4.22 0 0 1-7.12 3.957 4.22 4.22 0 0 1 .04-5.918m-48.52 16.882a4.22 4.22 0 0 1 4.13-.959 4.2 4.2 0 0 1 2.87 3.122 4.2 4.2 0 0 1-1.3 4.037 4.21 4.21 0 0 1-5.7-6.2m58.93-77.394 3.01.033 1.45 1.752c.35 3.092-.29 4.658-1.07 7.651-4.72-.798-5.11-1.078-6.62-5.266 1.1-3.19.3-2.06 3.23-4.17m-83.77 52.339a4.22 4.22 0 0 1 4.01-1.619 4.22 4.22 0 0 1 3.32 2.76 4.22 4.22 0 0 1-.86 4.232 4.21 4.21 0 0 1-6.47-5.373m81.28-.047a4.21 4.21 0 0 1 5.96-.088 4.2 4.2 0 0 1 .05 5.953 4.198 4.198 0 0 1-6.01-5.865m-48.33-134.963a4.19 4.19 0 0 1 4.19-.892 4.21 4.21 0 0 1 2.8 3.255 4.2 4.2 0 0 1-1.53 4.009 4.197 4.197 0 0 1-5.8-.552 4.2 4.2 0 0 1 .34-5.82m-41.21 65.787c.15-4.522-.58-4.168 1.68-7.199l2.16-.74c4.23 2.348 3.68 3.253 3.44 7.945zm-72.67 18.179a4.18 4.18 0 0 1 4.21-.876 4.191 4.191 0 0 1 1.15 7.297 4.19 4.19 0 0 1-5.74-.658 4.19 4.19 0 0 1 .38-5.763m121.82-41.943a4.16 4.16 0 0 1 4.23-1.084 4.18 4.18 0 0 1 2.89 3.287 4.2 4.2 0 0 1-1.63 4.059 4.175 4.175 0 0 1-5.63-.6 4.166 4.166 0 0 1 .14-5.662m-32.55 17.013a4.185 4.185 0 0 1 5.89-.064 4.19 4.19 0 0 1 .11 5.884 4.175 4.175 0 0 1-5.93.113 4.175 4.175 0 0 1-.07-5.933m-88.73 7.959a4.18 4.18 0 0 1 5.68.652 4.17 4.17 0 0 1-.29 5.709 4.17 4.17 0 0 1-4.22.953 4.16 4.16 0 0 1-2.8-3.304 4.16 4.16 0 0 1 1.63-4.01m-.33-49.9a4.163 4.163 0 0 1 5.7.577 4.163 4.163 0 0 1-.26 5.729 4.175 4.175 0 0 1-7.01-2.295 4.17 4.17 0 0 1 1.57-4.011m56.6-25.159a4.17 4.17 0 0 1 5.89-.433 4.173 4.173 0 0 1 .42 5.893 4.17 4.17 0 0 1-5.87.409 4.17 4.17 0 0 1-.44-5.869m57.44 41.866a4.17 4.17 0 0 1 4.25-.747 4.15 4.15 0 0 1 2.62 3.412 4.152 4.152 0 0 1-7.42 2.994 4.16 4.16 0 0 1 .55-5.659m-42.52 116.216.71.604c-.57 4.72.23 4.181-2.44 7.177-3.68.89-2.37 1.109-5.2-.321l-.32-2.344c2.14-4.142 1.82-3.31 7.25-5.116m-71.8 1.963a4.15 4.15 0 1 1 2.2 6.877 4.13 4.13 0 0 1-3.1-2.799 4.14 4.14 0 0 1 .9-4.078m154.64-42.85a4.15 4.15 0 0 1 5.89.219 4.145 4.145 0 0 1-.27 5.883 4.157 4.157 0 0 1-5.84-.27 4.146 4.146 0 0 1 .22-5.832m7.88-8.03a4.14 4.14 0 0 1 5.88.103 4.13 4.13 0 0 1-.15 5.882 4.14 4.14 0 0 1-5.83-.149 4.15 4.15 0 0 1 .1-5.836m16.41-17.095a4.13 4.13 0 0 1 4.1-.762 4.14 4.14 0 0 1 2.69 3.2 4.143 4.143 0 0 1-7.26 3.359 4.14 4.14 0 0 1 .47-5.797m-177.72-34.117a4.12 4.12 0 0 1 5.45 1.554 4.13 4.13 0 0 1-1.24 5.531 4.14 4.14 0 0 1-4.26.21 4.14 4.14 0 0 1-2.17-3.663 4.12 4.12 0 0 1 2.22-3.632m177.57-32.903a4.14 4.14 0 0 1 4.1-.927 4.14 4.14 0 0 1 2.79 3.144 4.16 4.16 0 0 1-1.41 3.958 4.13 4.13 0 0 1-5.48-6.175m-15.99.013a4.124 4.124 0 1 1 5.432 6.206 4.124 4.124 0 0 1-5.432-6.206m-97.39-16.952a4.127 4.127 0 0 1 6.95 2.383 4.12 4.12 0 0 1-1.71 3.951 4.12 4.12 0 0 1-5.55-.741 4.125 4.125 0 0 1 .31-5.593m73.26-9.234a4.124 4.124 0 0 1 5.7 1.068 4.124 4.124 0 0 1-.99 5.714 4.13 4.13 0 0 1-4.14.378 4.11 4.11 0 0 1-2.37-3.416 4.12 4.12 0 0 1 1.8-3.744m40.19 9.254a4.13 4.13 0 0 1 5.83.404 4.125 4.125 0 1 1-5.83-.404m-7.74 142.948a4.11 4.11 0 0 1 5.67.723 4.12 4.12 0 0 1-.52 5.7 4.13 4.13 0 0 1-4.14.731 4.12 4.12 0 0 1-2.63-3.276 4.12 4.12 0 0 1 1.62-3.878m-138.03 25.959a4.13 4.13 0 0 1 4.12-.719 4.111 4.111 0 0 1 1.04 7.122 4.104 4.104 0 0 1-5.69-.688 4.11 4.11 0 0 1 .53-5.715m137.71-59.878a4.12 4.12 0 0 1 5.8.386 4.11 4.11 0 0 1-.36 5.8 4.12 4.12 0 0 1-5.83-.359 4.13 4.13 0 0 1 .39-5.827m8.06 8.958a4.12 4.12 0 0 1 4.07-.831 4.13 4.13 0 0 1 2.72 3.134 4.1 4.1 0 0 1-1.39 3.913 4.11 4.11 0 0 1-5.76-.446 4.11 4.11 0 0 1 .36-5.77m-169.99 25.014a4.114 4.114 0 0 1 5.73.572 4.11 4.11 0 0 1-.45 5.74 4.12 4.12 0 0 1-4.09.772 4.09 4.09 0 0 1-2.67-3.195 4.11 4.11 0 0 1 1.48-3.889m162.03 17.008a4.11 4.11 0 0 1 4.1-.836 4.09 4.09 0 0 1 2.7 3.189 4.09 4.09 0 0 1-1.49 3.905 4.1 4.1 0 0 1-5.68-.559 4.1 4.1 0 0 1 .37-5.699m-145.95-51.061a4.1 4.1 0 0 1 5.72.62 4.105 4.105 0 0 1-.54 5.725 4.1 4.1 0 0 1-4.07.7 4.1 4.1 0 0 1-2.61-3.199 4.09 4.09 0 0 1 1.5-3.846m138.7-76.09a4.096 4.096 0 0 1 4.73 6.528 4.1 4.1 0 0 1-7.05-2.659 4.09 4.09 0 0 1 2.32-3.869m7.85 58.998a4.09 4.09 0 0 1 5.38 1.134 4.084 4.084 0 0 1-.61 5.465 4.092 4.092 0 0 1-6.79-2.781 4.12 4.12 0 0 1 2.02-3.818m-162.92-32.797a4.08 4.08 0 0 1 5.73.168 4.086 4.086 0 0 1-.08 5.739 4.08 4.08 0 0 1-3.99 1.024 4.1 4.1 0 0 1-2.86-2.98 4.09 4.09 0 0 1 1.2-3.951m8.01 58.951a4.1 4.1 0 0 1 4-1.047 4.097 4.097 0 0 1 1.69 6.931 4.092 4.092 0 0 1-5.69-5.884m137.41 8.885a4.09 4.09 0 0 1 5.75-.291 4.09 4.09 0 0 1 .35 5.743 4.09 4.09 0 0 1-5.8.349 4.084 4.084 0 0 1-.3-5.801m-88.89 41.998a4.08 4.08 0 0 1 5.77-.244 4.076 4.076 0 0 1 .24 5.774 4.086 4.086 0 0 1-5.77.238 4.096 4.096 0 0 1-.24-5.768m-40.32-25.994a4.08 4.08 0 0 1 6.68 2.541 4.08 4.08 0 0 1-1.59 3.837 4.08 4.08 0 0 1-5.64-.715 4.077 4.077 0 0 1 .55-5.663m137.94-24.942a4.076 4.076 0 0 1 6.83 2.056 4.08 4.08 0 0 1-1.3 3.933 4.07 4.07 0 0 1-5.68-.297 4.066 4.066 0 0 1 .15-5.692m-49.1 51.017a4.08 4.08 0 0 1 5.65-.95 4.076 4.076 0 0 1 1.03 5.639 4.08 4.08 0 0 1-3.71 1.772 4.07 4.07 0 0 1-3.37-2.364 4.08 4.08 0 0 1 .4-4.097m-71.92-8.993a4.09 4.09 0 0 1 5.36.813 4.084 4.084 0 0 1-4.4 6.497 4.1 4.1 0 0 1-2.79-3.351 4.1 4.1 0 0 1 1.83-3.959m64-33.915a4.076 4.076 0 0 1 6.85 1.957 4.1 4.1 0 0 1-1.23 3.944 4.077 4.077 0 0 1-5.69-.21 4.073 4.073 0 0 1 .07-5.691m.42-134.326a4.07 4.07 0 0 1 5.64.053 4.08 4.08 0 0 1 .18 5.639 4.08 4.08 0 0 1-3.99 1.229 4.06 4.06 0 0 1-2.97-2.914 4.05 4.05 0 0 1 1.14-4.007m72.54 143.141a4.07 4.07 0 1 1 2.06 6.816 4.07 4.07 0 0 1-2.06-6.816m-161.7-134.916c1.74-1.421 4.31-1.15 5.73.605a4.066 4.066 0 0 1-.64 5.725 4.056 4.056 0 0 1-5.69-.632 4.06 4.06 0 0 1 .6-5.698m104.91-8.047a4.05 4.05 0 0 1 5.73-.308 4.044 4.044 0 0 1 .29 5.731 4.05 4.05 0 0 1-6.02-5.423m-105.02 142.915a4.051 4.051 0 1 1 5.496 5.954 4.051 4.051 0 0 1-5.496-5.954m146.69-134.966a4.045 4.045 0 0 1 5.38 1.052 4.044 4.044 0 0 1-.62 5.441 4.04 4.04 0 0 1-4.17.68 4.02 4.02 0 0 1-2.49-3.406 4.03 4.03 0 0 1 1.9-3.767m7.45 25.05a4.03 4.03 0 0 1 4.06-.566 4.04 4.04 0 0 1 2.46 3.279 4.04 4.04 0 0 1-1.69 3.735 4.03 4.03 0 0 1-5.55-.877 4.035 4.035 0 0 1 .72-5.571m-152.45 7.751a4.024 4.024 0 0 1 2.82 7.478c-1.37.718-3.04.58-4.28-.356a4.03 4.03 0 0 1-1.52-4.023 4.02 4.02 0 0 1 2.98-3.099m161.97 33.841a4.02 4.02 0 0 1 3.97.992 4 4 0 0 1 1.05 3.953 4.023 4.023 0 0 1-7.76-.054 4.027 4.027 0 0 1 2.74-4.891m-91.39 60.379a4.04 4.04 0 0 1 3.79-1.432 4 4 0 0 1 3.11 2.586c.5 1.359.23 2.881-.71 3.985a4.015 4.015 0 0 1-5.63.492 4.02 4.02 0 0 1-.56-5.631m-55.83-126.94a4.017 4.017 0 0 1 5.35.925c1.28 1.65 1.08 4-.45 5.412a4.03 4.03 0 0 1-4.15.806 4 4 0 0 1-2.57-3.339 4.01 4.01 0 0 1 1.82-3.804m-15.92 66.94a4.01 4.01 0 0 1 5.36 1.049 4.015 4.015 0 0 1-4.79 6.065 4.01 4.01 0 0 1-.57-7.114m137.55-58.133a3.985 3.985 0 0 1 5.53.399 3.983 3.983 0 0 1-.21 5.546 3.99 3.99 0 0 1-3.96.924 4.01 4.01 0 0 1-2.72-3.031 4 4 0 0 1 1.36-3.838m-121.27 125.098c1.79-.936 4-.379 5.14 1.296a3.985 3.985 0 0 1-.7 5.256 3.98 3.98 0 0 1-6.58-2.882 3.97 3.97 0 0 1 2.14-3.67m-16.14-33.03a3.985 3.985 0 0 1 5.43.996 3.98 3.98 0 0 1-.78 5.465 3.979 3.979 0 0 1-6.42-2.79 3.98 3.98 0 0 1 1.77-3.671m23.35-108.932a3.977 3.977 0 0 1 5.45-.749 3.97 3.97 0 0 1 .98 5.411 3.96 3.96 0 0 1-3.67 1.772 3.99 3.99 0 0 1-3.3-2.392 3.97 3.97 0 0 1 .54-4.042m-32.05 168.04a3.98 3.98 0 0 1 4.06-.692 3.99 3.99 0 0 1 2.5 3.274 4 4 0 0 1-1.75 3.731 3.97 3.97 0 0 1-5.37-.893 3.97 3.97 0 0 1 .56-5.42m169.98-59.039a3.97 3.97 0 0 1 4.14-.765 3.96 3.96 0 0 1 2.5 3.393 3.98 3.98 0 0 1-1.96 3.728 3.966 3.966 0 0 1-5.19-1.079 3.973 3.973 0 0 1 .51-5.277m-168.28 7.684a3.968 3.968 0 0 1 2.92 7.329 3.969 3.969 0 0 1-5.76-4.222 3.98 3.98 0 0 1 2.84-3.107m160.12-99.66c1.49-1.603 4-1.69 5.61-.193a3.966 3.966 0 0 1 .18 5.609 3.963 3.963 0 0 1-5.6.188 3.96 3.96 0 0 1-.19-5.604m-145.95 117.892a3.961 3.961 0 1 1 5.63 5.57 3.956 3.956 0 0 1-5.52-.048 3.96 3.96 0 0 1-.11-5.522m-16.12-50.983a3.95 3.95 0 0 1 5.5-.116 3.948 3.948 0 0 1-3.54 6.741 3.93 3.93 0 0 1-2.93-2.734 3.94 3.94 0 0 1 .97-3.891m32.22-66.848a3.944 3.944 0 0 1 5.39-.073 3.955 3.955 0 0 1 .43 5.374 3.96 3.96 0 0 1-3.85 1.412 3.93 3.93 0 0 1-3.02-2.756 3.94 3.94 0 0 1 1.05-3.957m-32.85 15.364 5.18.945c2.42 2.593 1.67 2.896 2.06 7.331-2.38-.236-3.79-.475-6.12-.979-1.81-2.817-1.15-3.44-1.12-7.297m16.77-15.425a3.93 3.93 0 1 1 5.7 5.41 3.924 3.924 0 0 1-5.54.135 3.934 3.934 0 0 1-.16-5.545m-15.39 116.982a3.923 3.923 0 0 1 5.27 1.089 3.93 3.93 0 0 1-.77 5.325 3.94 3.94 0 0 1-4.03.515 3.93 3.93 0 0 1-2.33-3.322 3.95 3.95 0 0 1 1.86-3.607m153.25 26.085a3.94 3.94 0 0 1 3.8-1.286 3.924 3.924 0 0 1 1.97 6.597 3.92 3.92 0 0 1-5.44.122 3.915 3.915 0 0 1-.33-5.433m16.22-.053a3.9 3.9 0 0 1 5.44-.01 3.89 3.89 0 0 1 .15 5.435 3.89 3.89 0 0 1-3.78 1.146 3.9 3.9 0 0 1-2.84-2.754 3.91 3.91 0 0 1 1.03-3.817m-.1 16.986a3.87 3.87 0 0 1 3.84-1.427 3.87 3.87 0 0 1 2.98 2.816 3.89 3.89 0 0 1-1.2 3.92 3.89 3.89 0 0 1-5.22-.107 3.88 3.88 0 0 1-.4-5.202m-169.98-126.915a3.87 3.87 0 0 1 5.5-.186 3.874 3.874 0 0 1 .14 5.503 3.873 3.873 0 0 1-5.45.133 3.874 3.874 0 0 1-.19-5.45m7.88 109.902a3.81 3.81 0 0 1 3.65-1.22 3.824 3.824 0 0 1 2.02 6.341 3.823 3.823 0 0 1-5.36.231 3.814 3.814 0 0 1-.31-5.352m-7.65-159.951a3.81 3.81 0 0 1 5.17.3 3.805 3.805 0 0 1 .1 5.185 3.81 3.81 0 0 1-3.81 1.155 3.8 3.8 0 0 1-2.76-2.872 3.81 3.81 0 0 1 1.3-3.768m104.8-7.097 4.89-.705c2.59 1.587 2.04 2.28 3.02 5.946-3.01.265-4.57.58-7.53-.315-1.32-2.288-.89-1.614-.38-4.926m-64.31-.213a3.546 3.546 0 0 1 4.84.244 3.555 3.555 0 0 1 .09 4.851 3.56 3.56 0 0 1-3.54 1.057 3.57 3.57 0 0 1-2.57-2.652 3.55 3.55 0 0 1 1.18-3.5"></path><path fill="url(#c)" d="M1756.85 436.343c19.16-2.542 40.29-.782 59.71-.786 21.4-.005 43.86-1.342 65.14.271 5.43.412 11.53 1.355 16.56 3.534 6.99 3.032 13.43 11.134 16.11 18.138 2.76 7.199 3.04 135.615-.04 142.394-4.71 10.357-13.86 15.18-24.03 18.745-10.92 2.777-48.23.855-61.12.821-21.59-.057-44.08 1.155-65.6-.308-3.81-.259-7.39-.802-10.94-2.277-8.17-3.4-14.39-9.157-17.71-17.456-1.16-2.883-1.75-5.843-1.99-8.933-1.3-16.262-2.08-126.223 2.12-135.651 4.18-9.413 12.49-14.927 21.79-18.492"></path><path fill="rgb(96,110,245)" d="M1794.05 472.493c7.89-14.848 60.94-10.229 67.17 3.85l.34.404c2.51 2.869 5.56 5.578 8.29 8.326 24.91 25.106 21.75 67.868-4.9 90.531a62.86 62.86 0 0 1-46.36 14.334 62.12 62.12 0 0 1-42.18-22.31 62.08 62.08 0 0 1-14.05-46.087c1.3-12.518 6.25-23.068 13.31-33.243l-.76-.903c1.92-5.254 5.59-8.567 11.12-9.052 2.32-1.481 5.7-4.138 8.02-5.85"></path><path fill="url(#d)" d="m1859.69 475.696 1.53.647.34.404c2.51 2.869 5.56 5.578 8.29 8.326 24.91 25.106 21.75 67.868-4.9 90.531a62.86 62.86 0 0 1-46.36 14.334 62.12 62.12 0 0 1-42.18-22.31 62.08 62.08 0 0 1-14.05-46.087c1.3-12.518 6.25-23.068 13.31-33.243l1.88-1.721c1.01 1.323 1.62 1.892 2.25 3.42-1.4 12.125-1.24 27.533.14 39.689 3.19 28.263 21.89 40.997 44.55 53.594 11.02-5.948 41.34-24.52 39.24-39.474-1.79-1.854-2.26-1.916-4.66-3l2.15-2.607c2.02 1.827 1.36 1.262 4.31 1.956 3.54-1.25 2.46-.367 4.43-3.121-.45-3.48.13-2.173-2.36-4.884-5.13-.646-4.3 1.124-9.95 2.041l-1.01-1.71c2.34-13.62 17.53.112 23.25-6.628l-.31-3.138c-6.15-5.306-16.52 4.151-21.35-.214 1.53-8.709 5.98-3.026 11.02-8.226.38-4.316.21-3.159-1.82-7.477l.84-2.128c.68-2.987.5-11.126.51-14.57-8.84-1.21-17.38-2.575-25.77-5.705 1.52-5.899 11.86-2.823 16.68-8.699"></path><path fill="rgb(28,38,63)" d="M1847.39 538.365c11.97-9.509 4.81-25.739 20.04-31.567 2.03 4.318 2.2 3.161 1.82 7.477-5.04 5.2-9.49-.483-11.02 8.226 4.83 4.365 15.2-5.092 21.35.214l.31 3.138c-5.72 6.74-20.91-6.992-23.25 6.628l1.01 1.71c5.65-.917 4.82-2.687 9.95-2.041 2.49 2.711 1.91 1.404 2.36 4.884-1.97 2.754-.89 1.871-4.43 3.121-2.95-.694-2.29-.129-4.31-1.956l-2.15 2.607c-10.41 18.912-16.02 23.538-34.66 34.204-7-4.088-12.45-7.208-18.92-12.07 1.52-7.874 1.57-10.016 1.5-18.123l1.69.496c-.22-8.69 8.3-12.445-.53-22.193 2.12-3.903.91-2.727 4.42-4.878 3.46.494 2.16-.139 4.81 2.723l.69 2.973 1.19-1.976c2.14 1.773 2.24 2.017 4.88 2.358 3.56-.505 5.69-3.986 8.06-6.875 4.39.149 6.82-.09 11.21-.565-.1 5.584-1.31 16.702 1.96 20.478z"></path><path fill="rgb(37,165,221)" d="M1847.39 538.365c11.97-9.509 4.81-25.739 20.04-31.567 2.03 4.318 2.2 3.161 1.82 7.477-5.04 5.2-9.49-.483-11.02 8.226 4.83 4.365 15.2-5.092 21.35.214l.31 3.138c-5.72 6.74-20.91-6.992-23.25 6.628l1.01 1.71c5.65-.917 4.82-2.687 9.95-2.041 2.49 2.711 1.91 1.404 2.36 4.884-1.97 2.754-.89 1.871-4.43 3.121-2.95-.694-2.29-.129-4.31-1.956-10.82-3.155-20.57 13.618-29.07 20.334l.15-30.203c-2.55 2.908-5.71 6.731-8.36 9.426-2.29-2.641-4.02-5.2-7.14-6.545-2.13 4.104 3.73 9.535-1.65 14.553-3.06.425-3.47.339-6.47-.451-.22-8.69 8.3-12.445-.53-22.193 2.12-3.903.91-2.727 4.42-4.878 3.46.494 2.16-.139 4.81 2.723l.69 2.973 1.19-1.976c2.14 1.773 2.24 2.017 4.88 2.358 3.56-.505 5.69-3.986 8.06-6.875 4.39.149 6.82-.09 11.21-.565-.1 5.584-1.31 16.702 1.96 20.478z"></path><path fill="rgb(28,38,63)" d="M1843.41 516.88c-.1 5.584-1.31 16.702 1.96 20.478l2.02 1.007-10.77 10.08-.08-30.972c-3.98 3.677-8.97 9.77-12.64 13.996-2.29-2.283-3.96-4.886-5.83-7.531l1.19-1.976c2.14 1.773 2.24 2.017 4.88 2.358 3.56-.505 5.69-3.986 8.06-6.875 4.39.149 6.82-.09 11.21-.565"></path><path fill="url(#e)" d="M1824.74 483.207c4.97 3.158 7.8 4.495 12.99 6.843 5.18 2.343 20.62 5.12 23.55 8.291.5 2.342.47 2.464.12 4.89l-.09.596c2.72 1.591 3.79 1.168 6.96.843l-.84 2.128c-15.23 5.828-8.07 22.058-20.04 31.567l-2.02-1.007c-3.27-3.776-2.06-14.894-1.96-20.478-2.75-.777-10.41-.655-13.63-.706-.32-4.881.28-10.054-2.78-12.758l1.22-4.245c-4.69.017-24.79-.771-26.42 1.74-5.28 8.138-.02 48.466-3.09 54.993-14.36-19.566-12.46-36.324-12.08-59.649 15.03-1.493 25.32-5.43 38.11-13.048"></path><path fill="rgb(37,165,221)" d="M1828.22 499.171c6.36-.099 9.57 4.452 14.26 9.009l4.92 4.824c.21 6.257 1.72 19.748-2.03 24.354-3.27-3.776-2.06-14.894-1.96-20.478-2.75-.777-10.41-.655-13.63-.706-.32-4.881.28-10.054-2.78-12.758z"></path><path fill="rgb(49,70,111)" d="M1794.05 472.493c7.89-14.848 60.94-10.229 67.17 3.85l-1.53-.647c-4.82 5.876-15.16 2.8-16.68 8.699-6.55-2.473-12.61-6.33-18.39-10.27-15.95 10.689-25.68 13.678-44.82 15.872-.63-1.528-1.24-2.097-2.25-3.42l-1.88 1.721-.76-.903c1.92-5.254 5.59-8.567 11.12-9.052 2.32-1.481 5.7-4.138 8.02-5.85"></path><path fill="rgb(100,124,189)" d="M1794.05 472.493c7.89-14.848 60.94-10.229 67.17 3.85l-1.53-.647c-24.7-15.883-40.44-11.622-65.64-3.203m-18.38 15.805-.76-.903c1.92-5.254 5.59-8.567 11.12-9.052-2.71 2.376-6.47 5.402-8.48 8.234z"></path><path fill="rgb(49,70,111)" d="m1804.07 503.471 22.93-.055c3.06 2.704 2.46 7.877 2.78 12.758 3.22.051 10.88-.071 13.63.706-4.39.475-6.82.714-11.21.565-2.37 2.889-4.5 6.37-8.06 6.875-2.64-.341-2.74-.585-4.88-2.358l-1.19 1.976-.69-2.973c-2.65-2.862-1.35-2.229-4.81-2.723-3.51 2.151-2.3.975-4.42 4.878 8.83 9.748.31 13.503.53 22.193l-1.69-.496c.07 8.107.02 10.249-1.5 18.123l-2.15-2.242c.49-1.957.68-6.832.83-9.06-.51-15.215-.1-32.771-.1-48.167"></path><path fill="rgb(28,38,63)" d="M1804.17 551.638c2.99-8.287-.65-25.11 3.06-30.024l.92 1.506c8.83 9.748.31 13.503.53 22.193l-1.69-.496c.07 8.107.02 10.249-1.5 18.123l-2.15-2.242c.49-1.957.68-6.832.83-9.06"></path><path fill="url(#f)" d="M1516.29 435.518c11.08-.868 24.47-.184 35.58-.313 22.99.004 47.37-1.97 65.48 15.464 21.17 20.375 14.11 55.975 15.36 82.804.63 13.519.62 35.366-2.73 47.713a50.5 50.5 0 0 1-12.99 22.709c-13.94 13.866-32.05 15.706-50.49 15.486l-35.65.018c-22.42.025-48.24 1.631-65.65-15.242-17.49-16.947-15.34-41.531-15.22-63.686q.045-16.42-.18-32.84c-.36-50.794 13.4-71.969 66.49-72.113"></path><path fill="rgb(96,110,245)" d="M1507.83 473.763c5.35-11.57 50.33-15.283 59-3.149 2.47 1.355 11.06 5.801 12.33 7.734 27.54 18.449 31.83 58.67 13.55 85.265a60.7 60.7 0 0 1-39.81 25.532 63.9 63.9 0 0 1-47.98-10.493 61.45 61.45 0 0 1-25.32-40.657c-1.98-12.729-.22-22.783 3.97-34.716 7.72-17.33 12.71-17.389 23.83-29.053z"></path><path fill="url(#g)" d="M1579.16 478.348c27.54 18.449 31.83 58.67 13.55 85.265a60.7 60.7 0 0 1-39.81 25.532 63.9 63.9 0 0 1-47.98-10.493 61.45 61.45 0 0 1-25.32-40.657c-1.98-12.729-.22-22.783 3.97-34.716 2.21 2.952 5.16 3.675 7.97 1.373 1.72-5.123.32-11.964 3.79-14.473l.11 1.012c1 9.761.43 21.412.86 31.431 1.44 32.71 17.79 46.447 44.76 60.619 12.14-6.637 40.57-24.1 40.18-40.13l-1.29-1.72 3.36.114c2.23-2.251 4.19-5.042 3.32-8.149-2.88-2.014-9.61-.397-13.12.201l1.1-4.885c6.73-5.615 15.5 1.454 22.23-2.282-.17-3.111-.09-2.125-2.08-5.066-4.57-1.775-9.87 2.627-17.6 2.566-2.36-1.399-1.63-.526-2.55-3.298 3.6-4.891 11.08-2.776 12.19-8.936-2.73-4.146-1.55-2.848-6.17-5.136l-1.71-1.752c2.4.13 3.03.057 5.41-.34 2.85-4.26 1.64-9.066 1.25-14.551-8.6-.874-13.48-1.571-21.62-4.273 5-4.007 12.68 3.055 18.78 1.734 1.64-2.976-1.9-6.391-3.58-8.99"></path><path fill="url(#h)" d="M1542.33 499.353c4.16-.158 5.45-.358 8.95 1.958l.63.414c5.74 3.811 11.75 9.315 12.94 16.315 1.1 5.062.75 13.719.74 19.158 3.98-3.584 4.8-6.487 6.08-11.462 1.84-7.125 5.04-12.965 8.96-19.216 4.62 2.288 3.44.99 6.17 5.136-1.11 6.16-8.59 4.045-12.19 8.936.92 2.772.19 1.899 2.55 3.298 7.73.061 13.03-4.341 17.6-2.566 1.99 2.941 1.91 1.955 2.08 5.066-6.73 3.736-15.5-3.333-22.23 2.282l-1.1 4.885c3.51-.598 10.24-2.215 13.12-.201.87 3.107-1.09 5.898-3.32 8.149l-3.36-.114-3.99-.341c-3.03 2.745-4.92 8.742-7.45 12.305-6.66 9.386-17.76 15.985-27.48 21.651-5.59-3.396-12.26-7.71-17.88-10.834-4.17-4.611-2.26-50.641-2.16-60.725 8.08.009 15.48.093 23.53-.6l-.88-2.862z"></path><path fill="rgb(49,70,111)" d="M1542.33 499.353c4.16-.158 5.45-.358 8.95 1.958l.63.414c5.74 3.811 11.75 9.315 12.94 16.315 1.1 5.062.75 13.719.74 19.158-1.4.872-10.59 9.83-12.36 11.522q.255-15.6-.15-31.197c-4.58 4.258-8.28 9.127-12.2 13.986-5.89-5.649-6.03-11.091-10.33-13.157-3.77.688-2.81.665-6.01 3.631l-.26 3.283-1.14-.228c-.87-6.552-.67-12.942-.65-19.546 5.37.213 16.55-.923 22.83-1.164l-.8-1.481-.88-2.862z"></path><path fill="rgb(37,165,221)" d="M1542.33 499.353c4.16-.158 5.45-.358 8.95 1.958l.63.414c5.74 3.811 11.75 9.315 12.94 16.315-1.25 6.62 1.29 15.589-3.89 19.529-1.44-1.814-.96-17.541-.98-21.203l-13.89-.39c.02-4.389.19-7.367-.77-11.648l-.8-1.481-.88-2.862z"></path><path fill="rgb(37,165,221)" d="M1580.63 506.52c4.62 2.288 3.44.99 6.17 5.136-1.11 6.16-8.59 4.045-12.19 8.936.92 2.772.19 1.899 2.55 3.298 7.73.061 13.03-4.341 17.6-2.566 1.99 2.941 1.91 1.955 2.08 5.066-6.73 3.736-15.5-3.333-22.23 2.282l-1.1 4.885c3.51-.598 10.24-2.215 13.12-.201.87 3.107-1.09 5.898-3.32 8.149-3.04-1.306-5.06-3.401-8.09-3.613-8.32-.582-19.41 14.071-26.11 20.738-.57-8.709-.22-21.278-.24-30.27-2.57 3.162-5.34 6.345-7.99 9.462-2.38-2.666-4.59-5.382-7.44-7.53-2.11 2.651 1.48 9.659-.59 15.765-.82.494-1.4 1.105-2.09.867-9.8-3.348 2.59-12.81-5.57-24.068l-.65-.873c3.2-2.966 2.24-2.943 6.01-3.631 4.3 2.066 4.44 7.508 10.33 13.157 3.92-4.859 7.62-9.728 12.2-13.986q.405 15.597.15 31.197c1.77-1.692 10.96-10.65 12.36-11.522 3.98-3.584 4.8-6.487 6.08-11.462 1.84-7.125 5.04-12.965 8.96-19.216"></path><path fill="url(#i)" d="M1541.46 483.223c10.76 7.312 22.55 9.998 34.95 13.093 1.73.432 2.13 6.58 2.51 8.452l1.71 1.752c-3.92 6.251-7.12 12.091-8.96 19.216-1.28 4.975-2.1 7.878-6.08 11.462.01-5.439.36-14.096-.74-19.158-1.19-7-7.2-12.504-12.94-16.315l-.63-.414c-3.5-2.316-4.79-2.116-8.95-1.958-4.42-.114-22.63-1.158-23.82 1.139-5.64 10.931.11 44.968-3 55.713-14.4-19.014-12.43-36.952-12.2-59.757 16.51-2.334 23.55-5.077 38.15-13.225"></path><path fill="rgb(49,70,111)" d="M1507.83 473.763c5.35-11.57 50.33-15.283 59-3.149 2.47 1.355 11.06 5.801 12.33 7.734 1.68 2.599 5.22 6.014 3.58 8.99-6.1 1.321-13.78-5.741-18.78-1.734-8.78-2.072-15.29-6.508-22.82-11.231-17.01 10.879-25.91 13.152-45.81 15.806-3.47 2.509-2.07 9.35-3.79 14.473-2.81 2.302-5.76 1.579-7.97-1.373 7.72-17.33 12.71-17.389 23.83-29.053z"></path><path fill="rgb(100,124,189)" d="M1507.83 473.763c5.35-11.57 50.33-15.283 59-3.149-17.77-6.976-28.94-7.449-47.44-1.312-2.18.724-10.24 4.24-11.56 4.461"></path><path fill="rgb(96,110,245)" d="M543.066 256.939c9.766 3.87 24.643 14.84 34.727 20.479 26.004 14.544 50.773 21.667 79.519 27.902 7.598 2.38 35.626 1.109 40.068 7.139 5.859 7.955 3.988 47.433 3.957 57.137-11.602-4.453-15.479-4.414-27.161-.145l.17-35.401c-54.314-5.776-84.54-17.862-130.536-45.186-41.299 25.442-81.474 41.703-130.571 45.426-.168 58.112-4.683 127.592 20.242 181.349 6.315 13.62 17.17 27.178 26.207 39.247 1.232-14.804.535-43.57.564-59.114l-.138-127.823c.066-9.105 1.554-19.328 12.667-21.181 10.624-1.772 23.063-1.038 33.932-.991l54.452.299c-2.857.593-4.77.452-6.561 2.204 7.679 1.078 23.883 2.594 28.578 8.705.51 4.023-9.587 13.368-11.157 12.935l-1.982-2.124c-2.581.65-1.978.129-3.672 1.801l.054-.824c.394-6.593-.588-12.019-8.5-11.445-2.762.2-4.049-.252-6.547 1.325 2.857 1.82 5.434 1.769 8.851 2.151-27.03.956-57.593.355-84.884.388q.732 103.63.218 207.261c17.448 15.748 48.764 34.032 69.357 45.931 54.558-34.783 95.443-57.46 117.77-119.331.76-2.108 2.245-2.633 4.211-3.076 3.423.937 7.276 5.079 10.052 7.642l12.07 1.563-.159.642c-15.99 61.722-78.292 106.874-131.259 135.115-5.422 2.891-11.025 6.586-17.358 4.556-10.105-3.239-20.184-10.124-29.334-15.43-38.632-22.402-76.039-51.912-98.005-91.701a184.7 184.7 0 0 1-19.436-54.077c-2.577-13.124-3.944-26.484-4.815-39.822-1.156-17.695-3.672-113.236-.551-123.42 3.026-9.871 17.465-8.766 25.915-9.659a249.4 249.4 0 0 0 99.948-32.147c9.959-5.71 19.585-13.373 29.097-18.3"></path><path fill="url(#j)" d="M1255.91 435.541c50.55-1.77 93.05 37.604 95.13 88.143 2.09 50.539-37.02 93.28-87.55 95.681-50.97 2.421-94.17-37.11-96.28-88.096-2.1-50.987 37.7-93.943 88.7-95.728"></path><path fill="rgb(96,110,245)" d="m1252.93 465.513-2.9-.878c5.72-3.916 30.58-.067 34.52 4.943l.25.825c1.49.801 3.39 2.037 4.94 2.246 6.89.088 18.49 8.188 18.02 15.386 1.86 2.565 3.98 5.305 5.56 8.024 8.24 17.895 11.64 33.492 4.49 52.992a62.44 62.44 0 0 1-32.86 35.68 64.18 64.18 0 0 1-49.03 1.196c-27.47-10.695-43.93-39.916-38.77-67.843.25-1.331 1.33-7.729 1.25-8.778-.87-10.343 8.05-21.946 15.75-28.194l1.4.603c14.03-10.631 20.39-13.087 37.38-16.202"></path><path fill="url(#k)" d="M1303.1 505.298c3.8-6.068 7.13-2.846 10.22-9.239 8.24 17.895 11.64 33.492 4.49 52.992a62.44 62.44 0 0 1-32.86 35.68 64.18 64.18 0 0 1-49.03 1.196c-27.47-10.695-43.93-39.916-38.77-67.843.25-1.331 1.33-7.729 1.25-8.778l3.69-8.522c2.37 4.199 3.59 4.96 8.37 5.506 2.75 3.087 2.26 4.614 3.23 9.304 1.23 38.916 12.34 49.781 44.92 67.595 13.57-6.755 38.17-22.013 39.55-38.457-1.62-3.181-1.57-2.392-5.41-4.313l2.54-2.444c1.11 1.149 1.8 1.347 3.22 2.124 3.79-.165 2.83.449 5.06-1.626.53-4.016.89-2.762-.56-5.794-3.07-1.149-7.23.511-10.62 1.441l-1.26-.792c.54-2.984.56-3.757 2.22-6.26 7.78-4.906 14.29 4.884 20.36-.293.57-3.544.77-2.103-.88-5.427-6.46-2.896-13.31 5.212-20.02 1.61l-.22-2.471c3.99-5.987 6.87-1.945 11.41-6.832-.3-4.347-.24-3.113-2.81-7.071z"></path><path fill="rgb(28,38,63)" d="M1262.75 503.485c1.5 2.501 1.06 9.461 1.07 12.795l14.03.216c.05 5.169.4 15.874-.37 20.474l2.74.789.84 1.394 6.85-6.166c1.95-9.856 3-21.415 13.28-26.403 2.57 3.958 2.51 2.724 2.81 7.071-4.54 4.887-7.42.845-11.41 6.832l.22 2.471c6.71 3.602 13.56-4.506 20.02-1.61 1.65 3.324 1.45 1.883.88 5.427-6.07 5.177-12.58-4.613-20.36.293-1.66 2.503-1.68 3.276-2.22 6.26l1.26.792c3.39-.93 7.55-2.59 10.62-1.441 1.45 3.032 1.09 1.778.56 5.794-2.23 2.075-1.27 1.461-5.06 1.626-1.42-.777-2.11-.975-3.22-2.124l-2.54 2.444c-6.75 18.335-18.05 25.393-33.96 34.62-7.08-4.299-13.82-8.394-20.68-13.032.5-2.172.65-6.402.81-8.796-.86-15.05-.19-34.38-.05-49.754q11.94-.065 23.88.028"></path><path fill="rgb(49,70,111)" d="M1262.75 503.485c1.5 2.501 1.06 9.461 1.07 12.795l14.03.216c.05 5.169.4 15.874-.37 20.474l2.74.789.84 1.394-10.18 9.479c-.07-4.036.07-8.373.14-12.437.07-4.298.67-9.946-1.28-13.575l-1.78-.854c-3.82 1.394-7.02 6.414-9.76 9.822-5.25-5.756-4.59-5.432-7.52-12.335-1.03-.428-1.94-.803-2.72-1.124-3.77.927-2.56.101-4.75 2.913-.53 4.975 5.38 10.987 1.76 15.675l-.7-3.902-.97.26c-2.88 7.488-3.79 12.134-4.38 20.136-.86-15.05-.19-34.38-.05-49.754q11.94-.065 23.88.028"></path><path fill="rgb(28,38,63)" d="M1271.02 536.195c.71-5.013.97-10.045 3.46-14.385 3.21 2.734 1.88 11.377 3 15.16l2.74.789.84 1.394-10.18 9.479c-.07-4.036.07-8.373.14-12.437"></path><path fill="rgb(37,165,221)" d="M1301.19 506.584c2.57 3.958 2.51 2.724 2.81 7.071-4.54 4.887-7.42.845-11.41 6.832l.22 2.471c6.71 3.602 13.56-4.506 20.02-1.61 1.65 3.324 1.45 1.883.88 5.427-6.07 5.177-12.58-4.613-20.36.293-1.66 2.503-1.68 3.276-2.22 6.26l1.26.792c3.39-.93 7.55-2.59 10.62-1.441 1.45 3.032 1.09 1.778.56 5.794-2.23 2.075-1.27 1.461-5.06 1.626-1.42-.777-2.11-.975-3.22-2.124-.92-.291-2.75-.539-3.78-.716-6.34 1.489-18.44 15.355-24.91 20.921-.21-9.676-.2-19.566-.29-29.263l-8.16 8.813c-2.63-3.074-3.69-4.348-6.81-6.906l-1.12.503c.64 5.358 2.98 11.911-2.07 14.662-3.49-.449-2.22.149-4.8-2.269-.67-3.13.18-4.08 1.62-7.003 3.62-4.688-2.29-10.7-1.76-15.675 2.19-2.812.98-1.986 4.75-2.913.78.321 1.69.696 2.72 1.124 2.93 6.903 2.27 6.579 7.52 12.335 2.74-3.408 5.94-8.428 9.76-9.822l1.78.854c1.95 3.629 1.35 9.277 1.28 13.575-.07 4.064-.21 8.401-.14 12.437l10.18-9.479 6.85-6.166c1.95-9.856 3-21.415 13.28-26.403"></path><path fill="url(#l)" d="M1258.82 483.114c13.12 8.212 22.72 8.826 36.44 14.581 1.29.541.81 4.264.78 5.674 2.59 2.238 3.05 1.576 7.06 1.929l-1.91 1.286c-10.28 4.988-11.33 16.547-13.28 26.403l-6.85 6.166-.84-1.394-2.74-.789c.77-4.6.42-15.305.37-20.474l-14.03-.216c-.01-3.334.43-10.294-1.07-12.795l-2-4.106c-5.73-.099-19.85-1.018-24.49 1.267-5.06 7.397-.17 48.606-2.81 55.185-2.11-2.009-3.37-3.338-5.26-5.562-.32-1.47-3.64-8.838-4.59-12.61-3.59-14.341-2.85-26.672-2.64-41.265 15.3-2.11 24.72-5.48 37.86-13.28"></path><path fill="rgb(37,165,221)" d="M1260.75 499.379c7.55-.15 10.37 3.395 15.87 8.682 1.74 1.669 3.46 3.351 5.17 5.045 0 5.796.62 20.211-1.57 24.653l-2.74-.789c.77-4.6.42-15.305.37-20.474l-14.03-.216c-.01-3.334.43-10.294-1.07-12.795z"></path><path fill="rgb(49,70,111)" d="m1252.93 465.513-2.9-.878c5.72-3.916 30.58-.067 34.52 4.943l.25.825c1.49.801 3.39 2.037 4.94 2.246 6.89.088 18.49 8.188 18.02 15.386 1.86 2.565 3.98 5.305 5.56 8.024-3.09 6.393-6.42 3.171-10.22 9.239l.08-15.38c-18.09-2.522-29.19-4.802-44.36-15.792-16.12 10.749-26.07 13.736-45.31 15.908-.11 8.75-.13 16.82.18 25.56-.97-4.69-.48-6.217-3.23-9.304-4.78-.546-6-1.307-8.37-5.506l-3.69 8.522c-.87-10.343 8.05-21.946 15.75-28.194l1.4.603c14.03-10.631 20.39-13.087 37.38-16.202"></path><path fill="rgb(100,124,189)" d="M1198.4 509.306c-.87-10.343 8.05-21.946 15.75-28.194l1.4.603c-4.97 5.923-10.3 11.95-13.46 19.069zm54.53-43.793-2.9-.878c5.72-3.916 30.58-.067 34.52 4.943l.25.825c-12.01-4.899-19.21-5.748-31.87-4.89m36.81 7.136c6.89.088 18.49 8.188 18.02 15.386-5.41-6.413-11.33-10.438-18.02-15.386"></path><path fill="rgb(37,165,221)" d="M500.896 443.79a47 47 0 0 1-3.191-2.764c-13.197-12.357-2.972-28.694 13.132-28.959 11.366-.187 9.948 17.031 12.805 22.651 3.903 7.681 13.939 19.141 19.502 25.715 10.077-10.698 22.113-28.276 33.391-37.049 1.687-1.312 4.809-.571 6.846.152 5.805 6.128 3.885 29.372 3.866 38.36q-.288 30.163.281 60.322c14.318-12.019 27.817-25.581 41.245-38.641 3.336.071 4.615-.085 7.777-1.128l1.99.606c1.721 4.913-.204 5.993.243 9.385-8.941 9.254-48.206 52.329-57.652 53.739-2.758.412-3.784-.353-5.949-1.79-4.915-7.516-2.769-31.63-2.68-41.353q.076-27.605-.147-55.209c-29.838 41.487-28.476 37.672-57.562-.342-.681 10.696-.389 23.169-.381 34.012a83 83 0 0 1 2.137 1.74c21.877 18.483-7.754 37.897-22.789 22.523-7.474-7.642.702-18.839 6.997-23.986.478-12.79.283-25.195.139-37.984"></path><path fill="rgb(32,191,159)" d="M672.13 396.678c-.339-5.695 1.157-14.674 5.723-17.88 25.529-17.928 43.046 37.829.711 26.851-11.433 9.061-14.414 11.303-16.11 26.165l-.217 1.981c14.807-5.582 31.096-4.412 46.932-3.777 5.489-8.753 13.482-15.39 23.656-8.434a18.26 18.26 0 0 1 7.513 11.693c2.684 15.018-17.79 27.308-30.983 7.733-18.919-.068-35.18-3.357-49.455 8.837-.974 9.342-1.915 11.117-4.952 20.122 5.763-.077 11.635-.249 17.381.057 3.37-4.078 11.257-11.03 16.349-10.596 27.292 2.326 12.121 56.944-16.992 21.865-15.532.013-21.396.259-32.903 11.145-.447-3.392 1.478-4.472-.243-9.385l-1.99-.606c-3.162 1.043-4.441 1.199-7.777 1.128 4.758-4.709 8.231-7.944 12.326-13.296 14.818-19.362 2.969-41.078 16.003-59.123 3.974-5.501 9.851-10.058 15.028-14.48m12.153-11.089a7.121 7.121 0 1 0 7.433 12.15 7.121 7.121 0 0 0-7.433-12.15m6.178 97.071a6.887 6.887 0 1 0-4.492-13.022 6.887 6.887 0 0 0 4.492 13.022"></path><path fill="rgb(37,165,221)" d="M561.165 346.076c8.348-.184 14.661.305 20.768 6.971 14.651 15.99 44.548 33.59 44.22 57.252-.28 20.235-.329 40.636-.333 60.89-5.395 6.171-8.652 9.135-14.859 14.54.476-26.675 1.014-51.919 1.07-78.714-8.719.024-20.855-.489-29.183.183-33.682 2.72-13.424-35.224-21.129-45.898l-1.49-.496c-3.417-.382-5.994-.331-8.851-2.151 2.498-1.577 3.785-1.125 6.547-1.325 7.912-.574 8.894 4.852 8.5 11.445l-.054.824c1.694-1.672 1.091-1.151 3.672-1.801l1.982 2.124c1.57.433 11.667-8.912 11.157-12.935-4.695-6.111-20.899-7.627-28.578-8.705 1.791-1.752 3.704-1.611 6.561-2.204m41.445 46.858c-4.709-4.769-21.02-21.775-25.773-23.626-.295 7.654-1.944 16.348 2.524 22.085 5.644 3.742 16.166 1.965 23.249 1.541"></path><path fill="rgb(28,38,63)" d="m1577.2 368.524-.31-1.841 1.67-.083 4.36 6.653c3.24-.059 5.54-.455 8.7-.941 4.91 1.784 8.32 4.27 6.75 10.262-.85 1.005-1.43 2.052-2.47 2.402-10.72 15.223-6.01 1.469-19.57 2.475-3.39.251-7.96-.624-11.24-1.53l-1.17-.061c-13.4 2.377-28.26-.411-41.8 1.446-2.63.361-5.7 5.764-10.75 4.638-2.73.027-5.49-2.885-7.7-3.526-6.35-1.83-14.72-1.402-21.45-2.531.16-5.726.76-8.225-2.31-12.713 6.7 1.421 7.71-1.51 13.06-.88l3.04.437c1.29-2.262 1.3-2.601 1.9-5.174 3.49-.837 4.78 2.188 6.54 4.816 2.76 1.261 4.13.714 7.16.225 2.04-.312 23.47-.154 24.23.197l1.27.196 5.73.549 2.25.452c5.4-1.931 20.22-2.198 24.58-.229 5.78-.761 5.26-.456 7.53-5.239"></path><path fill="rgb(181,191,211)" d="M1591.62 372.312c4.91 1.784 8.32 4.27 6.75 10.262-.85 1.005-1.43 2.052-2.47 2.402-5.25.944-3.4.283-7.46 4.596l-.99-.9c-1.27-4.245-.43-8.858.38-13.211.39-2.078 1.66-2.116 3.79-3.149"></path><path fill="rgb(28,38,63)" d="M1590.51 374.223c2.08.629 2.4.97 4.21 2.237 1.49 3.755.88 3.348.3 7.877-1.94-.142-2.47-.455-4.23-1.155-1.73-3.902-.92-4.017-.28-8.959"></path><path fill="rgb(181,191,211)" d="M1511.61 372.598c4.56 1.176 7.16.917 7.99 6.796.66 4.685-.84 8.511-4.66 11.158-2.96-.154-2.2.332-3.94-1.322 1.28-.53 2.53-.904 3.87-1.23l.42-1.501-.62.054c-1.56-1.538-2.85-2.03-4.86-2.884-2.62-4.39-.7-6.997 1.8-11.071m65.59-4.074c1.55 3.471.87 12.615.85 16.977-3.5.267-5.61.757-8.58-1.215-2.57-4.155-1.85-6.24.2-10.523 5.78-.761 5.26-.456 7.53-5.239m-41.36 4.271 1.27.196c2.59 2.567 4.28 6.636 3.76 10.25-3.9 3.468-8.4 1.715-11.82-1.55-1.26-3.567-1.37-2.294-.27-5.156 2.94-2.515 3.33-2.73 7.06-3.74"></path><path fill="rgb(28,38,63)" d="M1532.84 374.161c2.67.786 2.91 1.052 4.7 3.207.75 3.237.19 4.133-.99 7.132-2.58-.523-2.93-.591-4.65-2.555-1.01-3.01-.06-4.807.94-7.784"></path><path fill="rgb(181,191,211)" d="M1545.09 373.992c-.11 3.42-.54 7.179 1.75 9.808 2.02-1.301 3.83-6.332 5.05-8.944l.47.376c.24 6.43 1.84 8.854-3.96 11.301-6.94-.804-5.71-7.43-5.56-12.993zm18.83 11.868c-1.68-5.287 0-7.098-2.25-10.532l-2.08-.131c-4.03 4.434.88 7.406-3.22 10.419-1.07-3.258-1.37-8.607.17-11.688 2.88-.994 3.51-1.384 6.31-.36 3.27 3.199 2.5 8.106 2.24 12.353zm-70.95-13.566c1.3 2.627 1.94 2.684 1.44 4.858l-3.89-1.92c-2.62.733-1.7.262-3.52 3.25 0 3.32-.45 2.136 1.54 4.525 3.68.945 2.41.795 6.41-.847-.37 3.152-2.62 3.398-5.01 3.708-8.28-3.107-6.5-11.257 3.03-13.574m29.07 1.179c2.29.188 2.57.208 4.72.956-2.61 2.861-2.96 3.666-3.59 7.487l.78 2.014-.83.623c-1.63-3.923-1.22-6.834-1.08-11.08"></path><path fill="rgb(28,38,63)" d="M1285.09 373.162c1.32-3.147 1.96-5.886 4.74-7.533 7.24 1.303 3.11 8.444 15.2 6.938l4.51 1.224c1.24 4.941 2.38 7.536-1.28 11.771-1.64 1.163-4.72 4.696-6.38 6.368l-1.95-.079c-.93-1.913-1.17-2.379-2.43-4.078-3.95-.803-24.1-1.761-27.85-1.346-3.48 1.165-8.08.729-11.62-.122l-1.1-.371c-1.88-4.241-1.5-7.665-1.45-12.279l2.48.761c8.03-1.332 7.83-1.538 16.21-1.283l2.39.056 7.24.023z"></path><path fill="rgb(28,38,63)" d="M1257.96 374.416c8.03-1.332 7.83-1.538 16.21-1.283-1.41.321-3.92.592-4.84 1.559-2.33 2.439-2.04 9.306.32 11.735-3.48 1.165-8.08.729-11.62-.122l-1.1-.371c-1.88-4.241-1.5-7.665-1.45-12.279z"></path><path fill="rgb(181,191,211)" d="M1257.96 374.416c-.2 3.616-.82 6.288 1.1 9.167l2 .493c2.7-3.772 1.56-9.024 3.48-9.954 2.99 7.396 2.08 11.495-6.51 12.183l-1.1-.371c-1.88-4.241-1.5-7.665-1.45-12.279zm47.07-1.849 4.51 1.224c1.24 4.941 2.38 7.536-1.28 11.771l-4.04.468-2.69 3.969c-2.71-3.206-2.14-11.725-.6-15.457.55-1.323 2.68-1.532 4.1-1.975m-19.94.595 2.69.251 2.46-3.95c1.19 1.796.8 13.307.81 16.305-9.4.176-15.42-4.917-7.25-12.556zm-10.92-.029 2.39.056c1.82 3.291 2.18 8.484.86 11.973l-1.25-.759c-.5-5.248.66-6.115-1.9-9.219l-2.05.09c-3.38 5.052-.38 5.754-2.57 11.153-2.36-2.429-2.65-9.296-.32-11.735.92-.967 3.43-1.238 4.84-1.559"></path><path fill="rgb(28,38,63)" d="M1207.16 373.173c5.5-1.638 12.02.722 17.13-.119l4.53-.051 9.88.087 1.47.213 5.74-.682 3.76.462 5.81.572c-.05 4.614-.43 8.038 1.45 12.279l-7.07.588c-3.13.605-9.56.213-13.01.121-13.85 10.075-18.5 2.827-32.91-1.684-.35-10.994 1.99-7.274 3.22-11.786"></path><path fill="rgb(181,191,211)" d="m1249.67 373.083 5.81.572c-.05 4.614-.43 8.038 1.45 12.279l-7.07.588c-5.46-.659-7.01-1.678-8.1-6.943.81-3.879 1.34-4.274 4.15-6.958z"></path><path fill="rgb(28,38,63)" d="m1249.67 373.083 5.81.572c-.05 4.614-.43 8.038 1.45 12.279l-7.07.588c4.17-5.592 4.58-8.264-.19-13.439"></path><path fill="rgb(181,191,211)" d="m1224.29 373.054 4.53-.051 1.97 1.125c1.63 4.697 1.89 12.483-2.24 16.054-3.31.782-1.92.796-5.41-.381l-.66-1.441c2.85.198 3.76.538 6.15-.743l-.04-1.865c-2.28.295-2.53.134-4.8-.466-4.74-4.199-3.21-8.136.5-12.232m14.41.036 1.47.213.21 1.057c-6.68 4.253-1.52 6.926-4.78 11.243-1.4-4.212-1.67-7.419.21-11.54z"></path><path fill="rgb(28,38,63)" d="m1309.54 373.791 8.61-1.313 4.5 1.719c1.39-.221 4.31-1.108 5.8-1.509 2.47.353 5.65.087 6.95 2.274 3.51 5.905 1.51 12.416-3.34 16.762-.9.036-1.72.059-2.62.055l-.97-.011c-5.04-.015-5.35-4.495-14.34-6.433l-1.02-.105-4.85.332c3.66-4.235 2.52-6.83 1.28-11.771"></path><path fill="rgb(181,191,211)" d="M1328.45 372.688c2.47.353 5.65.087 6.95 2.274 3.51 5.905 1.51 12.416-3.34 16.762-2.75-1.079-4-1.006-5.41-3.126 2.63-.057 4.46.181 6.73-1.074-1.83-4.495-6.2-.747-8.42-7.515.72-3.739 1.33-4.375 3.49-7.321m-18.91 1.103 8.61-1.313 4.5 1.719c.39 4.943.77 6.742-.91 11.322-.58-2.926-1.19-8.484-3.15-10.287-4.8 3.347-2.45 6.432-4.46 10.103l-1.02-.105-4.85.332c3.66-4.235 2.52-6.83 1.28-11.771"></path><path fill="rgb(28,38,63)" d="m1309.54 373.791 8.61-1.313c-4.23 1.427-3.17.418-5.02 3.442-.15 3.342-.11 5.985-.02 9.31l-4.85.332c3.66-4.235 2.52-6.83 1.28-11.771"></path><path fill="rgb(181,191,211)" d="M1191.28 385.289c-3.32.624-4.51.839-8.02.84-4.88-3.538-5.53-14.769 2.16-17.153 3.93.466 5.4 2.055 8.51 4.526q.51.033 1.02.152c3.71-.166 7.41-.394 11.12-.683l1.09.202c-1.23 4.512-3.57.792-3.22 11.786l-2.12.238c-3.2 1.31-5.26 2.052-8.69.511a6.1 6.1 0 0 1-1.85-.419"></path><path fill="rgb(28,38,63)" d="M1191.28 385.289c-3.32.624-4.51.839-8.02.84-4.88-3.538-5.53-14.769 2.16-17.153 3.93.466 5.4 2.055 8.51 4.526-3-.191-5.7 1.828-6.36 4.763a6.11 6.11 0 0 0 3.71 7.024m3.67-11.635c3.71-.166 7.41-.394 11.12-.683l1.09.202c-1.23 4.512-3.57.792-3.22 11.786l-2.12.238c-3.2 1.31-5.26 2.052-8.69.511a6.125 6.125 0 0 0 6.46-5.193 6.124 6.124 0 0 0-4.64-6.861"></path><path fill="rgb(181,191,211)" d="m1206.07 372.971 1.09.202c-1.23 4.512-3.57.792-3.22 11.786l-2.12.238c-.28-6.514-2.07-9.842 4.25-12.226"></path><path fill="rgb(28,38,63)" d="M1192.14 375.861c2-.783 4.25.177 5.06 2.157a3.913 3.913 0 0 1-2.07 5.095 3.924 3.924 0 0 1-5.44-4.142 3.93 3.93 0 0 1 2.45-3.11"></path><path fill="rgb(28,38,63)" fill-opacity=".086" d="M1953.38 388.019c-5.45-8.099-12.64-2.002-22.48-8.867-.49-.974-1.41-2.069-.92-3.128 5.9-12.901 19.76 3.831 23.47-12.208 4.88 10.233 6.47 14.355-.07 24.203"></path><path fill="rgb(28,38,63)" fill-opacity=".047" d="M353.139 702.864c7.371-.518 2.562-10.797 4.572-16.988l2.216-.902c.921 6.309 1.186 70.071-.177 75.323l-1.648-.561c-3.502-5.574.729-33.072-1.929-42.214l-2.772.096c.13-5.288.309-9.449-.262-14.754"></path><path fill="rgb(181,191,211)" d="M1467.97 386.43c-2.79-.139-5 .157-7.02-1.544-2.08-4.292-3.06-12.339.3-15.929 2.72 3.855 1.44 3.2 5.41 4.531 2.09-.192 6.78-.496 8.65-.834l4.6.52c3.07 4.488 2.47 6.987 2.31 12.713l-8.39.455z"></path><path fill="rgb(181,191,211)" d="M1467.97 386.43c-2.79-.139-5 .157-7.02-1.544-2.08-4.292-3.06-12.339.3-15.929 2.72 3.855 1.44 3.2 5.41 4.531 5.68 3.999 4.49 7.435 1.31 12.942"></path><path fill="rgb(28,38,63)" d="M1466.66 373.488c2.09-.192 6.78-.496 8.65-.834l-1.72 2.602.31 1.071 5.35-1.195.36 1.251c-3.63 4.862-4.49.344-6.72 5.003.28 1.73.49 3.255.94 4.956l-5.86.088c3.18-5.507 4.37-8.943-1.31-12.942"></path><path fill="rgb(181,191,211)" fill-opacity=".957" d="m1780.83 395.411.74.336c2.89 5.371.76 2.37 1.21 9.007 2.93 3.242 7.56 4.457 11.33 1.779l-.41-2.405c-4.14-3.65-3.5.385-7.87-2.54l.23-1.771c3.11-1.999 5.25-1.525 8.22.006 2.19 3.76 1.55 2.652 1.08 7.666l.09.583c-1.22 2.427-2.43 2.732-4.9 3.979l-.91.456-.73 3.424-1.41.89c-3.41-1.83-.04-3.314-2.91-6.952l-1.03.312c-7.69 2.293-16.85 1.49-9.68-9.595.7-1.082 4.72-2.708 6.95-5.175"></path><path fill="rgb(28,38,63)" fill-opacity=".016" d="m1383.36 704.837 1.59 1.32c7.18 4.837 6.26-.641 12.59 1.451l.66 1.885c-3.15 2.915-10.3 1.105-13.27 7.527-.06 3.547.27 4.17 1.57 7.359-3.6-.115-6.92-.027-10.51.066.19-7.26-2.04-11.069 2.62-16.476 2.35-.832 3.05-1.301 4.75-3.132"></path><path fill="rgb(181,191,211)" d="M1615.62 372.688c1.96.282 5.44.292 6.42 1.932 3.38 5.625 3.07 11.894-2.37 15.802-3.25 1.003-4.12.416-7.18-.826l1.05-1.996c1.4-.123 2.75-.251 4.16-.266l.88-.006a46 46 0 0 1-2.5-1.463c-3.23-2.039-3.78-3.421-4.55-6.623.53-3.329 1.77-4.201 4.09-6.554"></path><path fill="rgb(18,25,43)" fill-opacity=".055" d="m1463.71 709.284 3.11.724c4.43 8.094 6.9 2.855 11.97 7.578l.08 1.901c-3.85 2.52-5.38 1.272-8.95-1.088-2.49.548-2.55.592-4.48 2.33l-2.47.232c-1.43-2.145-.48-1.463-2.93-2.147-5.1 2.479-5.51 3.154-10.42.197l-.3-1.36c7.89-4.527 12.38.956 14.39-8.367"></path><path fill="rgb(28,38,63)" fill-opacity=".553" d="M1395.99 701.546c4.72-1.562 6.78 1.517 10.09 4.339 3.49-2.615-1.23-5.51 1.64-10.75 3.09-2.099 2.14-1.493 6.32-1.581-1.52.512-4.08.85-4.43 2.646-1.19 6.049-2.44 22.414.48 27.694l3.07.244c-5.97 2.13-4.95-1.144-9.36.854.47-11.422 3.43-18.438-7.81-23.446"></path><path fill="rgb(181,191,211)" d="M1688.22 365.999c5.13-.027 14.62.655 12.38 8.103-2.5 2.529-4.35 2.461-7.82 2.959-2.43 1.227-.06 2.907-3.59 5.994-1.76-2.713-1.02-13.119-.97-17.056"></path><path fill="rgb(181,191,211)" fill-opacity=".89" d="M1743.28 392.216c5.29 4.474 10.91 1.152 13.79 4.087-.57 4.687-2.51 10.124-5.66 13.684l-1.66-.177c-.76-2.946 5.37-6.213 2.84-12.457l-3.84-1.506c-2.73.123-3.02.264-5.26 1.839-4.14 6.644 1.43 10.618 2.02 17.85l-1.09.977c-5.31-3.296-5.21-8.934-5.61-14.473 1.98-3.119 3.12-6.392 4.47-9.824"></path><path fill="rgb(28,38,63)" fill-opacity=".412" d="M1436.95 692.911c4.14 2.278 2.88.932 4.91 4.953-.06 2.67.09 3.485-.89 5.903l1.56 1.687.84-.564c1.31-.863 2.49-1.439 3.89-2.131-4.96 8.347-5.68 11.111-1.54 19.919-3.12.911-4.37 1.192-7.26 2.88.13-.941.22-1.885.3-2.831.4-5.986 1.7-25.722-1.81-29.816"></path><path fill="rgb(28,38,63)" fill-opacity=".188" d="M1363.08 703.493c7.43 2.222 2.94-3.49 11.08-.885l-2.61.944c-1.27 4.638-.87 17.264-.32 22.482-1.61-.774-1.79-1.674-2.59-3.32l-.31-.645-2.03-.14-.31-2.878c2.18-.388 1.25.059 2.91-1.368l-.95-1.055c-5.35-.342-10.72-.546-16.09-.614 5.38-1.771 12.29.929 14.93-4.006-.48-3.726-1.74-5.32-3.71-8.515"></path><path fill="rgb(18,25,43)" fill-opacity=".173" d="m1180.21 703.506 4.19 1.281c1.81 7.997.35 14.869 1.55 20.791-3.09-.568-3.96-.166-6.93.692 1.38-4.279 1.13-17.551 1.19-22.764"></path><path fill="rgb(181,191,211)" fill-opacity=".984" d="M1740.3 370.771c3.46-.173 4.26-.226 7.78.463 2.27 2.388 1.79 1.258 2.13 4.219-1.53 2.499-3.9 2.874-6.82 3.906 1.39 1.59 2.51 1.367 4.95 1.896l1.4.419c-4.29 3.176-7.79 2.511-10.57-1.74-.67-4.392-.41-5.001 1.13-9.163"></path><path fill="rgb(181,191,211)" fill-opacity=".949" d="M1837.79 398.638c4.17-.191 9.82.999 9.44 6.18-3.41 2.694-4.12.929-7.66 2.3l.96.795c1.6.458 2.2.844 3.68 1.57l-.83 1.507-2.93.415c-3.39-1.575-2.34-.604-4.24-3.527-.53-3.991.24-5.454 1.58-9.24"></path><path fill="rgb(181,191,211)" d="M1600.35 373.458c2.99-.401 4.68-.867 7.56.217 3.87 3.564 4.36 7.319.8 11.169-1.87-2.178-1.35-3.167-1.68-6.537l.06-1.196-.88-.967-1.62.679c-1.09 3.762-1.24 4.583-3.5 7.864l-.96-.477c-.83-4.781-.58-5.904.22-10.752"></path><path fill="rgb(18,25,43)" fill-opacity=".137" d="M556.05 719.723c2.73 1.712 3.457 3.716 4.846 6.465 3.278-1.077 1.697-1.442 4.563-4.435-1.174 7.536-2.331 11.465-4.538 18.757-1.727-6.741-3.283-13.974-4.871-20.787"></path><path fill="rgb(18,25,43)" fill-opacity=".059" d="M578.391 723.403a533 533 0 0 0 3.715 14.84c-4.044-.244-5.035.815-8.39 3.104 1.325-6.819 2.657-11.338 4.675-17.944"></path><path fill="rgb(181,191,211)" fill-opacity=".898" d="M1953.45 363.816c9.18 5.658 9.73 22.078-.07 24.203 6.54-9.848 4.95-13.97.07-24.203"></path><path fill="rgb(18,25,43)" fill-opacity=".024" d="M1351.86 716.014c5.37.068 10.74.272 16.09.614l.95 1.055c-1.66 1.427-.73.98-2.91 1.368-3.43-.517-5.23 1.3-10.4 1.633-3.15-2.143-2.12-.965-3.73-4.67"></path><g id="_o9nu5r1g" pointer-events="none" style="mix-blend-mode:multiply"><rect width="100%" height="100%" fill="url(#_oxqgyd2r)"></rect></g><g pointer-events="none"><text x="2040.0" y="1111.0" font-family="Arial,Helvetica,sans-serif" font-size="22.34" fill="rgba(0,0,0,0.12)" font-weight="700" text-anchor="end" letter-spacing="0.5">vectosolve.com</text></g></svg>
