<?xml version='1.0' encoding='utf-8'?>
<svg xmlns:ns0="http://www.w3.org/2000/svg" xmlns="http://www.w3.org/2000/svg" viewBox="327.971 231.771 437.535 553.694" width="100%" height="100%"><ns0:path fill="rgb(96,110,245)" d="M543.066 256.939c9.766 3.87 24.643 14.84 34.727 20.479 26.004 14.544 50.773 21.667 79.519 27.902 7.598 2.38 35.626 1.109 40.068 7.139 5.859 7.955 3.988 47.433 3.957 57.137-11.602-4.453-15.479-4.414-27.161-.145l.17-35.401c-54.314-5.776-84.54-17.862-130.536-45.186-41.299 25.442-81.474 41.703-130.571 45.426-.168 58.112-4.683 127.592 20.242 181.349 6.315 13.62 17.17 27.178 26.207 39.247 1.232-14.804.535-43.57.564-59.114l-.138-127.823c.066-9.105 1.554-19.328 12.667-21.181 10.624-1.772 23.063-1.038 33.932-.991l54.452.299c-2.857.593-4.77.452-6.561 2.204 7.679 1.078 23.883 2.594 28.578 8.705.51 4.023-9.587 13.368-11.157 12.935l-1.982-2.124c-2.581.65-1.978.129-3.672 1.801l.054-.824c.394-6.593-.588-12.019-8.5-11.445-2.762.2-4.049-.252-6.547 1.325 2.857 1.82 5.434 1.769 8.851 2.151-27.03.956-57.593.355-84.884.388q.732 103.63.218 207.261c17.448 15.748 48.764 34.032 69.357 45.931 54.558-34.783 95.443-57.46 117.77-119.331.76-2.108 2.245-2.633 4.211-3.076 3.423.937 7.276 5.079 10.052 7.642l12.07 1.563-.159.642c-15.99 61.722-78.292 106.874-131.259 135.115-5.422 2.891-11.025 6.586-17.358 4.556-10.105-3.239-20.184-10.124-29.334-15.43-38.632-22.402-76.039-51.912-98.005-91.701a184.7 184.7 0 0 1-19.436-54.077c-2.577-13.124-3.944-26.484-4.815-39.822-1.156-17.695-3.672-113.236-.551-123.42 3.026-9.871 17.465-8.766 25.915-9.659a249.4 249.4 0 0 0 99.948-32.147c9.959-5.71 19.585-13.373 29.097-18.3" /><ns0:path fill="rgb(37,165,221)" d="M500.896 443.79a47 47 0 0 1-3.191-2.764c-13.197-12.357-2.972-28.694 13.132-28.959 11.366-.187 9.948 17.031 12.805 22.651 3.903 7.681 13.939 19.141 19.502 25.715 10.077-10.698 22.113-28.276 33.391-37.049 1.687-1.312 4.809-.571 6.846.152 5.805 6.128 3.885 29.372 3.866 38.36q-.288 30.163.281 60.322c14.318-12.019 27.817-25.581 41.245-38.641 3.336.071 4.615-.085 7.777-1.128l1.99.606c1.721 4.913-.204 5.993.243 9.385-8.941 9.254-48.206 52.329-57.652 53.739-2.758.412-3.784-.353-5.949-1.79-4.915-7.516-2.769-31.63-2.68-41.353q.076-27.605-.147-55.209c-29.838 41.487-28.476 37.672-57.562-.342-.681 10.696-.389 23.169-.381 34.012a83 83 0 0 1 2.137 1.74c21.877 18.483-7.754 37.897-22.789 22.523-7.474-7.642.702-18.839 6.997-23.986.478-12.79.283-25.195.139-37.984" /><ns0:path fill="rgb(32,191,159)" d="M672.13 396.678c-.339-5.695 1.157-14.674 5.723-17.88 25.529-17.928 43.046 37.829.711 26.851-11.433 9.061-14.414 11.303-16.11 26.165l-.217 1.981c14.807-5.582 31.096-4.412 46.932-3.777 5.489-8.753 13.482-15.39 23.656-8.434a18.26 18.26 0 0 1 7.513 11.693c2.684 15.018-17.79 27.308-30.983 7.733-18.919-.068-35.18-3.357-49.455 8.837-.974 9.342-1.915 11.117-4.952 20.122 5.763-.077 11.635-.249 17.381.057 3.37-4.078 11.257-11.03 16.349-10.596 27.292 2.326 12.121 56.944-16.992 21.865-15.532.013-21.396.259-32.903 11.145-.447-3.392 1.478-4.472-.243-9.385l-1.99-.606c-3.162 1.043-4.441 1.199-7.777 1.128 4.758-4.709 8.231-7.944 12.326-13.296 14.818-19.362 2.969-41.078 16.003-59.123 3.974-5.501 9.851-10.058 15.028-14.48m12.153-11.089a7.121 7.121 0 1 0 7.433 12.15 7.121 7.121 0 0 0-7.433-12.15m6.178 97.071a6.887 6.887 0 1 0-4.492-13.022 6.887 6.887 0 0 0 4.492 13.022" /><ns0:path fill="rgb(37,165,221)" d="M561.165 346.076c8.348-.184 14.661.305 20.768 6.971 14.651 15.99 44.548 33.59 44.22 57.252-.28 20.235-.329 40.636-.333 60.89-5.395 6.171-8.652 9.135-14.859 14.54.476-26.675 1.014-51.919 1.07-78.714-8.719.024-20.855-.489-29.183.183-33.682 2.72-13.424-35.224-21.129-45.898l-1.49-.496c-3.417-.382-5.994-.331-8.851-2.151 2.498-1.577 3.785-1.125 6.547-1.325 7.912-.574 8.894 4.852 8.5 11.445l-.054.824c1.694-1.672 1.091-1.151 3.672-1.801l1.982 2.124c1.57.433 11.667-8.912 11.157-12.935-4.695-6.111-20.899-7.627-28.578-8.705 1.791-1.752 3.704-1.611 6.561-2.204m41.445 46.858c-4.709-4.769-21.02-21.775-25.773-23.626-.295 7.654-1.944 16.348 2.524 22.085 5.644 3.742 16.166 1.965 23.249 1.541" /><ns0:path fill="rgb(28,38,63)" fill-opacity=".047" d="M353.139 702.864c7.371-.518 2.562-10.797 4.572-16.988l2.216-.902c.921 6.309 1.186 70.071-.177 75.323l-1.648-.561c-3.502-5.574.729-33.072-1.929-42.214l-2.772.096c.13-5.288.309-9.449-.262-14.754" /><ns0:path fill="rgb(18,25,43)" fill-opacity=".137" d="M556.05 719.723c2.73 1.712 3.457 3.716 4.846 6.465 3.278-1.077 1.697-1.442 4.563-4.435-1.174 7.536-2.331 11.465-4.538 18.757-1.727-6.741-3.283-13.974-4.871-20.787" /><ns0:path fill="rgb(18,25,43)" fill-opacity=".059" d="M578.391 723.403a533 533 0 0 0 3.715 14.84c-4.044-.244-5.035.815-8.39 3.104 1.325-6.819 2.657-11.338 4.675-17.944" /></svg>