<?xml version='1.0' encoding='utf-8'?>
<svg xmlns:ns0="http://www.w3.org/2000/svg" xmlns="http://www.w3.org/2000/svg" viewBox="1145.970 688.148 266.690 318.116" width="100%" height="100%"><defs><ns0:linearGradient id="b" x1="1368.14" x2="1172.69" y1="990.838" y2="769.968" gradientUnits="userSpaceOnUse"><ns0:stop class="stop0" offset="0" stop-color="rgb(20,26,46)" stop-opacity="1" /><ns0:stop class="stop1" offset="1" stop-color="rgb(66,96,147)" stop-opacity="1" /></ns0:linearGradient></defs><ns0:path fill="url(#b)" d="M1169.33 771.089c14.26-1.71 65.32-.684 81.7-.424 39.11.621 82.97-1.285 121.51.33 5.26 3.416 6.29 4.675 9.69 9.881l-.2 126.702c-.01 16.12 1.3 64.279-2.3 77.159-2.61 2.738-7.68 4.963-11.21 6.758-6.42.609-22.53.134-29.43.129l-59.09.046-65.68.134c-5.76.008-48.88 1.175-50.4-4.204-4.75-16.864-3.22-42.598-3.29-60.406l-.2-83.636c-.02-20.04-.44-43.46.53-63.651.19-3.988 5.08-6.676 8.37-8.818" /><ns0:path fill="rgb(96,110,245)" d="M1271.61 799.56c12.04 8.039 24.42 15.567 38.86 18.548 7.12 1.471 18.66 2.589 24.98 5.141 3.65 3.676 2.71 17.828 2.72 23.678l-.66.084c-2.91.352-4.14.343-7.06.269-.7.938-.9.806-.83 1.554l-.56.812c-6.05 8.868-1.09 7.111-11.27 16.159-.28 2.237-1.13 10.369-1.8 11.965l-.62 6.286 3.85 3.088.64 2.236c8.06 1.365 9.71-7.589 17.15-1.281 1.26 2.877 1.25 3.248.62 6.335-7.58 7.81-15.72-8.128-28 6.277 8.17-.58 3.04-2.558 10.05-3.171l.9 1.13c-2.34 5.558-5.85 8.384-7.9 13.951l1.89 1.41c4.01-4.975 5.84-9.537 8.48-15.263 3.49 1.989 6.28 1.86 8.22 4.249 1.47 6.978-5.31 15.064-9.32 20.323-12.86 16.885-31.57 29.197-50.29 38.725-30.57-15.332-58.19-35.957-63.73-71.289-3.44-21.955-3.59-45.973-1.79-68.007 29.44-3.712 41.03-6.424 65.47-23.209" /><ns0:path fill="rgb(28,38,63)" d="M1275.11 842.632c4.25 1.087 3.02.145 5.09 3.197.2 3.07-.03 4.18-.65 7.15-2.37 11.324 14.29 9.529 20.45 9.531.01 8.982-.43 24.618.54 33.061l2.31 3.481c5.85-5.04 9.66-7.857 12.52-14.996l3.85 3.088.64 2.236c8.06 1.365 9.71-7.589 17.15-1.281 1.26 2.877 1.25 3.248.62 6.335-7.58 7.81-15.72-8.128-28 6.277 8.17-.58 3.04-2.558 10.05-3.171l.9 1.13c-2.34 5.558-5.85 8.384-7.9 13.951l1.89 1.41c-4.72 13.276-31.39 29.062-42.93 35.668-10.54-5.568-19.57-11.778-29.05-18.948l.2-87.445c8.39-.027 24.66.488 32.32-.674" /><ns0:path fill="rgb(37,165,221)" d="M1273.79 883.046c2.67-3.942 6.86-10.465 11.03-12.431 4.84.475 5.14 4.646 5.33 8.999.46 10.73-.35 21.95-.33 32.672 3.82-3.809 9.11-9.407 13.11-12.751 1.74.769 3.48 1.317 4.75 2.68-4.77 5.107-15.23 18.79-22.56 17.156-5.14-6.471 2.75-30.738-2.75-36.457l-3.37 2.242c-4.99 1.887-4.5 4.338-8.51 3.699l-.62-1.685c1.76-1.167 2.53-1.556 4.45-2.458z" /><ns0:path fill="rgb(37,165,221)" d="M1259.33 880.444c-.46 10.236 3.79 19.533 2.43 23.725-2.4 2.328-3.09 2.402-6.36 3.3-9.59-2.448-.45-21.209-1.73-27.566-1.08-5.341-5.48-3.064-3.22-11.512 2.34-2.453 2.7-2.633 5.96-3.566 9.58 2.653 6.52 19.959 17.38 18.221l.53 1.666c-1.92.902-2.69 1.291-4.45 2.458l.62 1.685c4.01.639 3.52-1.812 8.51-3.699-1.9 3.192-4.92 6.117-7.5 8.858z" /><ns0:path fill="rgb(32,191,159)" d="M1302.85 899.052c5.85-5.04 9.66-7.857 12.52-14.996l3.85 3.088.64 2.236c8.06 1.365 9.71-7.589 17.15-1.281 1.26 2.877 1.25 3.248.62 6.335-7.58 7.81-15.72-8.128-28 6.277l-1.95 1.504c-1.27-1.363-3.01-1.911-4.75-2.68z" /><ns0:path fill="rgb(49,70,111)" d="M1216.39 832.486c21.06-2.97 37.16-7.402 55.25-19.39 20.17 12.102 31.84 15.461 54.93 19.23-.03 4.505-.78 8.518 1.14 12.092 5.05 1.92 5.99.13 10.46 2.509l-.66.084c-2.91.352-4.14.343-7.06.269-.7.938-.9.806-.83 1.554l-.56.812c-6.05 8.868-1.09 7.111-11.27 16.159-.28 2.237-1.13 10.369-1.8 11.965l-.62 6.286c-2.86 7.139-6.67 9.956-12.52 14.996l-2.31-3.481c-.97-8.443-.53-24.079-.54-33.061-6.16-.002-22.82 1.793-20.45-9.531.62-2.97.85-4.08.65-7.15-2.07-3.052-.84-2.11-5.09-3.197.22-3.388.71-2.834-.71-5.27-7.93-.11-29.78-1.521-35.46 1.701-4.21 7.501-2.43 72.79-2.38 86.251-23.73-28.824-20.67-56.593-20.17-92.828" /><ns0:path fill="rgb(37,165,221)" d="m1274.4 837.362 10.45.091c6.47 6.335 15.16 14.341 21.17 20.827a958 958 0 0 0 .09 26.264c-.11 6.484-.57 6.972-5.57 11.027-.97-8.443-.53-24.079-.54-33.061-6.16-.002-22.82 1.793-20.45-9.531.62-2.97.85-4.08.65-7.15-2.07-3.052-.84-2.11-5.09-3.197.22-3.388.71-2.834-.71-5.27" /><ns0:path fill="rgb(28,38,63)" d="m1306.11 884.544 1.69-11.733c2.69 3.114.79 15.19 1.46 17.68 3.14-5.122 3.14-6.004 4.57-11.721l2.16-1-.62 6.286c-2.86 7.139-6.67 9.956-12.52 14.996l-2.31-3.481c5-4.055 5.46-4.543 5.57-11.027" /><ns0:path fill="rgb(32,191,159)" d="M1329.62 848.834c4.78 1.262 5.53 1.41 9.19 4.659l.93 2.059c-3.58 8.6-20.09 7.632-17.97 17.69 1.96.315 15.32-.588 18.88-.553l.66-.706c3.95-4.199 6.88-5.524 11.48-1.436 1.29 3.011 1.29 3.388.51 6.571-8.98 10.897-30.18-13.788-34.08 10.026l-3.85-3.088.62-6.286c.67-1.596 1.52-9.728 1.8-11.965 10.18-9.048 5.22-7.291 11.27-16.159z" /><ns0:path fill="rgb(28,38,63)" fill-opacity=".016" d="m1383.36 704.837 1.59 1.32c7.18 4.837 6.26-.641 12.59 1.451l.66 1.885c-3.15 2.915-10.3 1.105-13.27 7.527-.06 3.547.27 4.17 1.57 7.359-3.6-.115-6.92-.027-10.51.066.19-7.26-2.04-11.069 2.62-16.476 2.35-.832 3.05-1.301 4.75-3.132" /><ns0:path fill="rgb(28,38,63)" fill-opacity=".188" d="M1363.08 703.493c7.43 2.222 2.94-3.49 11.08-.885l-2.61.944c-1.27 4.638-.87 17.264-.32 22.482-1.61-.774-1.79-1.674-2.59-3.32l-.31-.645-2.03-.14-.31-2.878c2.18-.388 1.25.059 2.91-1.368l-.95-1.055c-5.35-.342-10.72-.546-16.09-.614 5.38-1.771 12.29.929 14.93-4.006-.48-3.726-1.74-5.32-3.71-8.515" /><ns0:path fill="rgb(18,25,43)" fill-opacity=".173" d="m1180.21 703.506 4.19 1.281c1.81 7.997.35 14.869 1.55 20.791-3.09-.568-3.96-.166-6.93.692 1.38-4.279 1.13-17.551 1.19-22.764" /><ns0:path fill="rgb(18,25,43)" fill-opacity=".024" d="M1351.86 716.014c5.37.068 10.74.272 16.09.614l.95 1.055c-1.66 1.427-.73.98-2.91 1.368-3.43-.517-5.23 1.3-10.4 1.633-3.15-2.143-2.12-.965-3.73-4.67" /></svg>