<?xml version='1.0' encoding='utf-8'?>
<svg xmlns:ns0="http://www.w3.org/2000/svg" xmlns="http://www.w3.org/2000/svg" viewBox="1367.417 664.338 628.606 355.878" width="100%" height="100%"><defs><ns0:linearGradient id="a" x1="1710.65" x2="1710.35" y1="951.001" y2="772.573" gradientUnits="userSpaceOnUse"><ns0:stop class="stop0" offset="0" stop-color="rgb(28,39,64)" stop-opacity="1" /><ns0:stop class="stop1" offset="1" stop-color="rgb(60,87,135)" stop-opacity="1" /></ns0:linearGradient></defs><ns0:path fill="url(#a)" d="M1455.04 774.456c.59-1.16 1.52-3.769 3.1-3.76 169.35.974 339.72-2.328 509.01-.143q.42 54.19.3 108.38c-.02 16.735.61 40.276-.47 56.426.9 5.929.44 42.539.43 51.201-8.42 4.911-8.74 5.169-18.67 5.012-7.04-.112-14.68.024-21.76.032l-84.89.039-246.49-.01c-14.26-.002-133.83 1.225-139.18-1.875-2.7-5.192-1.79-95.812-1.63-110.743.32-31.649-1.1-72.745.25-104.559" /><ns0:path fill="rgb(28,38,63)" d="m1455.04 774.456.15.967c1.3 8.88.73 39.219.77 49.994l.54 100.834c.05 6.535-.15 33.389 1.18 38.217 2.63-5.189-1.94-12.839 2.19-17.223.87.587.96.714 1.72 1.426 50.91-2.305 104.04 3.135 155.28-.516 8.61-.614 36.1 5.228 40.32.619 1.31-.005 16.66-.083 16.26-.422 8.03 6.771 10.23-.022 16.7-.326 7.96-.373 18.76 8.305 25.75.254 8.14 3.414 16.71-.322 25.94.054 16.57.674 32.06 1.623 48.56-.706.06-.009 4.32 2.405 4.79 2.628 3.16.312 10.79-1.088 13.47-.856 11.27.975 32.02-2.378 41.4 1.264 3.1 1.205 2.67 1.397 6.13 1.9 9.24 5.505 13.95 17.169 17.39 26.882 2.8-8.546 8.46-23.07 17.17-26.902 6.48-.63 9.63-4.819 16.16-5.236 4.91-.312 12.5 1.684 17.38 2.132.88.08 3.94-3.913 7.21-3.59 1.74 2.179 2 2.577 4.5 3.75 2.17-1.699 2.83-2.539 5.44-3.002 2.3 1.614 3.23 2.667 5.97 2.53.67-1.057 1.11-2.106 1.51-3.29 2.24.302 4.47.643 6.7 1.022 3.11.544 6.43 1.099 8.27 3.735-.31 4.182.03 6.462.5 10.643l.78.307c2.27-6.194-2.11-21.492 1.81-26.186.9 5.929.44 42.539.43 51.201-8.42 4.911-8.74 5.169-18.67 5.012-7.04-.112-14.68.024-21.76.032l-84.89.039-246.49-.01c-14.26-.002-133.83 1.225-139.18-1.875-2.7-5.192-1.79-95.812-1.63-110.743.32-31.649-1.1-72.745.25-104.559" /><ns0:path fill="rgb(105,113,132)" d="M1873.54 905.071c7.64 22.389 14.53 29.543 37.15 37.49-6.95 2.395-14.74 4.648-19.94 9.983-8.71 3.832-14.37 18.356-17.17 26.902-3.44-9.713-8.15-21.377-17.39-26.882-6.53-6.07-11.83-7.272-20.18-9.982 22.51-8.212 29.55-14.411 37.53-37.511" /><ns0:path fill="rgb(49,70,111)" d="M1531.21 831.056c14.42 9.721 23.18 12.418 40.23 14.074.4 4.136 1.66 10.105-.49 13.316-2.5 1.323-2.94 1.309-5.78 1.829 2.2.51 2.7.619 4.95.68-5.8 1.882-5.96 6.526-10.69 11.213-.75 5.618-.85 11.668-4.7 15.794l1.57 3.198 3.77-2.34 2.3 2.913c1.59 1.035 2.78 1.912 4.3 3.064 2.5 13.596-24.98 30.378-35.48 35.652-42.34-21.346-42.68-42.26-40.86-85.014 17.27-1.321 26.62-4.399 40.88-14.379" /><ns0:path fill="rgb(96,110,245)" d="M1531.21 831.056c14.42 9.721 23.18 12.418 40.23 14.074.4 4.136 1.66 10.105-.49 13.316-2.5 1.323-2.94 1.309-5.78 1.829-.21-3.912.36-5.812-1.56-8.658-13.34-3.368-20.56-5.253-32.43-12.215-12.7 7.367-19.79 9.967-34.43 12.25-.18 15.587-1.18 29.674 4.37 44.499l5.73 9.201 1.12-.214c1.49-3.898.64-42.567.87-50.202 7.16-.678 19.62-.524 27.19-.668l-.18 3.879-23.22-.053-.07 36.998c.01 4.245.27 11.938-.46 15.826 6.76 4.524 12.21 8.03 19.29 12.014 15.15-7.772 24.34-15.411 30.98-31.199 1.59 1.035 2.78 1.912 4.3 3.064 2.5 13.596-24.98 30.378-35.48 35.652-42.34-21.346-42.68-42.26-40.86-85.014 17.27-1.321 26.62-4.399 40.88-14.379" /><ns0:path fill="rgb(28,38,63)" d="M1515.59 894.078c2.52 2.097 5.26 4.13 8.44 2.596 1.49-4.398-1.01-7.604-.41-13.228l1.53-.147c2.15 2.137 2.71 2.943 5.56 3.865 3.23-.647 5.15-3.527 7.36-6.068-.13 5.747-1.26 18.558 1.77 22.973l2.28.042c4.64-2.503 10.31-8.974 14.18-12.951l3.77-2.34 2.3 2.913c-6.64 15.788-15.83 23.427-30.98 31.199-7.08-3.984-12.53-7.49-19.29-12.014.73-3.888.47-11.581.46-15.826 1-2.427 1.19-4.292 3.07-5.205.03 1.574.09 2.603-.04 4.191" /><ns0:path fill="rgb(37,165,221)" d="M1515.59 894.078c7.24-9.436-.55-12.891 4.46-22.089l1.78-.197c4.54 3.224 2.49 5.358 8 10.952l.76.752c3.66-4.165 7.38-7.916 11.25-11.863l.1 28.156 12.79-11.827 1.57 3.198c-3.87 3.977-9.54 10.448-14.18 12.951l-2.28-.042c-3.03-4.415-1.9-17.226-1.77-22.973-2.21 2.541-4.13 5.421-7.36 6.068-2.85-.922-3.41-1.728-5.56-3.865l-1.53.147c-.6 5.624 1.9 8.83.41 13.228-3.18 1.534-5.92-.499-8.44-2.596" /><ns0:path fill="rgb(37,165,221)" d="M1536.03 854.268c4.41.134 12.39 9.388 15.85 12.974.1 6.241 1.38 17.01-2.23 21.435-3.31-2.656-.02-14.831-3.16-18.664-4.88-.26-6.77.193-10.09-2.845-1.09-3.589-.78-5.293-.55-9.021z" /><ns0:path fill="rgb(28,38,63)" d="M1501.12 896.151c.65-1.991.93-3.674 2.41-5.082l1.93.27c2.8 4.157 2.44 8.859 2.51 13.799l-1.12.214zm214.51-18.836c8.55 3.312 7.91 9.402 2.78 15.798-.84-.333-1.71-.688-2.49-1.125a7.38 7.38 0 0 1-3.61-5.138c-.68-3.822 1.22-6.69 3.32-9.535m26.13.152c9.9 1.335 8.08 8.884 4.84 15.452-9.46-1.831-7.95-8.674-4.84-15.452m126.37 8.636c3.43-.219 5.36-.733 7.44 2.042-.42 3.178-1.88 4.275-4.05 6.716-4.35-.587-5.94-.552-7.5-4.711 1.52-2.888.9-1.905 4.11-4.047" /><ns0:path fill="rgb(32,191,159)" d="M1570.12 860.955c1.41 2.756 2.26 3.717 1.8 6.739-4.29 4.965-8.47-.35-9.91 7.813 4.6 3.886 11.25-2.023 16.95-1.328 2.76 2.317 2.15 1.149 2.6 4.293-5.18 6.794-11.83-3.975-19.9 2.586-.93 2.653-1.39 2.649-1.01 5.051 5 .485 5.92-2.692 10.23-1.263 1.45 2.831 1.1 1.603.79 5.263-4.32 3.908-6.7-.622-11.6-1.289l-3.77 2.34-1.57-3.198c3.85-4.126 3.95-10.176 4.7-15.794 4.73-4.687 4.89-9.331 10.69-11.213" /><ns0:path fill="rgb(28,38,63)" d="m1679.92 873.247-.51-5.483.91-.765c1.54 6.773 2.46 17.124-8.32 14.108l1.36-1.639c5.52-1.46 4.93-1.324 6.56-6.221" /><ns0:path fill="rgb(18,25,43)" fill-opacity=".055" d="m1463.71 709.284 3.11.724c4.43 8.094 6.9 2.855 11.97 7.578l.08 1.901c-3.85 2.52-5.38 1.272-8.95-1.088-2.49.548-2.55.592-4.48 2.33l-2.47.232c-1.43-2.145-.48-1.463-2.93-2.147-5.1 2.479-5.51 3.154-10.42.197l-.3-1.36c7.89-4.527 12.38.956 14.39-8.367" /><ns0:path fill="rgb(28,38,63)" fill-opacity=".553" d="M1395.99 701.546c4.72-1.562 6.78 1.517 10.09 4.339 3.49-2.615-1.23-5.51 1.64-10.75 3.09-2.099 2.14-1.493 6.32-1.581-1.52.512-4.08.85-4.43 2.646-1.19 6.049-2.44 22.414.48 27.694l3.07.244c-5.97 2.13-4.95-1.144-9.36.854.47-11.422 3.43-18.438-7.81-23.446" /><ns0:path fill="rgb(28,38,63)" fill-opacity=".412" d="M1436.95 692.911c4.14 2.278 2.88.932 4.91 4.953-.06 2.67.09 3.485-.89 5.903l1.56 1.687.84-.564c1.31-.863 2.49-1.439 3.89-2.131-4.96 8.347-5.68 11.111-1.54 19.919-3.12.911-4.37 1.192-7.26 2.88.13-.941.22-1.885.3-2.831.4-5.986 1.7-25.722-1.81-29.816" /></svg>