<?xml version='1.0' encoding='utf-8'?>
<svg xmlns:ns0="http://www.w3.org/2000/svg" xmlns="http://www.w3.org/2000/svg" viewBox="1158.019 426.349 202.213 202.207" width="100%" height="100%"><defs><ns0:linearGradient id="k" x1="1267.09" x2="1253.98" y1="587.843" y2="496.537" gradientUnits="userSpaceOnUse"><ns0:stop class="stop0" offset="0" stop-color="rgb(27,37,62)" stop-opacity="1" /><ns0:stop class="stop1" offset="1" stop-color="rgb(50,72,116)" stop-opacity="1" /></ns0:linearGradient><ns0:linearGradient id="j" x1="1276.63" x2="1240.73" y1="615.076" y2="439.67" gradientUnits="userSpaceOnUse"><ns0:stop class="stop0" offset="0" stop-color="rgb(64,83,117)" stop-opacity="1" /><ns0:stop class="stop1" offset="1" stop-color="rgb(79,113,171)" stop-opacity="1" /></ns0:linearGradient><ns0:linearGradient id="l" x1="1262.04" x2="1256.06" y1="549.003" y2="487.09" gradientUnits="userSpaceOnUse"><ns0:stop class="stop0" offset="0" stop-color="rgb(35,52,86)" stop-opacity="1" /><ns0:stop class="stop1" offset="1" stop-color="rgb(54,76,120)" stop-opacity="1" /></ns0:linearGradient></defs><ns0:path fill="url(#j)" d="M1255.91 435.541c50.55-1.77 93.05 37.604 95.13 88.143 2.09 50.539-37.02 93.28-87.55 95.681-50.97 2.421-94.17-37.11-96.28-88.096-2.1-50.987 37.7-93.943 88.7-95.728" /><ns0:path fill="rgb(96,110,245)" d="m1252.93 465.513-2.9-.878c5.72-3.916 30.58-.067 34.52 4.943l.25.825c1.49.801 3.39 2.037 4.94 2.246 6.89.088 18.49 8.188 18.02 15.386 1.86 2.565 3.98 5.305 5.56 8.024 8.24 17.895 11.64 33.492 4.49 52.992a62.44 62.44 0 0 1-32.86 35.68 64.18 64.18 0 0 1-49.03 1.196c-27.47-10.695-43.93-39.916-38.77-67.843.25-1.331 1.33-7.729 1.25-8.778-.87-10.343 8.05-21.946 15.75-28.194l1.4.603c14.03-10.631 20.39-13.087 37.38-16.202" /><ns0:path fill="url(#k)" d="M1303.1 505.298c3.8-6.068 7.13-2.846 10.22-9.239 8.24 17.895 11.64 33.492 4.49 52.992a62.44 62.44 0 0 1-32.86 35.68 64.18 64.18 0 0 1-49.03 1.196c-27.47-10.695-43.93-39.916-38.77-67.843.25-1.331 1.33-7.729 1.25-8.778l3.69-8.522c2.37 4.199 3.59 4.96 8.37 5.506 2.75 3.087 2.26 4.614 3.23 9.304 1.23 38.916 12.34 49.781 44.92 67.595 13.57-6.755 38.17-22.013 39.55-38.457-1.62-3.181-1.57-2.392-5.41-4.313l2.54-2.444c1.11 1.149 1.8 1.347 3.22 2.124 3.79-.165 2.83.449 5.06-1.626.53-4.016.89-2.762-.56-5.794-3.07-1.149-7.23.511-10.62 1.441l-1.26-.792c.54-2.984.56-3.757 2.22-6.26 7.78-4.906 14.29 4.884 20.36-.293.57-3.544.77-2.103-.88-5.427-6.46-2.896-13.31 5.212-20.02 1.61l-.22-2.471c3.99-5.987 6.87-1.945 11.41-6.832-.3-4.347-.24-3.113-2.81-7.071z" /><ns0:path fill="rgb(28,38,63)" d="M1262.75 503.485c1.5 2.501 1.06 9.461 1.07 12.795l14.03.216c.05 5.169.4 15.874-.37 20.474l2.74.789.84 1.394 6.85-6.166c1.95-9.856 3-21.415 13.28-26.403 2.57 3.958 2.51 2.724 2.81 7.071-4.54 4.887-7.42.845-11.41 6.832l.22 2.471c6.71 3.602 13.56-4.506 20.02-1.61 1.65 3.324 1.45 1.883.88 5.427-6.07 5.177-12.58-4.613-20.36.293-1.66 2.503-1.68 3.276-2.22 6.26l1.26.792c3.39-.93 7.55-2.59 10.62-1.441 1.45 3.032 1.09 1.778.56 5.794-2.23 2.075-1.27 1.461-5.06 1.626-1.42-.777-2.11-.975-3.22-2.124l-2.54 2.444c-6.75 18.335-18.05 25.393-33.96 34.62-7.08-4.299-13.82-8.394-20.68-13.032.5-2.172.65-6.402.81-8.796-.86-15.05-.19-34.38-.05-49.754q11.94-.065 23.88.028" /><ns0:path fill="rgb(49,70,111)" d="M1262.75 503.485c1.5 2.501 1.06 9.461 1.07 12.795l14.03.216c.05 5.169.4 15.874-.37 20.474l2.74.789.84 1.394-10.18 9.479c-.07-4.036.07-8.373.14-12.437.07-4.298.67-9.946-1.28-13.575l-1.78-.854c-3.82 1.394-7.02 6.414-9.76 9.822-5.25-5.756-4.59-5.432-7.52-12.335-1.03-.428-1.94-.803-2.72-1.124-3.77.927-2.56.101-4.75 2.913-.53 4.975 5.38 10.987 1.76 15.675l-.7-3.902-.97.26c-2.88 7.488-3.79 12.134-4.38 20.136-.86-15.05-.19-34.38-.05-49.754q11.94-.065 23.88.028" /><ns0:path fill="rgb(28,38,63)" d="M1271.02 536.195c.71-5.013.97-10.045 3.46-14.385 3.21 2.734 1.88 11.377 3 15.16l2.74.789.84 1.394-10.18 9.479c-.07-4.036.07-8.373.14-12.437" /><ns0:path fill="rgb(37,165,221)" d="M1301.19 506.584c2.57 3.958 2.51 2.724 2.81 7.071-4.54 4.887-7.42.845-11.41 6.832l.22 2.471c6.71 3.602 13.56-4.506 20.02-1.61 1.65 3.324 1.45 1.883.88 5.427-6.07 5.177-12.58-4.613-20.36.293-1.66 2.503-1.68 3.276-2.22 6.26l1.26.792c3.39-.93 7.55-2.59 10.62-1.441 1.45 3.032 1.09 1.778.56 5.794-2.23 2.075-1.27 1.461-5.06 1.626-1.42-.777-2.11-.975-3.22-2.124-.92-.291-2.75-.539-3.78-.716-6.34 1.489-18.44 15.355-24.91 20.921-.21-9.676-.2-19.566-.29-29.263l-8.16 8.813c-2.63-3.074-3.69-4.348-6.81-6.906l-1.12.503c.64 5.358 2.98 11.911-2.07 14.662-3.49-.449-2.22.149-4.8-2.269-.67-3.13.18-4.08 1.62-7.003 3.62-4.688-2.29-10.7-1.76-15.675 2.19-2.812.98-1.986 4.75-2.913.78.321 1.69.696 2.72 1.124 2.93 6.903 2.27 6.579 7.52 12.335 2.74-3.408 5.94-8.428 9.76-9.822l1.78.854c1.95 3.629 1.35 9.277 1.28 13.575-.07 4.064-.21 8.401-.14 12.437l10.18-9.479 6.85-6.166c1.95-9.856 3-21.415 13.28-26.403" /><ns0:path fill="url(#l)" d="M1258.82 483.114c13.12 8.212 22.72 8.826 36.44 14.581 1.29.541.81 4.264.78 5.674 2.59 2.238 3.05 1.576 7.06 1.929l-1.91 1.286c-10.28 4.988-11.33 16.547-13.28 26.403l-6.85 6.166-.84-1.394-2.74-.789c.77-4.6.42-15.305.37-20.474l-14.03-.216c-.01-3.334.43-10.294-1.07-12.795l-2-4.106c-5.73-.099-19.85-1.018-24.49 1.267-5.06 7.397-.17 48.606-2.81 55.185-2.11-2.009-3.37-3.338-5.26-5.562-.32-1.47-3.64-8.838-4.59-12.61-3.59-14.341-2.85-26.672-2.64-41.265 15.3-2.11 24.72-5.48 37.86-13.28" /><ns0:path fill="rgb(37,165,221)" d="M1260.75 499.379c7.55-.15 10.37 3.395 15.87 8.682 1.74 1.669 3.46 3.351 5.17 5.045 0 5.796.62 20.211-1.57 24.653l-2.74-.789c.77-4.6.42-15.305.37-20.474l-14.03-.216c-.01-3.334.43-10.294-1.07-12.795z" /><ns0:path fill="rgb(49,70,111)" d="m1252.93 465.513-2.9-.878c5.72-3.916 30.58-.067 34.52 4.943l.25.825c1.49.801 3.39 2.037 4.94 2.246 6.89.088 18.49 8.188 18.02 15.386 1.86 2.565 3.98 5.305 5.56 8.024-3.09 6.393-6.42 3.171-10.22 9.239l.08-15.38c-18.09-2.522-29.19-4.802-44.36-15.792-16.12 10.749-26.07 13.736-45.31 15.908-.11 8.75-.13 16.82.18 25.56-.97-4.69-.48-6.217-3.23-9.304-4.78-.546-6-1.307-8.37-5.506l-3.69 8.522c-.87-10.343 8.05-21.946 15.75-28.194l1.4.603c14.03-10.631 20.39-13.087 37.38-16.202" /><ns0:path fill="rgb(100,124,189)" d="M1198.4 509.306c-.87-10.343 8.05-21.946 15.75-28.194l1.4.603c-4.97 5.923-10.3 11.95-13.46 19.069zm54.53-43.793-2.9-.878c5.72-3.916 30.58-.067 34.52 4.943l.25.825c-12.01-4.899-19.21-5.748-31.87-4.89m36.81 7.136c6.89.088 18.49 8.188 18.02 15.386-5.41-6.413-11.33-10.438-18.02-15.386" /></svg>