<?xml version='1.0' encoding='utf-8'?>
<svg xmlns:ns0="http://www.w3.org/2000/svg" xmlns="http://www.w3.org/2000/svg" viewBox="1720.158 351.034 246.074 281.208" width="100%" height="100%"><defs><ns0:linearGradient id="e" x1="1825.48" x2="1822.99" y1="548.814" y2="487" gradientUnits="userSpaceOnUse"><ns0:stop class="stop0" offset="0" stop-color="rgb(35,52,87)" stop-opacity="1" /><ns0:stop class="stop1" offset="1" stop-color="rgb(55,76,123)" stop-opacity="1" /></ns0:linearGradient><ns0:linearGradient id="d" x1="1832.86" x2="1817.46" y1="587.728" y2="482.101" gradientUnits="userSpaceOnUse"><ns0:stop class="stop0" offset="0" stop-color="rgb(26,34,59)" stop-opacity="1" /><ns0:stop class="stop1" offset="1" stop-color="rgb(54,78,125)" stop-opacity="1" /></ns0:linearGradient><ns0:linearGradient id="c" x1="1844.92" x2="1803.18" y1="625.149" y2="428.617" gradientUnits="userSpaceOnUse"><ns0:stop class="stop0" offset="0" stop-color="rgb(63,82,116)" stop-opacity="1" /><ns0:stop class="stop1" offset="1" stop-color="rgb(80,114,174)" stop-opacity="1" /></ns0:linearGradient></defs><ns0:path fill="url(#c)" d="M1756.85 436.343c19.16-2.542 40.29-.782 59.71-.786 21.4-.005 43.86-1.342 65.14.271 5.43.412 11.53 1.355 16.56 3.534 6.99 3.032 13.43 11.134 16.11 18.138 2.76 7.199 3.04 135.615-.04 142.394-4.71 10.357-13.86 15.18-24.03 18.745-10.92 2.777-48.23.855-61.12.821-21.59-.057-44.08 1.155-65.6-.308-3.81-.259-7.39-.802-10.94-2.277-8.17-3.4-14.39-9.157-17.71-17.456-1.16-2.883-1.75-5.843-1.99-8.933-1.3-16.262-2.08-126.223 2.12-135.651 4.18-9.413 12.49-14.927 21.79-18.492" /><ns0:path fill="rgb(96,110,245)" d="M1794.05 472.493c7.89-14.848 60.94-10.229 67.17 3.85l.34.404c2.51 2.869 5.56 5.578 8.29 8.326 24.91 25.106 21.75 67.868-4.9 90.531a62.86 62.86 0 0 1-46.36 14.334 62.12 62.12 0 0 1-42.18-22.31 62.08 62.08 0 0 1-14.05-46.087c1.3-12.518 6.25-23.068 13.31-33.243l-.76-.903c1.92-5.254 5.59-8.567 11.12-9.052 2.32-1.481 5.7-4.138 8.02-5.85" /><ns0:path fill="url(#d)" d="m1859.69 475.696 1.53.647.34.404c2.51 2.869 5.56 5.578 8.29 8.326 24.91 25.106 21.75 67.868-4.9 90.531a62.86 62.86 0 0 1-46.36 14.334 62.12 62.12 0 0 1-42.18-22.31 62.08 62.08 0 0 1-14.05-46.087c1.3-12.518 6.25-23.068 13.31-33.243l1.88-1.721c1.01 1.323 1.62 1.892 2.25 3.42-1.4 12.125-1.24 27.533.14 39.689 3.19 28.263 21.89 40.997 44.55 53.594 11.02-5.948 41.34-24.52 39.24-39.474-1.79-1.854-2.26-1.916-4.66-3l2.15-2.607c2.02 1.827 1.36 1.262 4.31 1.956 3.54-1.25 2.46-.367 4.43-3.121-.45-3.48.13-2.173-2.36-4.884-5.13-.646-4.3 1.124-9.95 2.041l-1.01-1.71c2.34-13.62 17.53.112 23.25-6.628l-.31-3.138c-6.15-5.306-16.52 4.151-21.35-.214 1.53-8.709 5.98-3.026 11.02-8.226.38-4.316.21-3.159-1.82-7.477l.84-2.128c.68-2.987.5-11.126.51-14.57-8.84-1.21-17.38-2.575-25.77-5.705 1.52-5.899 11.86-2.823 16.68-8.699" /><ns0:path fill="rgb(28,38,63)" d="M1847.39 538.365c11.97-9.509 4.81-25.739 20.04-31.567 2.03 4.318 2.2 3.161 1.82 7.477-5.04 5.2-9.49-.483-11.02 8.226 4.83 4.365 15.2-5.092 21.35.214l.31 3.138c-5.72 6.74-20.91-6.992-23.25 6.628l1.01 1.71c5.65-.917 4.82-2.687 9.95-2.041 2.49 2.711 1.91 1.404 2.36 4.884-1.97 2.754-.89 1.871-4.43 3.121-2.95-.694-2.29-.129-4.31-1.956l-2.15 2.607c-10.41 18.912-16.02 23.538-34.66 34.204-7-4.088-12.45-7.208-18.92-12.07 1.52-7.874 1.57-10.016 1.5-18.123l1.69.496c-.22-8.69 8.3-12.445-.53-22.193 2.12-3.903.91-2.727 4.42-4.878 3.46.494 2.16-.139 4.81 2.723l.69 2.973 1.19-1.976c2.14 1.773 2.24 2.017 4.88 2.358 3.56-.505 5.69-3.986 8.06-6.875 4.39.149 6.82-.09 11.21-.565-.1 5.584-1.31 16.702 1.96 20.478z" /><ns0:path fill="rgb(37,165,221)" d="M1847.39 538.365c11.97-9.509 4.81-25.739 20.04-31.567 2.03 4.318 2.2 3.161 1.82 7.477-5.04 5.2-9.49-.483-11.02 8.226 4.83 4.365 15.2-5.092 21.35.214l.31 3.138c-5.72 6.74-20.91-6.992-23.25 6.628l1.01 1.71c5.65-.917 4.82-2.687 9.95-2.041 2.49 2.711 1.91 1.404 2.36 4.884-1.97 2.754-.89 1.871-4.43 3.121-2.95-.694-2.29-.129-4.31-1.956-10.82-3.155-20.57 13.618-29.07 20.334l.15-30.203c-2.55 2.908-5.71 6.731-8.36 9.426-2.29-2.641-4.02-5.2-7.14-6.545-2.13 4.104 3.73 9.535-1.65 14.553-3.06.425-3.47.339-6.47-.451-.22-8.69 8.3-12.445-.53-22.193 2.12-3.903.91-2.727 4.42-4.878 3.46.494 2.16-.139 4.81 2.723l.69 2.973 1.19-1.976c2.14 1.773 2.24 2.017 4.88 2.358 3.56-.505 5.69-3.986 8.06-6.875 4.39.149 6.82-.09 11.21-.565-.1 5.584-1.31 16.702 1.96 20.478z" /><ns0:path fill="rgb(28,38,63)" d="M1843.41 516.88c-.1 5.584-1.31 16.702 1.96 20.478l2.02 1.007-10.77 10.08-.08-30.972c-3.98 3.677-8.97 9.77-12.64 13.996-2.29-2.283-3.96-4.886-5.83-7.531l1.19-1.976c2.14 1.773 2.24 2.017 4.88 2.358 3.56-.505 5.69-3.986 8.06-6.875 4.39.149 6.82-.09 11.21-.565" /><ns0:path fill="url(#e)" d="M1824.74 483.207c4.97 3.158 7.8 4.495 12.99 6.843 5.18 2.343 20.62 5.12 23.55 8.291.5 2.342.47 2.464.12 4.89l-.09.596c2.72 1.591 3.79 1.168 6.96.843l-.84 2.128c-15.23 5.828-8.07 22.058-20.04 31.567l-2.02-1.007c-3.27-3.776-2.06-14.894-1.96-20.478-2.75-.777-10.41-.655-13.63-.706-.32-4.881.28-10.054-2.78-12.758l1.22-4.245c-4.69.017-24.79-.771-26.42 1.74-5.28 8.138-.02 48.466-3.09 54.993-14.36-19.566-12.46-36.324-12.08-59.649 15.03-1.493 25.32-5.43 38.11-13.048" /><ns0:path fill="rgb(37,165,221)" d="M1828.22 499.171c6.36-.099 9.57 4.452 14.26 9.009l4.92 4.824c.21 6.257 1.72 19.748-2.03 24.354-3.27-3.776-2.06-14.894-1.96-20.478-2.75-.777-10.41-.655-13.63-.706-.32-4.881.28-10.054-2.78-12.758z" /><ns0:path fill="rgb(49,70,111)" d="M1794.05 472.493c7.89-14.848 60.94-10.229 67.17 3.85l-1.53-.647c-4.82 5.876-15.16 2.8-16.68 8.699-6.55-2.473-12.61-6.33-18.39-10.27-15.95 10.689-25.68 13.678-44.82 15.872-.63-1.528-1.24-2.097-2.25-3.42l-1.88 1.721-.76-.903c1.92-5.254 5.59-8.567 11.12-9.052 2.32-1.481 5.7-4.138 8.02-5.85" /><ns0:path fill="rgb(100,124,189)" d="M1794.05 472.493c7.89-14.848 60.94-10.229 67.17 3.85l-1.53-.647c-24.7-15.883-40.44-11.622-65.64-3.203m-18.38 15.805-.76-.903c1.92-5.254 5.59-8.567 11.12-9.052-2.71 2.376-6.47 5.402-8.48 8.234z" /><ns0:path fill="rgb(49,70,111)" d="m1804.07 503.471 22.93-.055c3.06 2.704 2.46 7.877 2.78 12.758 3.22.051 10.88-.071 13.63.706-4.39.475-6.82.714-11.21.565-2.37 2.889-4.5 6.37-8.06 6.875-2.64-.341-2.74-.585-4.88-2.358l-1.19 1.976-.69-2.973c-2.65-2.862-1.35-2.229-4.81-2.723-3.51 2.151-2.3.975-4.42 4.878 8.83 9.748.31 13.503.53 22.193l-1.69-.496c.07 8.107.02 10.249-1.5 18.123l-2.15-2.242c.49-1.957.68-6.832.83-9.06-.51-15.215-.1-32.771-.1-48.167" /><ns0:path fill="rgb(28,38,63)" d="M1804.17 551.638c2.99-8.287-.65-25.11 3.06-30.024l.92 1.506c8.83 9.748.31 13.503.53 22.193l-1.69-.496c.07 8.107.02 10.249-1.5 18.123l-2.15-2.242c.49-1.957.68-6.832.83-9.06" /><ns0:path fill="rgb(28,38,63)" fill-opacity=".086" d="M1953.38 388.019c-5.45-8.099-12.64-2.002-22.48-8.867-.49-.974-1.41-2.069-.92-3.128 5.9-12.901 19.76 3.831 23.47-12.208 4.88 10.233 6.47 14.355-.07 24.203" /><ns0:path fill="rgb(181,191,211)" fill-opacity=".957" d="m1780.83 395.411.74.336c2.89 5.371.76 2.37 1.21 9.007 2.93 3.242 7.56 4.457 11.33 1.779l-.41-2.405c-4.14-3.65-3.5.385-7.87-2.54l.23-1.771c3.11-1.999 5.25-1.525 8.22.006 2.19 3.76 1.55 2.652 1.08 7.666l.09.583c-1.22 2.427-2.43 2.732-4.9 3.979l-.91.456-.73 3.424-1.41.89c-3.41-1.83-.04-3.314-2.91-6.952l-1.03.312c-7.69 2.293-16.85 1.49-9.68-9.595.7-1.082 4.72-2.708 6.95-5.175" /><ns0:path fill="rgb(181,191,211)" fill-opacity=".89" d="M1743.28 392.216c5.29 4.474 10.91 1.152 13.79 4.087-.57 4.687-2.51 10.124-5.66 13.684l-1.66-.177c-.76-2.946 5.37-6.213 2.84-12.457l-3.84-1.506c-2.73.123-3.02.264-5.26 1.839-4.14 6.644 1.43 10.618 2.02 17.85l-1.09.977c-5.31-3.296-5.21-8.934-5.61-14.473 1.98-3.119 3.12-6.392 4.47-9.824" /><ns0:path fill="rgb(181,191,211)" fill-opacity=".984" d="M1740.3 370.771c3.46-.173 4.26-.226 7.78.463 2.27 2.388 1.79 1.258 2.13 4.219-1.53 2.499-3.9 2.874-6.82 3.906 1.39 1.59 2.51 1.367 4.95 1.896l1.4.419c-4.29 3.176-7.79 2.511-10.57-1.74-.67-4.392-.41-5.001 1.13-9.163" /><ns0:path fill="rgb(181,191,211)" fill-opacity=".949" d="M1837.79 398.638c4.17-.191 9.82.999 9.44 6.18-3.41 2.694-4.12.929-7.66 2.3l.96.795c1.6.458 2.2.844 3.68 1.57l-.83 1.507-2.93.415c-3.39-1.575-2.34-.604-4.24-3.527-.53-3.991.24-5.454 1.58-9.24" /><ns0:path fill="rgb(181,191,211)" fill-opacity=".898" d="M1953.45 363.816c9.18 5.658 9.73 22.078-.07 24.203 6.54-9.848 4.95-13.97.07-24.203" /></svg>