<?xml version='1.0' encoding='utf-8'?>
<svg xmlns:ns0="http://www.w3.org/2000/svg" xmlns="http://www.w3.org/2000/svg" viewBox="1437.130 353.329 276.140 278.740" width="100%" height="100%"><defs><ns0:linearGradient id="h" x1="1546.92" x2="1542.93" y1="569.656" y2="524.25" gradientUnits="userSpaceOnUse"><ns0:stop class="stop0" offset="0" stop-color="rgb(30,40,68)" stop-opacity="1" /><ns0:stop class="stop1" offset="1" stop-color="rgb(43,64,107)" stop-opacity="1" /></ns0:linearGradient><ns0:linearGradient id="f" x1="1559.82" x2="1521.58" y1="620.938" y2="432.983" gradientUnits="userSpaceOnUse"><ns0:stop class="stop0" offset="0" stop-color="rgb(64,83,118)" stop-opacity="1" /><ns0:stop class="stop1" offset="1" stop-color="rgb(80,115,174)" stop-opacity="1" /></ns0:linearGradient><ns0:linearGradient id="g" x1="1551.18" x2="1535.37" y1="587.63" y2="494.237" gradientUnits="userSpaceOnUse"><ns0:stop class="stop0" offset="0" stop-color="rgb(27,37,63)" stop-opacity="1" /><ns0:stop class="stop1" offset="1" stop-color="rgb(51,75,121)" stop-opacity="1" /></ns0:linearGradient><ns0:linearGradient id="i" x1="1547.09" x2="1535.67" y1="544.07" y2="487.881" gradientUnits="userSpaceOnUse"><ns0:stop class="stop0" offset="0" stop-color="rgb(34,51,84)" stop-opacity="1" /><ns0:stop class="stop1" offset="1" stop-color="rgb(56,78,126)" stop-opacity="1" /></ns0:linearGradient></defs><ns0:path fill="url(#f)" d="M1516.29 435.518c11.08-.868 24.47-.184 35.58-.313 22.99.004 47.37-1.97 65.48 15.464 21.17 20.375 14.11 55.975 15.36 82.804.63 13.519.62 35.366-2.73 47.713a50.5 50.5 0 0 1-12.99 22.709c-13.94 13.866-32.05 15.706-50.49 15.486l-35.65.018c-22.42.025-48.24 1.631-65.65-15.242-17.49-16.947-15.34-41.531-15.22-63.686q.045-16.42-.18-32.84c-.36-50.794 13.4-71.969 66.49-72.113" /><ns0:path fill="rgb(96,110,245)" d="M1507.83 473.763c5.35-11.57 50.33-15.283 59-3.149 2.47 1.355 11.06 5.801 12.33 7.734 27.54 18.449 31.83 58.67 13.55 85.265a60.7 60.7 0 0 1-39.81 25.532 63.9 63.9 0 0 1-47.98-10.493 61.45 61.45 0 0 1-25.32-40.657c-1.98-12.729-.22-22.783 3.97-34.716 7.72-17.33 12.71-17.389 23.83-29.053z" /><ns0:path fill="url(#g)" d="M1579.16 478.348c27.54 18.449 31.83 58.67 13.55 85.265a60.7 60.7 0 0 1-39.81 25.532 63.9 63.9 0 0 1-47.98-10.493 61.45 61.45 0 0 1-25.32-40.657c-1.98-12.729-.22-22.783 3.97-34.716 2.21 2.952 5.16 3.675 7.97 1.373 1.72-5.123.32-11.964 3.79-14.473l.11 1.012c1 9.761.43 21.412.86 31.431 1.44 32.71 17.79 46.447 44.76 60.619 12.14-6.637 40.57-24.1 40.18-40.13l-1.29-1.72 3.36.114c2.23-2.251 4.19-5.042 3.32-8.149-2.88-2.014-9.61-.397-13.12.201l1.1-4.885c6.73-5.615 15.5 1.454 22.23-2.282-.17-3.111-.09-2.125-2.08-5.066-4.57-1.775-9.87 2.627-17.6 2.566-2.36-1.399-1.63-.526-2.55-3.298 3.6-4.891 11.08-2.776 12.19-8.936-2.73-4.146-1.55-2.848-6.17-5.136l-1.71-1.752c2.4.13 3.03.057 5.41-.34 2.85-4.26 1.64-9.066 1.25-14.551-8.6-.874-13.48-1.571-21.62-4.273 5-4.007 12.68 3.055 18.78 1.734 1.64-2.976-1.9-6.391-3.58-8.99" /><ns0:path fill="url(#h)" d="M1542.33 499.353c4.16-.158 5.45-.358 8.95 1.958l.63.414c5.74 3.811 11.75 9.315 12.94 16.315 1.1 5.062.75 13.719.74 19.158 3.98-3.584 4.8-6.487 6.08-11.462 1.84-7.125 5.04-12.965 8.96-19.216 4.62 2.288 3.44.99 6.17 5.136-1.11 6.16-8.59 4.045-12.19 8.936.92 2.772.19 1.899 2.55 3.298 7.73.061 13.03-4.341 17.6-2.566 1.99 2.941 1.91 1.955 2.08 5.066-6.73 3.736-15.5-3.333-22.23 2.282l-1.1 4.885c3.51-.598 10.24-2.215 13.12-.201.87 3.107-1.09 5.898-3.32 8.149l-3.36-.114-3.99-.341c-3.03 2.745-4.92 8.742-7.45 12.305-6.66 9.386-17.76 15.985-27.48 21.651-5.59-3.396-12.26-7.71-17.88-10.834-4.17-4.611-2.26-50.641-2.16-60.725 8.08.009 15.48.093 23.53-.6l-.88-2.862z" /><ns0:path fill="rgb(49,70,111)" d="M1542.33 499.353c4.16-.158 5.45-.358 8.95 1.958l.63.414c5.74 3.811 11.75 9.315 12.94 16.315 1.1 5.062.75 13.719.74 19.158-1.4.872-10.59 9.83-12.36 11.522q.255-15.6-.15-31.197c-4.58 4.258-8.28 9.127-12.2 13.986-5.89-5.649-6.03-11.091-10.33-13.157-3.77.688-2.81.665-6.01 3.631l-.26 3.283-1.14-.228c-.87-6.552-.67-12.942-.65-19.546 5.37.213 16.55-.923 22.83-1.164l-.8-1.481-.88-2.862z" /><ns0:path fill="rgb(37,165,221)" d="M1542.33 499.353c4.16-.158 5.45-.358 8.95 1.958l.63.414c5.74 3.811 11.75 9.315 12.94 16.315-1.25 6.62 1.29 15.589-3.89 19.529-1.44-1.814-.96-17.541-.98-21.203l-13.89-.39c.02-4.389.19-7.367-.77-11.648l-.8-1.481-.88-2.862z" /><ns0:path fill="rgb(37,165,221)" d="M1580.63 506.52c4.62 2.288 3.44.99 6.17 5.136-1.11 6.16-8.59 4.045-12.19 8.936.92 2.772.19 1.899 2.55 3.298 7.73.061 13.03-4.341 17.6-2.566 1.99 2.941 1.91 1.955 2.08 5.066-6.73 3.736-15.5-3.333-22.23 2.282l-1.1 4.885c3.51-.598 10.24-2.215 13.12-.201.87 3.107-1.09 5.898-3.32 8.149-3.04-1.306-5.06-3.401-8.09-3.613-8.32-.582-19.41 14.071-26.11 20.738-.57-8.709-.22-21.278-.24-30.27-2.57 3.162-5.34 6.345-7.99 9.462-2.38-2.666-4.59-5.382-7.44-7.53-2.11 2.651 1.48 9.659-.59 15.765-.82.494-1.4 1.105-2.09.867-9.8-3.348 2.59-12.81-5.57-24.068l-.65-.873c3.2-2.966 2.24-2.943 6.01-3.631 4.3 2.066 4.44 7.508 10.33 13.157 3.92-4.859 7.62-9.728 12.2-13.986q.405 15.597.15 31.197c1.77-1.692 10.96-10.65 12.36-11.522 3.98-3.584 4.8-6.487 6.08-11.462 1.84-7.125 5.04-12.965 8.96-19.216" /><ns0:path fill="url(#i)" d="M1541.46 483.223c10.76 7.312 22.55 9.998 34.95 13.093 1.73.432 2.13 6.58 2.51 8.452l1.71 1.752c-3.92 6.251-7.12 12.091-8.96 19.216-1.28 4.975-2.1 7.878-6.08 11.462.01-5.439.36-14.096-.74-19.158-1.19-7-7.2-12.504-12.94-16.315l-.63-.414c-3.5-2.316-4.79-2.116-8.95-1.958-4.42-.114-22.63-1.158-23.82 1.139-5.64 10.931.11 44.968-3 55.713-14.4-19.014-12.43-36.952-12.2-59.757 16.51-2.334 23.55-5.077 38.15-13.225" /><ns0:path fill="rgb(49,70,111)" d="M1507.83 473.763c5.35-11.57 50.33-15.283 59-3.149 2.47 1.355 11.06 5.801 12.33 7.734 1.68 2.599 5.22 6.014 3.58 8.99-6.1 1.321-13.78-5.741-18.78-1.734-8.78-2.072-15.29-6.508-22.82-11.231-17.01 10.879-25.91 13.152-45.81 15.806-3.47 2.509-2.07 9.35-3.79 14.473-2.81 2.302-5.76 1.579-7.97-1.373 7.72-17.33 12.71-17.389 23.83-29.053z" /><ns0:path fill="rgb(100,124,189)" d="M1507.83 473.763c5.35-11.57 50.33-15.283 59-3.149-17.77-6.976-28.94-7.449-47.44-1.312-2.18.724-10.24 4.24-11.56 4.461" /><ns0:path fill="rgb(28,38,63)" d="m1577.2 368.524-.31-1.841 1.67-.083 4.36 6.653c3.24-.059 5.54-.455 8.7-.941 4.91 1.784 8.32 4.27 6.75 10.262-.85 1.005-1.43 2.052-2.47 2.402-10.72 15.223-6.01 1.469-19.57 2.475-3.39.251-7.96-.624-11.24-1.53l-1.17-.061c-13.4 2.377-28.26-.411-41.8 1.446-2.63.361-5.7 5.764-10.75 4.638-2.73.027-5.49-2.885-7.7-3.526-6.35-1.83-14.72-1.402-21.45-2.531.16-5.726.76-8.225-2.31-12.713 6.7 1.421 7.71-1.51 13.06-.88l3.04.437c1.29-2.262 1.3-2.601 1.9-5.174 3.49-.837 4.78 2.188 6.54 4.816 2.76 1.261 4.13.714 7.16.225 2.04-.312 23.47-.154 24.23.197l1.27.196 5.73.549 2.25.452c5.4-1.931 20.22-2.198 24.58-.229 5.78-.761 5.26-.456 7.53-5.239" /><ns0:path fill="rgb(181,191,211)" d="M1591.62 372.312c4.91 1.784 8.32 4.27 6.75 10.262-.85 1.005-1.43 2.052-2.47 2.402-5.25.944-3.4.283-7.46 4.596l-.99-.9c-1.27-4.245-.43-8.858.38-13.211.39-2.078 1.66-2.116 3.79-3.149" /><ns0:path fill="rgb(28,38,63)" d="M1590.51 374.223c2.08.629 2.4.97 4.21 2.237 1.49 3.755.88 3.348.3 7.877-1.94-.142-2.47-.455-4.23-1.155-1.73-3.902-.92-4.017-.28-8.959" /><ns0:path fill="rgb(181,191,211)" d="M1511.61 372.598c4.56 1.176 7.16.917 7.99 6.796.66 4.685-.84 8.511-4.66 11.158-2.96-.154-2.2.332-3.94-1.322 1.28-.53 2.53-.904 3.87-1.23l.42-1.501-.62.054c-1.56-1.538-2.85-2.03-4.86-2.884-2.62-4.39-.7-6.997 1.8-11.071m65.59-4.074c1.55 3.471.87 12.615.85 16.977-3.5.267-5.61.757-8.58-1.215-2.57-4.155-1.85-6.24.2-10.523 5.78-.761 5.26-.456 7.53-5.239m-41.36 4.271 1.27.196c2.59 2.567 4.28 6.636 3.76 10.25-3.9 3.468-8.4 1.715-11.82-1.55-1.26-3.567-1.37-2.294-.27-5.156 2.94-2.515 3.33-2.73 7.06-3.74" /><ns0:path fill="rgb(28,38,63)" d="M1532.84 374.161c2.67.786 2.91 1.052 4.7 3.207.75 3.237.19 4.133-.99 7.132-2.58-.523-2.93-.591-4.65-2.555-1.01-3.01-.06-4.807.94-7.784" /><ns0:path fill="rgb(181,191,211)" d="M1545.09 373.992c-.11 3.42-.54 7.179 1.75 9.808 2.02-1.301 3.83-6.332 5.05-8.944l.47.376c.24 6.43 1.84 8.854-3.96 11.301-6.94-.804-5.71-7.43-5.56-12.993zm18.83 11.868c-1.68-5.287 0-7.098-2.25-10.532l-2.08-.131c-4.03 4.434.88 7.406-3.22 10.419-1.07-3.258-1.37-8.607.17-11.688 2.88-.994 3.51-1.384 6.31-.36 3.27 3.199 2.5 8.106 2.24 12.353zm-70.95-13.566c1.3 2.627 1.94 2.684 1.44 4.858l-3.89-1.92c-2.62.733-1.7.262-3.52 3.25 0 3.32-.45 2.136 1.54 4.525 3.68.945 2.41.795 6.41-.847-.37 3.152-2.62 3.398-5.01 3.708-8.28-3.107-6.5-11.257 3.03-13.574m29.07 1.179c2.29.188 2.57.208 4.72.956-2.61 2.861-2.96 3.666-3.59 7.487l.78 2.014-.83.623c-1.63-3.923-1.22-6.834-1.08-11.08" /><ns0:path fill="rgb(181,191,211)" d="M1467.97 386.43c-2.79-.139-5 .157-7.02-1.544-2.08-4.292-3.06-12.339.3-15.929 2.72 3.855 1.44 3.2 5.41 4.531 2.09-.192 6.78-.496 8.65-.834l4.6.52c3.07 4.488 2.47 6.987 2.31 12.713l-8.39.455z" /><ns0:path fill="rgb(181,191,211)" d="M1467.97 386.43c-2.79-.139-5 .157-7.02-1.544-2.08-4.292-3.06-12.339.3-15.929 2.72 3.855 1.44 3.2 5.41 4.531 5.68 3.999 4.49 7.435 1.31 12.942" /><ns0:path fill="rgb(28,38,63)" d="M1466.66 373.488c2.09-.192 6.78-.496 8.65-.834l-1.72 2.602.31 1.071 5.35-1.195.36 1.251c-3.63 4.862-4.49.344-6.72 5.003.28 1.73.49 3.255.94 4.956l-5.86.088c3.18-5.507 4.37-8.943-1.31-12.942" /><ns0:path fill="rgb(181,191,211)" d="M1615.62 372.688c1.96.282 5.44.292 6.42 1.932 3.38 5.625 3.07 11.894-2.37 15.802-3.25 1.003-4.12.416-7.18-.826l1.05-1.996c1.4-.123 2.75-.251 4.16-.266l.88-.006a46 46 0 0 1-2.5-1.463c-3.23-2.039-3.78-3.421-4.55-6.623.53-3.329 1.77-4.201 4.09-6.554" /><ns0:path fill="rgb(181,191,211)" d="M1688.22 365.999c5.13-.027 14.62.655 12.38 8.103-2.5 2.529-4.35 2.461-7.82 2.959-2.43 1.227-.06 2.907-3.59 5.994-1.76-2.713-1.02-13.119-.97-17.056" /><ns0:path fill="rgb(181,191,211)" d="M1600.35 373.458c2.99-.401 4.68-.867 7.56.217 3.87 3.564 4.36 7.319.8 11.169-1.87-2.178-1.35-3.167-1.68-6.537l.06-1.196-.88-.967-1.62.679c-1.09 3.762-1.24 4.583-3.5 7.864l-.96-.477c-.83-4.781-.58-5.904.22-10.752" /></svg>