<?xml version='1.0' encoding='utf-8'?>
<svg xmlns:ns0="http://www.w3.org/2000/svg" xmlns="http://www.w3.org/2000/svg" viewBox="1150.989 97.492 221.182 308.459" width="100%" height="100%"><ns0:path fill="rgb(242,242,242)" d="M1357.83 267.957c-4.18-.526-2.96.156-5.75-2.08-.44-6.049 6.76-6.13 4.33-14.241-1.83-.572-2.77-1.031-4.5-1.857-1.11-3.155-1.1-1.739.7-5.608l5.19-.441zm-.69-111.149c1.05 7.04.65 20.581.64 28.189-1.63-1.048-2.63-.901-4.69-1.184-1.44-1.223-1.42-1.893-1.87-3.722 1.72-2.939.79-1.933 4.69-3.561 1.07-2.348.58-14.669 1.23-19.722m-44.79-4.445a4.013 4.013 0 0 1 5.38.068 4.04 4.04 0 0 1 1.01 4.442 4.03 4.03 0 0 1-3.79 2.531 4.017 4.017 0 0 1-2.6-7.041m-81.81-.693 7.91.069c-.15 2.925-.16 3.37-1.44 5.984-3.07 1.859-1.81 1.686-4.79 1.075-2.42-3.171-1.69-2.358-1.68-7.128m65.9.675a3.954 3.954 0 0 1 5.05.14 3.96 3.96 0 0 1 1.06 4.409 3.945 3.945 0 0 1-7.42-.207 3.945 3.945 0 0 1 1.31-4.342m61.47 183.853-4.27-.627c-2.26-2.998-1.84-1.649-1.9-5.076 2.53-2.996 1.47-2.124 6.08-2.829zm-.1-101.379c-1.85-.075-2.68-.2-4.5-.529-1.97-2.636-1.72-1.505-1.52-4.342 2.52-3.335 1.26-2.388 6.03-3.201zm-158.43-82.463a3.74 3.74 0 0 1 4.21-.012 3.76 3.76 0 0 1 1.5 4.208 3.76 3.76 0 0 1-3.59 2.662 3.74 3.74 0 0 1-3.59-2.643 3.74 3.74 0 0 1 1.47-4.215m158.43 149.703c-2.21-.19-2.68-.119-4.66-1.02-1.7-3.254-1.75-2.157-1.07-5.011 2.68-1.953 1.46-1.424 5.73-1.174zm.01 16.323-3.74.128c-2.24-2.355-1.73-1.187-1.93-4.367 2.48-3.674.99-2.658 5.68-3.615zm-.01-117.856a51 51 0 0 0-4.19-.518c-2.08-2.734-1.93-1.687-1.7-4.412 2.46-2.577 1.5-1.837 5.87-2.115z" /><ns0:path fill="rgb(96,110,245)" d="M1261.56 171.239c2.48-2.142 2.95-2.744 6.14-3.124 3.86 2.363 2.78 5.321 1.74 9.328 15.16 8.291 24.24 11.595 41.64 14.118.78-4.292.02-3.707 2.64-6.46 3-.473 1.78-.742 4.53 1.244.85 2.5.87 3.01.99 5.657 2.01 1.009 3.75 1.35 4.1 3.871.88 6.136 1.55 12.769.34 18.787-2.22 2.081-7.57.931-10.67.578l-.88-.43c-3.19 2.73-4.34 3.155-8.14 2.149-1.56-2.56-1.13-1.546-1.03-4.914 2.32-2.971 2.27-1.788 7.71-2.585.93-2.571.86-4.252 1.01-6.958l-2.82-1.393c-1.58.381-3.13.898-4.68 1.382-1.53 3.822-3.14 6.111-7.02 7.8l-1.28-1.091c-1.6-5.85-1.28-5.882 2.89-9.139-15.3-3.393-27.32-8.663-40.54-16.92-13.61 8.797-25.33 13.409-41.08 17.187-2.72.365-5.93.943-8.62.797-7.71 2.763-5.5 8.804-5.06 16.168.23 15.818.13 27.504 3.05 43.149 4.3-.137 3.56-.719 6.93 1.144.6 2.856.09 2.757-1.08 5.779-1.02.753-2.51 1.684-3.23 2.63 2.83 6.497 6.97 15.084 12.17 19.957l1.24.052v-2.419c-.74-2.856-.75-8.008-1.52-11.877-2.53.546-4.1 1.22-6.39.214-.92-2.747-.8-3.125.03-5.921l5.62-1.415c1.45-1.504 2.5-2.229 2.08-4.858-1.25-7.774-3.1-1.192-8.25-5.314-.52-2.849-.29-3.254.85-5.945 2.06.034 2.14-.01 4.16-.48 3.34-3.226 2.67-4.33 3.58-9.584l.08-4.799c-1.64-4.983-.15-11.988-2.88-11.994-3.68-.009-4.23.28-6.56-1.69-.85-8.037 4.76-5.039 7.94-6.928l1.03-5.003 2.82-4.589c9.02-1.375 29.08-.324 39.91-.815-2.66 1.821-2.77 1.236-3.49 3.624 1.9 2.397 1.23 1.636 4.9 2.535-4.08.26-8.79.037-12.93-.059-8.15.095-16.31.137-24.46.126-.1 27.933-.67 58.452 0 86.17 7.52 5.775 16.11 12.328 24.57 16.722 1.95-4.241.73-3.043 4.35-5.001 3.67.922 3.88 1.357 5.17 5.064 9.13-5.082 16.16-10.318 24.1-16.998 3.55-3.471 6.07-6.341 9.3-10.12 3.99.2 5.92.006 9.26 2.202l1.33 1.9.65-.065c3.03 2.711 2.21 1.382 3.47 4.985-.92 3.217-.13 2.088-3.25 4.113-3.12.461-4.17-.141-7.04-1.219l-4.3 4.325c-6.03 5.063-11.15 9.197-17.5 13.842l-.81.561-19.36 11.101c-7.14-2.953-13.85-7.086-20.54-10.968l-.71-.604c-9.29-6.497-15.46-11.409-23.18-19.65-2.91 2.733-4.17 3.088-7.71 1.954l-1.15-2.433c.36-3.479.52-3.842 2.96-6.351-16.74-26.368-15.51-41.804-15.96-72.383-.24-7.037-1.04-17.735.77-24.587.61-2.299 2.06-2.295 4.41-3.26-.03-3.155-.33-4.788 1.52-7.413 2.72-.362 2.35.144 5.11 2.226.44 2.211.45 3.059 2.15 4.591 16.65-2.599 24.89-5.728 39.75-13.559 1.07-4.078-1.6-7.316 3.14-10.158 2.98.457 3.59 1.197 5.95 3.143 2.76-.331 3.54-.651 6.04.298" /><ns0:path fill="rgb(100,124,189)" d="M1225.14 207.4c9.02-1.375 29.08-.324 39.91-.815-2.66 1.821-2.77 1.236-3.49 3.624 1.9 2.397 1.23 1.636 4.9 2.535-4.08.26-8.79.037-12.93-.059-5.75-.934-20.71-2.78-25.99-.705z" /><ns0:path fill="rgb(242,242,242)" d="M1222.55 287.583c-.74-2.856-.75-8.008-1.52-11.877-2.53.546-4.1 1.22-6.39.214-.92-2.747-.8-3.125.03-5.921l5.62-1.415c1.45-1.504 2.5-2.229 2.08-4.858-1.25-7.774-3.1-1.192-8.25-5.314-.52-2.849-.29-3.254.85-5.945 2.06.034 2.14-.01 4.16-.48 3.34-3.226 2.67-4.33 3.58-9.584.16 14.647.63 30.704-.16 45.18m.24-49.979c-1.64-4.983-.15-11.988-2.88-11.994-3.68-.009-4.23.28-6.56-1.69-.85-8.037 4.76-5.039 7.94-6.928l1.03-5.003c1.07 7.126.68 18.146.47 25.615m88.89-35.104c1.99 2.444 1.62 9.438 1.33 12.738l-.88-.43c-3.19 2.73-4.34 3.155-8.14 2.149-1.56-2.56-1.13-1.546-1.03-4.914 2.32-2.971 2.27-1.788 7.71-2.585.93-2.571.86-4.252 1.01-6.958m-12.91-2.441c3.46.612 6.59 1.36 10.09 1.048-1.58.381-3.13.898-4.68 1.382-1.53 3.822-3.14 6.111-7.02 7.8l-1.28-1.091c-1.6-5.85-1.28-5.882 2.89-9.139m8.38 92.691.65-.065c3.03 2.711 2.21 1.382 3.47 4.985-.92 3.217-.13 2.088-3.25 4.113-3.12.461-4.17-.141-7.04-1.219zm-60.72-114.794c1.07-4.078-1.6-7.316 3.14-10.158 2.98.457 3.59 1.197 5.95 3.143-2.58 3.184-5.63 4.818-9.09 7.015m-48.53 14.155c-.03-3.155-.33-4.788 1.52-7.413 2.72-.362 2.35.144 5.11 2.226.44 2.211.45 3.059 2.15 4.591-3.11.455-5.68 1.047-8.78.596m63.66-20.872c2.48-2.142 2.95-2.744 6.14-3.124 3.86 2.363 2.78 5.321 1.74 9.328-2.98-1.825-6.03-3.292-7.88-6.204" /><ns0:path fill="rgb(242,242,242)" d="M1206.52 260.44c4.3-.137 3.56-.719 6.93 1.144.6 2.856.09 2.757-1.08 5.779-1.02.753-2.51 1.684-3.23 2.63-1.07-3.115-1.81-6.357-2.62-9.553m104.56-68.879c.78-4.292.02-3.707 2.64-6.46 3-.473 1.78-.742 4.53 1.244.85 2.5.87 3.01.99 5.657-2.45-.008-5.65-.295-8.16-.441m-57.44 124.142c1.95-4.241.73-3.043 4.35-5.001 3.67.922 3.88 1.357 5.17 5.064-4.62 3.144-5.11 2.183-9.52-.063m-44.96-23.362 5.9 6.83c-2.91 2.733-4.17 3.088-7.71 1.954l-1.15-2.433c.36-3.479.52-3.842 2.96-6.351" /><ns0:path fill="rgb(37,165,221)" d="m1238.7 234.59 7.28.006c6.32 8.21.99 9.081 12.11 19.783 3.93-4.816 9.42-13.168 15.42-13.934 5.65 3.441 2.62 30.862 2.71 38.878 5.37-4.996 11.91-11.449 17.38-16.108l3.48 3.385c-4.63 4.593-14.15 13.494-17.99 18.15l-.98 1.874c-1.77.656-4.97 1.959-6.69 2.305l-.56.329c-.4 1.894-.48 2.272-1.2 4.053-3.49 1.216-2.08 1.254-5.32.046-2.14-3.404-1.74-1.902-1.77-5.688 2.3-2.85 1.82-1.21 6.68-2.338.8-3.387.25-22.152.82-28.362.4-2.458.2-3.275-.08-5.785-3.46.164-6.87 9.627-12.41 10.452-3.48-1.864-9.67-9.416-12.61-12.698-.07 2.868-.39 12.447.48 14.724.97 2.547 3.77 1.824 3.67 7.336-4.67 7.469-13.36 5.422-13.37-2.685 12.32-13.789-4.6-22.043 2.95-33.723" /><ns0:path fill="rgb(242,242,242)" d="M1270.07 256.969c1.54 10.527-.4 22.521 1.35 31.96l-.56.329c-.4 1.894-.48 2.272-1.2 4.053-3.49 1.216-2.08 1.254-5.32.046-2.14-3.404-1.74-1.902-1.77-5.688 2.3-2.85 1.82-1.21 6.68-2.338.8-3.387.25-22.152.82-28.362" /><ns0:path fill="rgb(37,165,221)" d="M1265.05 206.585c8.95.349 15.11 8.32 21.22 14.928l6.45 7.055c.1 8.047 2.65 29.626-4.45 33.981-1.43-1.313-.96-.538-1.47-2.386-2.6-.081-4.52.012-7.03-.739-1.52-3.251-1.16-1.86-.78-5.941 2.19-2.156 2.16-1.458 6.02-1.449 2.34-3.213-.96-5.603 1.8-9.733 1.45-17.366-8.2-5.525-17.73-11.57-4.56-5.349-3.13-10.998-2.62-17.987-3.67-.899-3-.138-4.9-2.535.72-2.388.83-1.803 3.49-3.624" /><ns0:path fill="rgb(242,242,242)" d="M1286.8 260.163c-2.6-.081-4.52.012-7.03-.739-1.52-3.251-1.16-1.86-.78-5.941 2.19-2.156 2.16-1.458 6.02-1.449 2.34-3.213-.96-5.603 1.8-9.733.03 5.739.23 12.184-.01 17.862" /><ns0:path fill="rgb(32,191,159)" d="M1293.6 263.215c14.57-13.365 3.32-23.955 18.14-35.949.58-.467-.41-3.78 3.15-7.128 5.58-1.289 8.9-.425 11 5.59-2.89 6.719-8.77 3.15-13 6.652-2.97 2.46-6.32 5.372-4.2 9.112 3.72 1.703 15.37 1.218 18.56-1.025 2.64-2.516 3.05-2.952 6.77-3.597 5.22 1.792 6.61 4.885 4.79 10.379-2.66 2.551-3.85 3.12-7.62 1.49-6.02-4.502-19.76-3.844-25.34 1.417-1.15 2.938-1.12 4.692 1.01 7.341 7.75.41 8.83-6.41 16.25-1.626 2.52 5.49 1.8 7.41-3.59 10.018-8.24.767-11.54-10.669-22.44.711z" /><ns0:path fill="rgb(32,191,159)" d="M1327.25 240.467c2.64-2.516 3.05-2.952 6.77-3.597 5.22 1.792 6.61 4.885 4.79 10.379-2.66 2.551-3.85 3.12-7.62 1.49-3.53-4.589-3.63-3.305-3.94-8.272" /><ns0:path fill="rgb(96,110,245)" d="M1296.56 288.648c4.71-5.931 10.61-19.31 13.22-20.715 2.75.499 5.49.878 8.11 1.817 1.17 4.832-7.38 17.989-10.09 22.935l-.65.065-1.33-1.9c-3.34-2.196-5.27-2.002-9.26-2.202" /><ns0:path fill="rgb(242,242,242)" d="M1208.53 201.123c2.69.146 5.9-.432 8.62-.797l4.07 2.189c.79 2.949.31 3.748-.71 6.688l-1.32.741c-3.57-1.841-5.11-3.584-6.36-7.464-1.42-.455-2.88-.944-4.3-1.357m69.58 85.501.98-1.874c5.89 2.41 4.57.451 7.56 4.859l.05 2.371c-2.55 2.198-1.42 1.516-5.32 2.155l-2-1.113c-.27-1.771-.6-4.903-1.27-6.398m-71.47-75.882a4.386 4.386 0 0 1 6.21.157 4.39 4.39 0 0 1-.18 6.206c-1.76 1.651-4.53 1.57-6.18-.182a4.384 4.384 0 0 1 .15-6.181m105.02 93.039a4.37 4.37 0 0 1 4.25-1.476 4.37 4.37 0 0 1 3.31 3.061 4.38 4.38 0 0 1-1.15 4.357 4.374 4.374 0 0 1-6.03.079 4.375 4.375 0 0 1-.38-6.021m-32.48 14.95c5.49 1.773 5.07.98 7.34 5.208l-.27 2.363c-2.24 1.638-1.24 1.219-4.64.892-3.55-2.734-2.81-3.213-3.24-7.902zm-65.42 18.07c2.78-.017 4.03.093 6.78.488 1.96 2.467 1.35 3.511 1.57 7.218-2.38.045-4.33-.042-6.71-.166-2.05-2.555-1.41-3.669-1.64-7.54m-47.6-50.02a4.316 4.316 0 0 1 6.07.343 4.315 4.315 0 0 1-.31 6.067 4.303 4.303 0 0 1-6.1-.307 4.305 4.305 0 0 1 .34-6.103m121.78 42.117a4.271 4.271 0 1 1 1.67 7.25 4.25 4.25 0 0 1-2.95-3.135 4.26 4.26 0 0 1 1.28-4.115m7.92 8.918a4.24 4.24 0 0 1 4.33-1.213 4.26 4.26 0 0 1 3 3.359 4.257 4.257 0 0 1-7.37 3.555 4.247 4.247 0 0 1 .04-5.701m-72.52-8.956a4.25 4.25 0 0 1 5.96.311 4.25 4.25 0 1 1-7.3 3.758 4.25 4.25 0 0 1 1.34-4.069m15.94.091a4.244 4.244 0 0 1 5.89 6.113 4.245 4.245 0 1 1-5.89-6.113m64.99-.137a4.235 4.235 0 0 1 5.72.599 4.243 4.243 0 0 1-4.44 6.853 4.24 4.24 0 0 1-2.92-3.332 4.22 4.22 0 0 1 1.64-4.12m6.83 7.755c1.98.308 3.97.625 5.95.954 2.35 2.74 1.62 2.857 2.02 7.24-2.35.009-4.29-.094-6.64-.255-2.08-2.779-1.33-3.775-1.33-7.939m-55.6-58.599a4.233 4.233 0 0 1 5.98.108 4.23 4.23 0 0 1-.09 5.987 4.234 4.234 0 0 1-6-.09 4.235 4.235 0 0 1 .11-6.005m-89.45-109.129a4.24 4.24 0 0 1 4.27-1.061 4.21 4.21 0 0 1 2.9 3.298 4.23 4.23 0 1 1-7.17-2.237m154.27 143.145a4.22 4.22 0 0 1 7.08 1.961 4.22 4.22 0 0 1-7.12 3.957 4.22 4.22 0 0 1 .04-5.918m-48.52 16.882a4.22 4.22 0 0 1 4.13-.959 4.2 4.2 0 0 1 2.87 3.122 4.2 4.2 0 0 1-1.3 4.037 4.21 4.21 0 0 1-5.7-6.2m58.93-77.394 3.01.033 1.45 1.752c.35 3.092-.29 4.658-1.07 7.651-4.72-.798-5.11-1.078-6.62-5.266 1.1-3.19.3-2.06 3.23-4.17m-83.77 52.339a4.22 4.22 0 0 1 4.01-1.619 4.22 4.22 0 0 1 3.32 2.76 4.22 4.22 0 0 1-.86 4.232 4.21 4.21 0 0 1-6.47-5.373m81.28-.047a4.21 4.21 0 0 1 5.96-.088 4.2 4.2 0 0 1 .05 5.953 4.198 4.198 0 0 1-6.01-5.865m-48.33-134.963a4.19 4.19 0 0 1 4.19-.892 4.21 4.21 0 0 1 2.8 3.255 4.2 4.2 0 0 1-1.53 4.009 4.197 4.197 0 0 1-5.8-.552 4.2 4.2 0 0 1 .34-5.82m-41.21 65.787c.15-4.522-.58-4.168 1.68-7.199l2.16-.74c4.23 2.348 3.68 3.253 3.44 7.945zm-72.67 18.179a4.18 4.18 0 0 1 4.21-.876 4.191 4.191 0 0 1 1.15 7.297 4.19 4.19 0 0 1-5.74-.658 4.19 4.19 0 0 1 .38-5.763m121.82-41.943a4.16 4.16 0 0 1 4.23-1.084 4.18 4.18 0 0 1 2.89 3.287 4.2 4.2 0 0 1-1.63 4.059 4.175 4.175 0 0 1-5.63-.6 4.166 4.166 0 0 1 .14-5.662m-32.55 17.013a4.185 4.185 0 0 1 5.89-.064 4.19 4.19 0 0 1 .11 5.884 4.175 4.175 0 0 1-5.93.113 4.175 4.175 0 0 1-.07-5.933m-88.73 7.959a4.18 4.18 0 0 1 5.68.652 4.17 4.17 0 0 1-.29 5.709 4.17 4.17 0 0 1-4.22.953 4.16 4.16 0 0 1-2.8-3.304 4.16 4.16 0 0 1 1.63-4.01m-.33-49.9a4.163 4.163 0 0 1 5.7.577 4.163 4.163 0 0 1-.26 5.729 4.175 4.175 0 0 1-7.01-2.295 4.17 4.17 0 0 1 1.57-4.011m56.6-25.159a4.17 4.17 0 0 1 5.89-.433 4.173 4.173 0 0 1 .42 5.893 4.17 4.17 0 0 1-5.87.409 4.17 4.17 0 0 1-.44-5.869m57.44 41.866a4.17 4.17 0 0 1 4.25-.747 4.15 4.15 0 0 1 2.62 3.412 4.152 4.152 0 0 1-7.42 2.994 4.16 4.16 0 0 1 .55-5.659m-42.52 116.216.71.604c-.57 4.72.23 4.181-2.44 7.177-3.68.89-2.37 1.109-5.2-.321l-.32-2.344c2.14-4.142 1.82-3.31 7.25-5.116m-71.8 1.963a4.15 4.15 0 1 1 2.2 6.877 4.13 4.13 0 0 1-3.1-2.799 4.14 4.14 0 0 1 .9-4.078m154.64-42.85a4.15 4.15 0 0 1 5.89.219 4.145 4.145 0 0 1-.27 5.883 4.157 4.157 0 0 1-5.84-.27 4.146 4.146 0 0 1 .22-5.832m7.88-8.03a4.14 4.14 0 0 1 5.88.103 4.13 4.13 0 0 1-.15 5.882 4.14 4.14 0 0 1-5.83-.149 4.15 4.15 0 0 1 .1-5.836m16.41-17.095a4.13 4.13 0 0 1 4.1-.762 4.14 4.14 0 0 1 2.69 3.2 4.143 4.143 0 0 1-7.26 3.359 4.14 4.14 0 0 1 .47-5.797m-177.72-34.117a4.12 4.12 0 0 1 5.45 1.554 4.13 4.13 0 0 1-1.24 5.531 4.14 4.14 0 0 1-4.26.21 4.14 4.14 0 0 1-2.17-3.663 4.12 4.12 0 0 1 2.22-3.632m177.57-32.903a4.14 4.14 0 0 1 4.1-.927 4.14 4.14 0 0 1 2.79 3.144 4.16 4.16 0 0 1-1.41 3.958 4.13 4.13 0 0 1-5.48-6.175m-15.99.013a4.124 4.124 0 1 1 5.432 6.206 4.124 4.124 0 0 1-5.432-6.206m-97.39-16.952a4.127 4.127 0 0 1 6.95 2.383 4.12 4.12 0 0 1-1.71 3.951 4.12 4.12 0 0 1-5.55-.741 4.125 4.125 0 0 1 .31-5.593m73.26-9.234a4.124 4.124 0 0 1 5.7 1.068 4.124 4.124 0 0 1-.99 5.714 4.13 4.13 0 0 1-4.14.378 4.11 4.11 0 0 1-2.37-3.416 4.12 4.12 0 0 1 1.8-3.744m40.19 9.254a4.13 4.13 0 0 1 5.83.404 4.125 4.125 0 1 1-5.83-.404m-7.74 142.948a4.11 4.11 0 0 1 5.67.723 4.12 4.12 0 0 1-.52 5.7 4.13 4.13 0 0 1-4.14.731 4.12 4.12 0 0 1-2.63-3.276 4.12 4.12 0 0 1 1.62-3.878m-138.03 25.959a4.13 4.13 0 0 1 4.12-.719 4.111 4.111 0 0 1 1.04 7.122 4.104 4.104 0 0 1-5.69-.688 4.11 4.11 0 0 1 .53-5.715m137.71-59.878a4.12 4.12 0 0 1 5.8.386 4.11 4.11 0 0 1-.36 5.8 4.12 4.12 0 0 1-5.83-.359 4.13 4.13 0 0 1 .39-5.827m8.06 8.958a4.12 4.12 0 0 1 4.07-.831 4.13 4.13 0 0 1 2.72 3.134 4.1 4.1 0 0 1-1.39 3.913 4.11 4.11 0 0 1-5.76-.446 4.11 4.11 0 0 1 .36-5.77m-169.99 25.014a4.114 4.114 0 0 1 5.73.572 4.11 4.11 0 0 1-.45 5.74 4.12 4.12 0 0 1-4.09.772 4.09 4.09 0 0 1-2.67-3.195 4.11 4.11 0 0 1 1.48-3.889m162.03 17.008a4.11 4.11 0 0 1 4.1-.836 4.09 4.09 0 0 1 2.7 3.189 4.09 4.09 0 0 1-1.49 3.905 4.1 4.1 0 0 1-5.68-.559 4.1 4.1 0 0 1 .37-5.699m-145.95-51.061a4.1 4.1 0 0 1 5.72.62 4.105 4.105 0 0 1-.54 5.725 4.1 4.1 0 0 1-4.07.7 4.1 4.1 0 0 1-2.61-3.199 4.09 4.09 0 0 1 1.5-3.846m138.7-76.09a4.096 4.096 0 0 1 4.73 6.528 4.1 4.1 0 0 1-7.05-2.659 4.09 4.09 0 0 1 2.32-3.869m7.85 58.998a4.09 4.09 0 0 1 5.38 1.134 4.084 4.084 0 0 1-.61 5.465 4.092 4.092 0 0 1-6.79-2.781 4.12 4.12 0 0 1 2.02-3.818m-162.92-32.797a4.08 4.08 0 0 1 5.73.168 4.086 4.086 0 0 1-.08 5.739 4.08 4.08 0 0 1-3.99 1.024 4.1 4.1 0 0 1-2.86-2.98 4.09 4.09 0 0 1 1.2-3.951m8.01 58.951a4.1 4.1 0 0 1 4-1.047 4.097 4.097 0 0 1 1.69 6.931 4.092 4.092 0 0 1-5.69-5.884m137.41 8.885a4.09 4.09 0 0 1 5.75-.291 4.09 4.09 0 0 1 .35 5.743 4.09 4.09 0 0 1-5.8.349 4.084 4.084 0 0 1-.3-5.801m-88.89 41.998a4.08 4.08 0 0 1 5.77-.244 4.076 4.076 0 0 1 .24 5.774 4.086 4.086 0 0 1-5.77.238 4.096 4.096 0 0 1-.24-5.768m-40.32-25.994a4.08 4.08 0 0 1 6.68 2.541 4.08 4.08 0 0 1-1.59 3.837 4.08 4.08 0 0 1-5.64-.715 4.077 4.077 0 0 1 .55-5.663m137.94-24.942a4.076 4.076 0 0 1 6.83 2.056 4.08 4.08 0 0 1-1.3 3.933 4.07 4.07 0 0 1-5.68-.297 4.066 4.066 0 0 1 .15-5.692m-49.1 51.017a4.08 4.08 0 0 1 5.65-.95 4.076 4.076 0 0 1 1.03 5.639 4.08 4.08 0 0 1-3.71 1.772 4.07 4.07 0 0 1-3.37-2.364 4.08 4.08 0 0 1 .4-4.097m-71.92-8.993a4.09 4.09 0 0 1 5.36.813 4.084 4.084 0 0 1-4.4 6.497 4.1 4.1 0 0 1-2.79-3.351 4.1 4.1 0 0 1 1.83-3.959m64-33.915a4.076 4.076 0 0 1 6.85 1.957 4.1 4.1 0 0 1-1.23 3.944 4.077 4.077 0 0 1-5.69-.21 4.073 4.073 0 0 1 .07-5.691m.42-134.326a4.07 4.07 0 0 1 5.64.053 4.08 4.08 0 0 1 .18 5.639 4.08 4.08 0 0 1-3.99 1.229 4.06 4.06 0 0 1-2.97-2.914 4.05 4.05 0 0 1 1.14-4.007m72.54 143.141a4.07 4.07 0 1 1 2.06 6.816 4.07 4.07 0 0 1-2.06-6.816m-161.7-134.916c1.74-1.421 4.31-1.15 5.73.605a4.066 4.066 0 0 1-.64 5.725 4.056 4.056 0 0 1-5.69-.632 4.06 4.06 0 0 1 .6-5.698m104.91-8.047a4.05 4.05 0 0 1 5.73-.308 4.044 4.044 0 0 1 .29 5.731 4.05 4.05 0 0 1-6.02-5.423m-105.02 142.915a4.051 4.051 0 1 1 5.496 5.954 4.051 4.051 0 0 1-5.496-5.954m146.69-134.966a4.045 4.045 0 0 1 5.38 1.052 4.044 4.044 0 0 1-.62 5.441 4.04 4.04 0 0 1-4.17.68 4.02 4.02 0 0 1-2.49-3.406 4.03 4.03 0 0 1 1.9-3.767m7.45 25.05a4.03 4.03 0 0 1 4.06-.566 4.04 4.04 0 0 1 2.46 3.279 4.04 4.04 0 0 1-1.69 3.735 4.03 4.03 0 0 1-5.55-.877 4.035 4.035 0 0 1 .72-5.571m-152.45 7.751a4.024 4.024 0 0 1 2.82 7.478c-1.37.718-3.04.58-4.28-.356a4.03 4.03 0 0 1-1.52-4.023 4.02 4.02 0 0 1 2.98-3.099m161.97 33.841a4.02 4.02 0 0 1 3.97.992 4 4 0 0 1 1.05 3.953 4.023 4.023 0 0 1-7.76-.054 4.027 4.027 0 0 1 2.74-4.891m-91.39 60.379a4.04 4.04 0 0 1 3.79-1.432 4 4 0 0 1 3.11 2.586c.5 1.359.23 2.881-.71 3.985a4.015 4.015 0 0 1-5.63.492 4.02 4.02 0 0 1-.56-5.631m-55.83-126.94a4.017 4.017 0 0 1 5.35.925c1.28 1.65 1.08 4-.45 5.412a4.03 4.03 0 0 1-4.15.806 4 4 0 0 1-2.57-3.339 4.01 4.01 0 0 1 1.82-3.804m-15.92 66.94a4.01 4.01 0 0 1 5.36 1.049 4.015 4.015 0 0 1-4.79 6.065 4.01 4.01 0 0 1-.57-7.114m137.55-58.133a3.985 3.985 0 0 1 5.53.399 3.983 3.983 0 0 1-.21 5.546 3.99 3.99 0 0 1-3.96.924 4.01 4.01 0 0 1-2.72-3.031 4 4 0 0 1 1.36-3.838m-121.27 125.098c1.79-.936 4-.379 5.14 1.296a3.985 3.985 0 0 1-.7 5.256 3.98 3.98 0 0 1-6.58-2.882 3.97 3.97 0 0 1 2.14-3.67m-16.14-33.03a3.985 3.985 0 0 1 5.43.996 3.98 3.98 0 0 1-.78 5.465 3.979 3.979 0 0 1-6.42-2.79 3.98 3.98 0 0 1 1.77-3.671m23.35-108.932a3.977 3.977 0 0 1 5.45-.749 3.97 3.97 0 0 1 .98 5.411 3.96 3.96 0 0 1-3.67 1.772 3.99 3.99 0 0 1-3.3-2.392 3.97 3.97 0 0 1 .54-4.042m-32.05 168.04a3.98 3.98 0 0 1 4.06-.692 3.99 3.99 0 0 1 2.5 3.274 4 4 0 0 1-1.75 3.731 3.97 3.97 0 0 1-5.37-.893 3.97 3.97 0 0 1 .56-5.42m169.98-59.039a3.97 3.97 0 0 1 4.14-.765 3.96 3.96 0 0 1 2.5 3.393 3.98 3.98 0 0 1-1.96 3.728 3.966 3.966 0 0 1-5.19-1.079 3.973 3.973 0 0 1 .51-5.277m-168.28 7.684a3.968 3.968 0 0 1 2.92 7.329 3.969 3.969 0 0 1-5.76-4.222 3.98 3.98 0 0 1 2.84-3.107m160.12-99.66c1.49-1.603 4-1.69 5.61-.193a3.966 3.966 0 0 1 .18 5.609 3.963 3.963 0 0 1-5.6.188 3.96 3.96 0 0 1-.19-5.604m-145.95 117.892a3.961 3.961 0 1 1 5.63 5.57 3.956 3.956 0 0 1-5.52-.048 3.96 3.96 0 0 1-.11-5.522m-16.12-50.983a3.95 3.95 0 0 1 5.5-.116 3.948 3.948 0 0 1-3.54 6.741 3.93 3.93 0 0 1-2.93-2.734 3.94 3.94 0 0 1 .97-3.891m32.22-66.848a3.944 3.944 0 0 1 5.39-.073 3.955 3.955 0 0 1 .43 5.374 3.96 3.96 0 0 1-3.85 1.412 3.93 3.93 0 0 1-3.02-2.756 3.94 3.94 0 0 1 1.05-3.957m-32.85 15.364 5.18.945c2.42 2.593 1.67 2.896 2.06 7.331-2.38-.236-3.79-.475-6.12-.979-1.81-2.817-1.15-3.44-1.12-7.297m16.77-15.425a3.93 3.93 0 1 1 5.7 5.41 3.924 3.924 0 0 1-5.54.135 3.934 3.934 0 0 1-.16-5.545m-15.39 116.982a3.923 3.923 0 0 1 5.27 1.089 3.93 3.93 0 0 1-.77 5.325 3.94 3.94 0 0 1-4.03.515 3.93 3.93 0 0 1-2.33-3.322 3.95 3.95 0 0 1 1.86-3.607m153.25 26.085a3.94 3.94 0 0 1 3.8-1.286 3.924 3.924 0 0 1 1.97 6.597 3.92 3.92 0 0 1-5.44.122 3.915 3.915 0 0 1-.33-5.433m16.22-.053a3.9 3.9 0 0 1 5.44-.01 3.89 3.89 0 0 1 .15 5.435 3.89 3.89 0 0 1-3.78 1.146 3.9 3.9 0 0 1-2.84-2.754 3.91 3.91 0 0 1 1.03-3.817m-.1 16.986a3.87 3.87 0 0 1 3.84-1.427 3.87 3.87 0 0 1 2.98 2.816 3.89 3.89 0 0 1-1.2 3.92 3.89 3.89 0 0 1-5.22-.107 3.88 3.88 0 0 1-.4-5.202m-169.98-126.915a3.87 3.87 0 0 1 5.5-.186 3.874 3.874 0 0 1 .14 5.503 3.873 3.873 0 0 1-5.45.133 3.874 3.874 0 0 1-.19-5.45m7.88 109.902a3.81 3.81 0 0 1 3.65-1.22 3.824 3.824 0 0 1 2.02 6.341 3.823 3.823 0 0 1-5.36.231 3.814 3.814 0 0 1-.31-5.352m-7.65-159.951a3.81 3.81 0 0 1 5.17.3 3.805 3.805 0 0 1 .1 5.185 3.81 3.81 0 0 1-3.81 1.155 3.8 3.8 0 0 1-2.76-2.872 3.81 3.81 0 0 1 1.3-3.768m104.8-7.097 4.89-.705c2.59 1.587 2.04 2.28 3.02 5.946-3.01.265-4.57.58-7.53-.315-1.32-2.288-.89-1.614-.38-4.926m-64.31-.213a3.546 3.546 0 0 1 4.84.244 3.555 3.555 0 0 1 .09 4.851 3.56 3.56 0 0 1-3.54 1.057 3.57 3.57 0 0 1-2.57-2.652 3.55 3.55 0 0 1 1.18-3.5" /><ns0:path fill="rgb(28,38,63)" d="M1285.09 373.162c1.32-3.147 1.96-5.886 4.74-7.533 7.24 1.303 3.11 8.444 15.2 6.938l4.51 1.224c1.24 4.941 2.38 7.536-1.28 11.771-1.64 1.163-4.72 4.696-6.38 6.368l-1.95-.079c-.93-1.913-1.17-2.379-2.43-4.078-3.95-.803-24.1-1.761-27.85-1.346-3.48 1.165-8.08.729-11.62-.122l-1.1-.371c-1.88-4.241-1.5-7.665-1.45-12.279l2.48.761c8.03-1.332 7.83-1.538 16.21-1.283l2.39.056 7.24.023z" /><ns0:path fill="rgb(28,38,63)" d="M1257.96 374.416c8.03-1.332 7.83-1.538 16.21-1.283-1.41.321-3.92.592-4.84 1.559-2.33 2.439-2.04 9.306.32 11.735-3.48 1.165-8.08.729-11.62-.122l-1.1-.371c-1.88-4.241-1.5-7.665-1.45-12.279z" /><ns0:path fill="rgb(181,191,211)" d="M1257.96 374.416c-.2 3.616-.82 6.288 1.1 9.167l2 .493c2.7-3.772 1.56-9.024 3.48-9.954 2.99 7.396 2.08 11.495-6.51 12.183l-1.1-.371c-1.88-4.241-1.5-7.665-1.45-12.279zm47.07-1.849 4.51 1.224c1.24 4.941 2.38 7.536-1.28 11.771l-4.04.468-2.69 3.969c-2.71-3.206-2.14-11.725-.6-15.457.55-1.323 2.68-1.532 4.1-1.975m-19.94.595 2.69.251 2.46-3.95c1.19 1.796.8 13.307.81 16.305-9.4.176-15.42-4.917-7.25-12.556zm-10.92-.029 2.39.056c1.82 3.291 2.18 8.484.86 11.973l-1.25-.759c-.5-5.248.66-6.115-1.9-9.219l-2.05.09c-3.38 5.052-.38 5.754-2.57 11.153-2.36-2.429-2.65-9.296-.32-11.735.92-.967 3.43-1.238 4.84-1.559" /><ns0:path fill="rgb(28,38,63)" d="M1207.16 373.173c5.5-1.638 12.02.722 17.13-.119l4.53-.051 9.88.087 1.47.213 5.74-.682 3.76.462 5.81.572c-.05 4.614-.43 8.038 1.45 12.279l-7.07.588c-3.13.605-9.56.213-13.01.121-13.85 10.075-18.5 2.827-32.91-1.684-.35-10.994 1.99-7.274 3.22-11.786" /><ns0:path fill="rgb(181,191,211)" d="m1249.67 373.083 5.81.572c-.05 4.614-.43 8.038 1.45 12.279l-7.07.588c-5.46-.659-7.01-1.678-8.1-6.943.81-3.879 1.34-4.274 4.15-6.958z" /><ns0:path fill="rgb(28,38,63)" d="m1249.67 373.083 5.81.572c-.05 4.614-.43 8.038 1.45 12.279l-7.07.588c4.17-5.592 4.58-8.264-.19-13.439" /><ns0:path fill="rgb(181,191,211)" d="m1224.29 373.054 4.53-.051 1.97 1.125c1.63 4.697 1.89 12.483-2.24 16.054-3.31.782-1.92.796-5.41-.381l-.66-1.441c2.85.198 3.76.538 6.15-.743l-.04-1.865c-2.28.295-2.53.134-4.8-.466-4.74-4.199-3.21-8.136.5-12.232m14.41.036 1.47.213.21 1.057c-6.68 4.253-1.52 6.926-4.78 11.243-1.4-4.212-1.67-7.419.21-11.54z" /><ns0:path fill="rgb(28,38,63)" d="m1309.54 373.791 8.61-1.313 4.5 1.719c1.39-.221 4.31-1.108 5.8-1.509 2.47.353 5.65.087 6.95 2.274 3.51 5.905 1.51 12.416-3.34 16.762-.9.036-1.72.059-2.62.055l-.97-.011c-5.04-.015-5.35-4.495-14.34-6.433l-1.02-.105-4.85.332c3.66-4.235 2.52-6.83 1.28-11.771" /><ns0:path fill="rgb(181,191,211)" d="M1328.45 372.688c2.47.353 5.65.087 6.95 2.274 3.51 5.905 1.51 12.416-3.34 16.762-2.75-1.079-4-1.006-5.41-3.126 2.63-.057 4.46.181 6.73-1.074-1.83-4.495-6.2-.747-8.42-7.515.72-3.739 1.33-4.375 3.49-7.321m-18.91 1.103 8.61-1.313 4.5 1.719c.39 4.943.77 6.742-.91 11.322-.58-2.926-1.19-8.484-3.15-10.287-4.8 3.347-2.45 6.432-4.46 10.103l-1.02-.105-4.85.332c3.66-4.235 2.52-6.83 1.28-11.771" /><ns0:path fill="rgb(28,38,63)" d="m1309.54 373.791 8.61-1.313c-4.23 1.427-3.17.418-5.02 3.442-.15 3.342-.11 5.985-.02 9.31l-4.85.332c3.66-4.235 2.52-6.83 1.28-11.771" /><ns0:path fill="rgb(181,191,211)" d="M1191.28 385.289c-3.32.624-4.51.839-8.02.84-4.88-3.538-5.53-14.769 2.16-17.153 3.93.466 5.4 2.055 8.51 4.526q.51.033 1.02.152c3.71-.166 7.41-.394 11.12-.683l1.09.202c-1.23 4.512-3.57.792-3.22 11.786l-2.12.238c-3.2 1.31-5.26 2.052-8.69.511a6.1 6.1 0 0 1-1.85-.419" /><ns0:path fill="rgb(28,38,63)" d="M1191.28 385.289c-3.32.624-4.51.839-8.02.84-4.88-3.538-5.53-14.769 2.16-17.153 3.93.466 5.4 2.055 8.51 4.526-3-.191-5.7 1.828-6.36 4.763a6.11 6.11 0 0 0 3.71 7.024m3.67-11.635c3.71-.166 7.41-.394 11.12-.683l1.09.202c-1.23 4.512-3.57.792-3.22 11.786l-2.12.238c-3.2 1.31-5.26 2.052-8.69.511a6.125 6.125 0 0 0 6.46-5.193 6.124 6.124 0 0 0-4.64-6.861" /><ns0:path fill="rgb(181,191,211)" d="m1206.07 372.971 1.09.202c-1.23 4.512-3.57.792-3.22 11.786l-2.12.238c-.28-6.514-2.07-9.842 4.25-12.226" /><ns0:path fill="rgb(28,38,63)" d="M1192.14 375.861c2-.783 4.25.177 5.06 2.157a3.913 3.913 0 0 1-2.07 5.095 3.924 3.924 0 0 1-5.44-4.142 3.93 3.93 0 0 1 2.45-3.11" /></svg>